<?xml version="1.0" encoding="UTF-8"?>
<svg xmlns="http://www.w3.org/2000/svg" viewBox="0 0 302.63 409.97">
  <defs>
    <style>
      .cls-1 {
        fill: #010101;
      }

      .cls-2 {
        fill: #e73332;
      }
    </style>
  </defs>
  <g id="Livello_1" data-name="Livello 1">
    <path class="cls-1" d="M212.92,114.9c-.09,0-.17-.01-.26-.05,0,0-1.03-.36-1.85-.29-1.26.11-4.63-1.84-5.54-3.32-.39-.14-1.31-.41-2.53-.35-2.05.09-5.84.26-8.64-1.73-.27-.19-.39-.53-.29-.85.09-.32.38-.54.71-.55,2.58-.1,9.61-.48,11.12-1.04.03-.01.07-.02.11-.03.15-.03,3.68-.77,4.85,1.48.06.11.09.23.09.36v.29c.25.02.57,0,.91-.1.1-.03.21-.05.32-.03.63.06,1.5.7,1.36,2.18v.13c-.11.99-.2,1.84.32,2.75.16.28.13.63-.08.88-.15.18-.37.28-.59.28M211.02,113.01c.24,0,.47.02.7.05-.14-.79-.07-1.53,0-2.22v-.13c.03-.22.02-.35,0-.43-1.09.24-1.97-.07-2.07-.11-.3-.11-.5-.4-.5-.72v-.7c-.61-.82-2.37-.69-3.03-.56-1.33.46-5.18.77-8.09.94,1.73.35,3.49.27,4.64.22,2.08-.09,3.45.57,3.5.6.18.09.32.25.39.44.28.81,3.32,2.64,4.12,2.64,0,0,.01,0,.02,0,.11,0,.22-.01.33-.01"/>
    <path class="cls-1" d="M208.64,97.24s3.82-.94,5.45,1.38c0,0-.81-.56-2.13-.44,0,0-1.19.44-1.63.75,0,0-.56.25-1.69-.44-1.13-.69,0-1.25,0-1.25"/>
    <path class="cls-1" d="M61.24,301.01c-1.13,2.87-15.73-.16-32.63-6.79-16.89-6.62-29.67-14.32-28.54-17.2,1.13-2.87,15.73.16,32.63,6.79,16.89,6.62,29.67,14.32,28.54,17.2"/>
    <path class="cls-1" d="M78.73,310.9c-.33,0-.66-.02-1-.05-5.26-.48-9.39-4.6-9.2-9.19.08-2.02,1-3.9,2.59-5.29,1.91-1.67,4.6-2.48,7.38-2.23,5.26.48,9.39,4.6,9.2,9.19-.08,2.02-1,3.9-2.59,5.29-1.68,1.47-3.96,2.28-6.38,2.28M77.5,295.64c-2.05,0-3.97.67-5.37,1.89-1.27,1.11-2,2.6-2.07,4.2-.16,3.78,3.34,7.19,7.8,7.59,2.37.21,4.64-.46,6.23-1.85,1.27-1.11,2-2.6,2.07-4.2.16-3.78-3.34-7.19-7.8-7.59-.29-.03-.58-.04-.86-.04"/>
    <path class="cls-1" d="M232.87,310.61c-2.72,0-5.29-1.04-7.07-2.84-1.54-1.57-2.36-3.59-2.32-5.69.09-4.7,4.45-8.53,9.72-8.54h.03c2.72,0,5.29,1.04,7.07,2.84,1.54,1.56,2.36,3.59,2.32,5.69-.09,4.7-4.45,8.53-9.72,8.54h-.03ZM233.22,295.07h-.02c-4.44.01-8.11,3.17-8.18,7.04-.03,1.69.63,3.31,1.88,4.58,1.49,1.51,3.66,2.38,5.97,2.38h.02c4.44-.01,8.11-3.17,8.18-7.04.03-1.69-.63-3.31-1.88-4.58-1.49-1.51-3.66-2.38-5.97-2.38"/>
    <path class="cls-1" d="M77.33,304.35c-.84,0-1.62-.33-1.74-.39h-.01c-1.28-.6-1.26-1.96-1.07-2.6.49-1.53,1.81-1.69,2.44-1.56,1.03.23,1.68.58,2.07,1.1.37.51.46,1.14.29,1.95-.16.74-.6,1.1-.94,1.27-.32.16-.68.22-1.03.22M76.07,302.91c.31.13,1.27.45,1.78.19.11-.05.26-.16.33-.49.14-.62.01-.88-.09-1.02-.21-.28-.67-.5-1.37-.66-.18-.03-.82-.07-1.1.77-.02.07-.22.88.45,1.2"/>
    <path class="cls-1" d="M233.56,304.11c-.35,0-.71-.06-1.03-.22-.34-.17-.77-.53-.94-1.27-.18-.81-.09-1.44.29-1.95.39-.53,1.04-.88,2.06-1.1.64-.13,1.96.03,2.45,1.55.19.65.21,2.01-1.07,2.61h-.01c-.12.06-.91.39-1.74.39M234.33,300.68c-.08,0-.14.01-.16.01-.7.15-1.16.37-1.36.65-.1.14-.23.4-.09,1.02.07.32.22.43.33.49.51.26,1.47-.05,1.78-.19.67-.32.47-1.13.44-1.22-.22-.67-.69-.77-.94-.77"/>
    <path class="cls-1" d="M198.15,56.14c-.81,0-1.62.01-2.41.04-6.14.36-10.95,1.86-12.77,2.5l.25.91c.28-.08,28.28-7.66,33.25,8.11l1.47-.46c-2.26-7.17-9.11-11.01-19.8-11.1Z"/>
    <path class="cls-1" d="M211.27,119.85c1.08-.68,1.28-1.91,1.29-2.61l-.88-.28c-.27.84-.7,1.39-1.33,1.66-1.43.61-3.41-.34-3.43-.35l-.08-.04c-5.26-1.86-9.47-7.06-9.51-7.11l-.6.48c.62,1.03,2.42,3.6,6.37,6.54.99.6,2.06,1.13,3.18,1.53.26.12,1.54.69,2.97.69.56,0,1.15-.09,1.7-.32.12-.05.21-.12.32-.18Z"/>
    <path class="cls-1" d="M208.2,67.61c-.45-2.42-1.63-4.13-3.51-5.1-4.94-2.53-12.98,1.12-13.58,1.4-.38.15-1.01.33-1.51.43l.27,1.3-.07.02.11.17v.02s0,0,0,0l.43.7c.06.1.14.2.21.3.48.82,3.71,5.76,12.27,8.27.11.04.75.24,1.5.24.5,0,1.04-.09,1.5-.38.31-.15,1.56-.83,2.04-2.14.91-2.49.37-5.13.35-5.23ZM202.54,66.55c1.92,1.42,1.69,4.05,1.34,5.62-.63.43-1.41.86-1.71.91-.74-.09-5.82-1.96-9.08-5.48-.25-.24-.52-.55-.8-.94,0,0-.02-.02-.02-.03,0,0,0,0,0,0-.08-.1-.15-.2-.23-.31,0,0,0,0,0,0,0,0,6.22-1.06,9.1-.33,0,0,.02,0,.02,0,0,0,.01,0,.02,0h0c.55.12,1.02.3,1.36.55ZM206.41,72.31c-.3.83-1.28,1.29-1.28,1.29l-.11.06c-.2.13-.51.16-.83.15.37-.22.67-.44.83-.55l.24-.18.08-.36c.79-3.24.1-5.94-1.88-7.4-2.42-1.79-8.22-.87-11.08-.27,1.94-.81,7.97-3.03,11.61-1.16,1.46.75,2.34,2.06,2.7,4.03,0,.02.47,2.34-.28,4.4Z"/>
    <path class="cls-1" d="M207.12,75.03c-2.59,1.9-5.21,2.59-7.78,2.06-5.24-1.09-8.69-6.93-8.72-6.99l-.72.42c.42,1.03,1.81,3.87,5.25,6.47,1.15.72,2.44,1.32,3.86,1.61.68.14,1.35.21,2.03.21.24,0,.48-.01.72-.03,3.2-.4,5.2-2.08,5.99-2.88l-.63-.86Z"/>
    <path class="cls-1" d="M206.6,99.32l-.21-.83c-.86.21-1.58.14-2.13-.22-.99-.64-1.26-2-1.26-2-.26-1.63,2.81-3.43,3.9-3.94l-.3-.66c-.75.14-3.15.74-4.81,3.01-.28.57-.42,1.19-.31,1.84.01.06.21,1.13.95,2.1,1.71,1.53,3.58.94,4.17.69Z"/>
    <g>
      <path class="cls-1" d="M202.68,138.03l.02-.81c-12.42-1.81-21.38-4.95-24.59-6.19-.18-.07-.35-.14-.52-.2-.27-.11-.47-.19-.6-.24-7.19-2.92-13.72-7.18-19.1-11.41v.03c-9.08-7.12-13.9-12.41-15.46-14.23l-.88.71c.18.22,18.26,22.25,41.26,28.51.67.22,11.08,3.59,19.86,3.84Z"/>
      <path class="cls-1" d="M302.49,296.88c-1.32-5.66-3.07-25.88-3.15-26.82v-.82c-.46-22.84-5.07-38.29-8.85-47.23-3.99-9.43-7.86-13.73-8.25-14.16-6.04-7.78-20.86-15.4-25.59-16.8-4.22-1.25-22.4-8.99-22.58-9.07-14.96-6.52-38.42-20.65-41.33-22.41-1.05-6.2-.28-12.32-.02-14.06.83-.23,1.71-.55,2.6-.92.01,0,.03,0,.04-.01h0c4.93-2.07,10.26-5.88,10.54-6.08l.21-.15.08-.25c.94-3.06,7.11-12.6,7.41-13.07,6.51-8.93,10.32-22.9,10.75-24.52.17-.23.34-.49.47-.78l.02-.05c.04-.1.82-2.29.41-4.14.6-1.84,2.72-5.67,3.03-6.2.45-.54.8-1.07,1.09-1.58h0c2.19-2.63,3.16-6.71,3.58-10.15,7.48-4.15,4.96-11.45,4.93-11.52l-.05-.11s-.87-1.61.82-3.36c2.33-2.41,1.41-6.13.06-7.89-.61-.8-.61-2.92-.46-4.14,1.05-2.71.59-4.68-.1-5.95.42-1.64-.32-4.12-1.36-5.34-.58-.69-1-2.79-1.12-3.95l-.02-.12c-.02-.09-.55-1.94-1.96-4.25-1.86-4.56-5.13-6.43-6.12-6.9-1.2-2.85-3.77-5.15-7.72-6.86-.11-.05-.2-.09-.27-.12-.68-.31-1.46-1.13-1.72-1.44-1.79-2.44-5.01-3.5-6.16-3.81-.52-1.25-2.51-4.75-8.81-5.79-.07-.01-.25-.05-.53-.1-4.18-4.86-13.09-4.72-14.68-4.65-.47-.31-.97-.59-1.52-.8-3-1.16-5.94-.05-6.07,0l-.12.06c-.58.35-1.74.86-2.39.72-1.5-.31-2.86.21-3.88.7-.62.3-2.16.24-3.01.13-1.4-.38-3.91-.39-5.31,1.18-.48.54-2.28.59-3.35.46h0c-1.77-.23-3.43.14-4.41.56-.93-.1-1.89-.04-2.79.24-.45.14-1.48.27-1.98.33-.47-.09-1.58-.14-3.83.55-2.32.71-3.49,1.94-4.25,2.9-4.12-.15-7.66,1.12-9.08,3.3-.34.52-1.69,1.04-2.54,1.24l-.06.02c-3.43,1.1-5.67,4.15-6.25,5.01-3.3,1.3-3.9,3.24-4.22,4.29-.02.08-.05.15-.07.22q-.09.29-.59.6c-.48.3-1.28.81-2.63,1.88-2.79,2.19-4.44,5.95-4.85,6.98-.57.35-.96.64-1.06.71-2.6,1.74-3.78,6.26-3.83,6.45l-.02.18s-.06,1.61-1.92,5.17c-1.74,3.34-1.73,6.49-1.67,7.53-.17.18-.34.38-.52.59-2.6,3.09-1.32,7.19-.98,8.12-.09.71-.11,1.48-.07,2.32-.52.31-.84.75-1.02,1.23-.99-1.12-2.07-1.72-2.16-1.77-4.22-2.02-6.97.41-7.36.78-2.17,1.73-2.01,4.33-1.86,5.31-.28.38-.48.76-.6,1.07-.08.19-.46,1.11-.74,2.47-1.62.99-9.51,6.38-8.5,16.8h.09c-.42,1.54-.47,3.58.86,5.73-.08.71.03,1.53.45,2.46l.03.05c.05.09.48.85,1.16,1.36.21.15.49.55.63.79.29.48.49,1.07.58,1.76.08.59.12,1.18.16,1.81.13,2.09.29,4.25,2.15,6.33.2,1.68,1.07,5.13,4.73,7.17.89,1,2.18,2.57,2.39,3.15.3.81,2.44,4.05,5.86,5.24.86.3,1.74.45,2.62.45.59,0,1.18-.09,1.78-.22.52.76,1.66,2.11,3.32,2.31,1.35.16,1.42.25,1.98,1.01.18.24.39.54.69.89,1.02,1.22,3.25,2.21,5.96,2.21.51,0,1.03-.05,1.57-.12-.08,1.01-.17,2.1-.26,3.23-.96,12.03-2.57,32.13-7.96,36.68-1.12.69-21.7,13.34-35.19,18.81-.63.16-7.24,1.88-12.28,2.99-.63.14-1.38.27-2.25.43-6.31,1.14-18.06,3.26-29.63,15-.18.2-18.26,20.5-25.78,50.59-.03.1-2.6,10.51-5.71,18.05l1.42.59c3.16-7.65,5.76-18.17,5.78-18.27,7.42-29.7,25.25-49.73,25.4-49.9,11.21-11.37,22.64-13.44,28.78-14.54.88-.16,1.64-.3,2.3-.44,5.3-1.16,12.32-2.99,12.39-3.01l.09-.03c13.93-5.64,35.3-18.85,35.52-18.98l.09-.06c5.92-4.9,7.5-24.69,8.55-37.78.14-1.8.28-3.5.41-4.9.88-9.49,3.11-28.85,3.61-33.2,1.14-.46,2.25-1.19,3.36-2.75.05.06.1.11.14.16,3.48,4.25,3.97,5,4.04,5.12.34.68,2.11,2.65,5.22,2.65,1.03,0,2.21-.22,3.53-.76,1.44-.6,3.12-2.11,2.93-5.93-.11-2.12-.76-3.99-.78-4.07l-.85.3c.33,1.45.9,4.84-.41,6.9-.31.6-.78,1.09-1.48,1.38-4.72,1.96-6.77-1.12-6.78-1.15-.08-.17-.31-.61-4.23-5.4-1.06-1.3-4.14-4.09-4.74-4.63-.37-.69-1.05-2.41-.46-3.51.15-.28.41-.5.73-.69.88,1.6,3.3,5.61,6.5,7.7l.47-.72c-2.29-2.27-3.85-4.69-4.65-6.09-.34-.53-.61-1-.83-1.37.22-.03.42-.07.67-.08,4.07-.24,7.11-2.17,8.87-3.63.66.15,1.66.36,2.25.34-.19.47-.27,1.09-.2,1.73.1.88.58,2.55,2.64,3.87l.7.61.09.05c.08.04.24.16.29.23-.15.23-.8.11-1.25-.14-.15-.08-.32-.21-.5-.34-.61-.43-1.36-.97-2.3-.88-.25.02-.46.09-.63.18-.89.74-1.55-.02-1.89-.62l-.65.23c.16.44.37.83.63,1.19.82,1.09,1.51,1.3,2.37.71.14-.1.22-.15.32-.16.37-.03.83.29,1.27.61.21.15.43.3.64.42.51.29,1.1.46,1.65.46.68,0,1.31-.26,1.68-.89.22-.38.28-.79.16-1.19-.19-.63-.75-1-1.01-1.15l-.6-.53-.1-.07c-1.37-.86-1.81-1.85-1.95-2.54-.14-.7.02-1.19.08-1.28.37-.37.47-.82.31-1.24,3.27.5,7.27-.73,11.26-6.53l.07-.13c.44-1.02,2.04-3.78,3.51-3.18.55.22,1.08.31,1.58.3.02,0,.05,0,.08,0,.08,0,.15-.02.22-.02.7-.1,2.19-.54,3.22-2.37l-.73-.62s-1.83,2.09-3.78,1.29c-2.5-1.02-4.6,1.95-5.47,3.92-3.85,5.56-8.06,7.2-12.5,4.89-4.02-2.09-6.28-.77-7.47.7-1.73,2.16-3.9,2.55-5.15,1.82l-.08-.05c-1.44-.84-1.79-.61-3.75.67-.69.45-1.64,1.07-2.97,1.89-1.43.87-2.65,1.13-3.62.77-1.08-.4-1.63-1.48-1.82-1.94.32-1.28.67-2.53,1.05-3.73.31.29.68.54,1.15.65.18.04.36.06.54.06.89,0,1.83-.51,2.79-1.51l.07-.09s1.02-1.39,2.35-1.61c.62-.11,1.23.06,1.84.49,1.38.99,2.75,1.33,4.05,1,1.54-.38,2.86-1.63,3.93-3.72.22-.27,1.46-1.69,3.2-1.78,1.24-.07,2.49.57,3.73,1.89l.04.04c.09.09,2.3,2.09,5.23,1.87,1.89-.14,3.61-1.16,5.12-3.04l.06-.07.04-.08c.03-.07,3.46-6.97,6.83-5.64.49.19.96.35,1.42.48.81.2,2.3.44,4.12.03,1.08-.28,1.83-.69,2.27-1.01l-.54-.87c-1.7,1.05-3.95,1.03-6.7-.06-4.54-1.8-8.29,5.4-8.74,6.32-1.21,1.48-2.54,2.29-3.97,2.4-2.14.17-3.89-1.3-4.07-1.45-1.56-1.65-3.2-2.44-4.91-2.35-2.62.14-4.31,2.34-4.38,2.44l-.07.12c-.86,1.69-1.88,2.72-2.96,2.99-.85.21-1.79-.05-2.79-.76-.95-.68-1.95-.93-2.99-.76-1.81.31-3.07,1.87-3.31,2.19-.72.74-1.37,1.09-1.83.98-.41-.1-.73-.55-.93-.92.83-2.45,1.72-4.66,2.55-6.52.34.34.78.66,1.35.77.16.03.31.05.47.05.75,0,1.5-.36,2.25-1.07,2.6-2.46,3.46-2.92,4.21-2.24,1.54,1.4,2.61.54,3.46-.16.26-.22.54-.44.87-.66,1.5-.99,4.28-2.84,6.84.47,1.39,1.79,3.24,2.69,5.2,2.53,2.18-.18,4.27-1.65,5.46-3.85.22-.32,2.39-3.31,5.19-3.81,1.25-.22,2.43.07,3.58.89.14.11,3.56,2.64,7.43,1.76,2.49-.56,4.55-2.38,6.12-5.41.04-.08.99-1.88,3.16-1.45h0s1.6.36,3.32-.46c.5-.28.83-.61,1.03-.9l-.75-.68c-.87.96-2.52.71-2.75.67-2.94-.89-4.8,1-5.38,2.12-1.35,2.6-3.06,4.15-5.08,4.61-3.17.72-6.14-1.47-6.19-1.5-1.51-1.08-3.11-1.47-4.77-1.17-3.59.65-6.1,4.34-6.21,4.5l-.04.07c-.94,1.76-2.57,2.94-4.25,3.08-1.45.12-2.78-.55-3.86-1.93-3.44-4.44-7.41-1.8-8.93-.8-.39.26-.7.51-.98.74-.86.7-.89.73-1.46.22-2-1.82-4.19.26-6.31,2.26-.36.34-.88.72-1.35.63-.43-.09-.77-.54-.95-.85,1.26-2.67,2.22-4.34,2.35-4.55,1.12-1.6,2.25-3.17,3.4-4.7v.02c1-.65,2.92-1.57,3.85-1.29.2.06.33.18.42.39.41.94.99,1.49,1.74,1.63,1.18.23,2.16-.72,2.27-.83l.03-.04s1.87-2.07,4-1.98c1.14.05,2.2.72,3.16,2,.21.41,1.29,2.29,3.38,2.72.29.06.59.09.89.09,1.45,0,3-.71,4.62-2.13l.07-.07.06-.08s1.75-2.53,4.36-2.95c1.42-.22,2.88.23,4.32,1.34,1.68,1.46,5.75,3.24,9.31-.43l.07-.07.05-.08s2.43-4.13,6.13-3.27c.95.22,1.84.38,2.67.49,3.31.35,5.27-.71,5.95-1.17l-.5-.72c-.57.27-2.71,1.12-5.82.29h0c-.6-.1-1.25-.22-1.96-.39-2.01-.47-4,.09-5.77,1.61-1.11.95-1.79,1.99-1.99,2.3-3.42,3.45-6.99.4-7.14.27l-.04-.03c-1.8-1.4-3.66-1.96-5.53-1.66-2.99.47-4.96,3-5.33,3.51-1.54,1.33-2.91,1.88-4.1,1.63-1.55-.32-2.35-1.94-2.35-1.95l-.08-.13c-1.26-1.71-2.73-2.61-4.38-2.68-2.76-.11-4.93,2.2-5.19,2.48-.14.14-.58.45-.88.39-.28-.05-.51-.48-.61-.73-.27-.63-.75-1.06-1.39-1.25-.7-.21-1.52-.09-2.31.14.74-.96,1.48-1.9,2.23-2.83,1.01-1.03,3.93-3.48,5.29-2.36,1.53,1.27,3.16.38,3.86-.31.21-.13,1.04-.61,1.86-.45.49.1.9.42,1.25.98l.07.11.1.08c.06.05.66.5,1.57.47,1.13-.02,2.23-.68,3.28-1.99.11-.15,2.75-3.56,5.73-1.73.26.17,1.87,1.14,4.41.34l.06-.02s2.42-.95,4.54,1.24c1.77,1.83,4.66,1.5,6.67.95.07-.02,1.97-.7,3.19-1.46h0c.7-.42,1.81-.93,3.02-.82,1.14.1,2.19.72,3.11,1.87l.11.11c.11.09,2.78,2.25,6.06,1.64,2.26-.42,4.19-2.03,5.75-4.78l.02-.05s.13-.26.38-.59l-.03-.02c1.37-2.32,3.92-2.04,4.98-1.8l.35-.84c-4.58-1.92-6.82,2.12-7.05,2.55-1.32,2.33-2.89,3.68-4.67,4.01-2.34.44-4.4-1.01-4.76-1.28-1.19-1.44-2.58-2.24-4.13-2.37-2.41-.2-4.39,1.3-4.84,1.68-1.47.66-5.35,1.88-7.04.12-2.71-2.8-5.81-1.76-6.19-1.61-1.93.6-3.01-.12-3.05-.15l-.05-.03c-3.35-2.08-6.56.47-7.77,2.08-1.37,1.71-2.32,1.44-2.6,1.3-.57-.84-1.3-1.35-2.17-1.53-1.6-.32-3.03.69-3.09.74l-.11.09c-.16.16-1,.95-1.83.25-.87-.72-1.9-.77-2.91-.48,1.12-1.3,2.24-2.58,3.38-3.81.29.33.61.5.88.59.22.07.45.1.67.1,1.06,0,2.02-.7,2.14-.8l.1-.08.07-.1c.29-.43,1.32-1.64,2.21-1.66.14,0,.54-.01,1.05.66.55.73,1.33,1.17,2.31,1.3,2.82.37,6.66-1.94,8.3-3.22,1.75-1.37,5.01-1.34,7.85,1.35,3.54,3.35,8.53.73,8.77.6,3.46-2.08,5.43-1.3,5.7-1.18,2.29,1.74,4.95,2.64,7.32,2.45,2.38-.18,3.42-2.26,3.63-2.74,1.04-1.53,2.42-2.18,2.7-2.3,3.36-.57,4.95.84,6.49,2.21.38.34.78.69,1.19,1,2.51,1.88,7.32-.53,9.4-2.95,1.65-1.93,4.12-1.29,4.22-1.26l.2-.74.02-.06c-.75-.39-2.97-1.2-5.58,1.02-.01.01-.02.02-.03.04-1.83,2.13-5.77,3.87-7.3,2.72-.36-.27-.71-.58-1.09-.92-1.65-1.47-3.71-3.3-7.86-2.56l-.13.03c-.08.03-2.09.78-3.55,2.97l-.08.15s-.68,1.72-2.35,1.85c-2.01.16-4.32-.64-6.32-2.18l-.09-.06c-.11-.06-2.77-1.52-7.27,1.16-.27.13-4.3,2.12-6.94-.39-3.47-3.29-7.59-3.22-9.85-1.45-1.63,1.28-5.02,3.19-7.15,2.91-.57-.08-.98-.3-1.28-.7-.81-1.08-1.71-1.29-2.32-1.28-1.66.04-2.99,1.71-3.36,2.22-.37.24-.97.51-1.31.4-.11-.04-.2-.14-.29-.28,2.4-2.56,4.82-4.98,7.28-7.25,1.33.82,4.89,2.47,8.75-.15,4.21-2.86,7.16-.7,7.29-.6.05.04,4.93,3.56,10.59-1.02,1.44-1.17,2.82-1.65,4.1-1.42,1.97.35,3.14,2.29,3.15,2.3l.03.05s3.25,4.6,8.83.85c4.39-2.95,8.17-.01,10.03,2,1.03,1.11,2.17,1.64,3.39,1.56,2.27-.15,3.88-2.4,3.92-2.46.01-.02,1.3-1.63,3.28-1.71,1.18-.04,2.39.46,3.62,1.48,0,0,0,0-.01,0,.03.02.05.05.08.07h0c.36.3.72.64,1.08,1.04.41.55,3.16,3.55,11.38-1.18l.76-.6c5.05.75,7.36,8.7,7.38,8.78,3.1,11.43,1.83,25.84,1.82,25.99v.05s0,.05,0,.05c0,.04.06,1.69-.11,3.96-.55-1.45-1.32-2.38-2.03-2.95-1.5-1.2-3.21-1.32-4.3-1.03-2.45.64-2.57,3.36-2.58,3.47v.03s0,.03,0,.03c.03.9.07,2.22.12,3.76.25,8.2.52,15.66.91,16.98.34,1.14-.1,2.83-.31,3.41-.54,1.18-1.82,1.64-2.04,1.71-1.23.19-2.72.85-3.65,1.31-.46.29-.68.52-.76.61h0c-.18.16-.33.33-.37.5,0,0-.29,1.01.61,1.07.57.04.93-.34,1.15-.77,0,0,.02,0,.03-.01h-.02s-.06-.32.15-.47c.38-.28,1.47-.62,3.17-.72h.06s.25-.09.56-.22c-1.34,4.47-4.83,15.02-9.94,22.02l-.02.03c-.26.4-6.28,9.67-7.52,13.21-1.02.72-5.74,3.95-9.99,5.75-8.35,3.13-20.52,2.73-20.64,2.73l-.03.92c1.84.25,6.45.68,12.5-.13v.02c1.48-.21,3-.49,4.49-.84-.33,2.37-.93,8.27.17,14.34l.06.34.3.18c.26.16,25.83,15.72,41.82,22.69.75.32,18.45,7.85,22.75,9.13,4.08,1.21,18.94,8.69,24.83,16.3l.05.06s4,4.3,8.02,13.83c3.71,8.8,8.23,24.02,8.69,46.54v.9c.07.84,1.71,19.93,3.06,26.47-1.92.93-8.84,4.12-17.41,6.4-8.95,2.37-21.51,4.16-31.36-.35-.11-6.34-1.33-11.03-1.46-11.52-.07-.37-.89-5.21,1.62-8.69,8.02-11.17,4.42-27.54,4.27-28.23l-1.11.25c.32,1.93,1.09,7.65.27,13.62h0c-.45,4.32-1.69,9.31-4.67,13.46-2.98,4.15-1.92,9.68-1.87,9.91v.05c.03.06,1.4,5.15,1.43,11.91l-.09.18s.07.03.1.05c0,1.69-.08,3.49-.29,5.33-1.43,12.43-7.65,21.06-18.47,25.65-.08.03-8.54,3.36-19.52,3.08-14.7-.37-26.64-6.68-35.47-18.75-7.84-10.71-10.25-24.17-10.28-24.3l-.99.17c.14,1.14.55,4.1,1.46,7.67,1.6,4.95,4.3,11.55,8.56,17.37,11.37,15.55,26.22,19.12,36.68,19.38.46.01.91.02,1.36.02,10.61,0,18.43-3.07,18.79-3.21,4.05-1.72,7.51-4.04,10.35-6.89-.43,7.4-.76,12.55-1.02,16.09-.64,8.66-2.53,17.57-4.06,24.73-.87,4.1-1.63,7.64-1.95,10.24-.28,2.24-.66,4.84-1.07,7.58-.74,5.01-1.56,10.59-2.06,15.96-7.07-6.41-40.05-16.18-80.38-23.4-41.07-7.35-75.9-9.57-83.95-5.72.42-2.57,1.34-8.07,2.08-11.83,1.02-5.11,1.15-12.76,1.16-13.08v-.05s0-.05,0-.05c-.71-6.17-.77-8.89-1.04-20.33l-.06-2.57c2.61,2.57,5.93,4.93,10.18,6.86.36.15,9.06,3.67,20.54,3.79.2,0,.39,0,.59,0,10.6,0,25.29-3.1,36.33-17.5,3.37-4.39,5.72-9.23,7.34-13.47,1.51-4.36,2.25-8.83,2.59-11.61l-.89-.14c-.02.14-2.2,13.76-10.27,24.28-8.71,11.36-20.71,17.03-35.63,16.89-11.19-.11-19.93-3.64-19.99-3.67-10.85-4.93-16.97-13.23-18.19-24.68-.92-8.61,1.43-15.86,1.45-15.93l.02-.09c.02-.08.38-1.95.13-4.32l-.07-.7c.18-2.5-2.26-4.35-2.83-4.74-4.84-6.13-6.79-18.57-6.92-19.43-.04-2.19-.96-4.77-2.07-7.12-1.6-3.02-3.89-5.69-4.6-6.49l-.68.48c.06.08,5.74,8.11,5.81,13.2v.1c.09.56,2.02,13.69,7.33,20.31l.08.1.1.07s2.41,1.59,2.23,3.46v.08s.08.85.08.85c.21,1.95-.05,3.55-.1,3.81-.23.73-2.42,7.84-1.51,16.47.56,5.3,2.42,11.8,7.4,17.49-.02.07-.03.14-.03.22h0s0,.02,0,.03c0,.02,0,.05,0,.07l.1,3.92c.27,11.47.34,14.22,1.05,20.42-.01.67-.18,7.99-1.13,12.76-1,5.06-2.31,13.22-2.32,13.3l.21.03c-.1.17-.17.35-.21.54-1.09,6.08,35.52,17.71,81.76,25.99,44.99,8.05,82.51,9.95,85.52,4.45h.09c0-.09.02-.2.02-.3.02-.06.06-.11.07-.18.03-.19.03-.39,0-.59.45-5.89,1.37-12.16,2.2-17.74.41-2.75.79-5.35,1.07-7.61.32-2.53,1.06-6.05,1.93-10.11,1.53-7.21,3.44-16.18,4.09-24.94.28-3.78.63-9.39,1.11-17.65l-.27-.02c4.22-4.87,6.85-11.1,7.7-18.54.19-1.66.28-3.26.3-4.8,3.4,1.45,8.1,2.64,14.4,2.64,4.82,0,10.58-.7,17.38-2.5,10.23-2.72,18.14-6.73,18.22-6.77l.54-.27-.14-.59ZM236.08,41.12c.27.54.48,1.18.57,1.79-.03-.03-.06-.04-.06-.04l-.13-.07c-.13-.05-.3-.13-.48-.24.1-.44.15-.94.1-1.44ZM234.12,35.6c.05.45.29,2.29.87,3.66-.44-.27-.46-.31-.73-1.55-.18-.84-.46-2.12-1.06-4.12-.08-.26-.16-.5-.25-.73.74,1.41,1.1,2.49,1.17,2.74ZM234.56,41.4c-.3-.33-.61-.73-.9-1.21.15.14.33.28.57.42.24.14.32.45.33.79ZM231.72,34.04c.58,1.94.85,3.18,1.03,4,.04.2.08.37.12.54-.22-.55-.41-1.16-.58-1.86-.02-.1-.06-.18-.08-.28-.06-.76-.22-1.43-.45-2.03h.02c-.01-.14-.04-.25-.06-.38,0,0,0,0,0,0ZM229.31,33.45c-1.02-.37-2.12-.46-3.02-.41l.06-.43c.59-.03,1.91,0,2.93.8.01,0,.02.02.03.03ZM226.57,31.07l.02-.12c.25.01.64.06,1.08.2-.42-.06-.79-.08-1.1-.08ZM227.23,27.52s.26.1.64.28c-.27-.09-.52-.16-.72-.21,0-.04-.02-.07-.03-.1l.1.04ZM226.84,29.1c.44.11,1.16.34,1.92.83-.76-.34-1.49-.46-1.97-.5l.05-.33ZM210.83,13.25s.06,0,.09,0v.02s3.87.86,5.67,3.33l.03.04c.11.14,1.14,1.34,2.27,1.87.07.03.18.08.3.13,3.37,1.45,5.62,3.35,6.75,5.65-2.2-3.82-6.37-4.9-8.74-4.87-2.01.04-2.93-.99-3.94-2.89-1.12-2.11-4.18-4.23-9.09-3.27-3.63.71-4.73-.44-4.84-.56-.25-.42-.59-.76-.97-1.05,7.73.04,12.4,1.57,12.48,1.6ZM214.8,31.7c-3.12.99-5.02-1.6-5.09-1.71l-.06-.08c-3.37-3.7-7.06-2.55-8.61-1.39-3.67,1.72-6.11-1.94-6.21-2.1l-.1-.12c-3.49-3.56-7.97-2.03-9.94-.68-2.09.82-4.45.02-5.18-.9-1.88-2.4-3.97-2.64-4.45-2.66-3.77-.72-6.41,1.33-6.54,1.43-3.12,2.62-5.77,1.23-6.08,1.05-.97-.77-2.01-1.13-3.03-1.23,1.12-.68,2.24-1.33,3.37-1.95,1.09.85,4.01,2.43,8.73-.14l.08-.05c.14-.1,3.56-2.48,6.55-.05.45.44,4.57,4.24,9.66,1.65.05-.02,4.68-2.12,6.53.25,2.4,3.08,6.32,2.72,8.95,1.49l.06-.03c.29-.17,2.86-1.54,4.99,1.15.35.58,3.64,5.67,8.15,4.3.03-.01,3.27-1.12,5.32-.01.57.31.99.76,1.27,1.36-3.04-1.97-7.79.16-8.38.45ZM221.39,32.12c-1.69-.05-3.03.95-3.1,1-.2.15-4.89,3.71-9.18-.45-3-2.91-6.22-1.84-7.51-.87l-.11.08-.07.11s-1.26,1.84-2.91,1.9c-1.02.04-2.07-.62-3.11-1.95-4.34-5.6-9.61-1.82-9.64-1.8-.18.12-4.39,2.86-8.13-.78-1.96-1.91-4.8-2.31-8.22-1.16-2.47.83-4.37,2.17-4.47,2.25-2.36,1.82-4.52-.05-4.61-.13l-.08-.06c-4.97-3.39-8.4-.5-10.24,1.06-.21.18-.41.35-.6.5-.72.57-1.6.53-2.29.36,1.95-1.62,3.92-3.15,5.91-4.58.95-.68,1.91-1.33,2.86-1.97,1.45-.77,3.72-1.47,5.74.15l.07.05s.99.62,2.44.75c1.32.13,3.34-.11,5.46-1.89.09-.07,2.24-1.71,5.33-1.1h.15c.07.02,1.72.05,3.32,2.09,1.05,1.34,4.09,2.56,7.05,1.35l.08-.03.07-.05c.18-.13,4.49-3.09,7.97.4,1.16,1.75,4.3,4.44,8.2,2.55l.13-.08c.13-.1,3.28-2.44,6.57,1.13.74,1.02,2.53,2.55,4.95,2.55.6,0,1.24-.09,1.9-.31l.1-.04s3.46-1.67,5.96-.99ZM174.09,17.64c2.27-1.68,4.24,0,4.99.81,2.82,3.05,5.66,1.66,7.93.54.25-.12.51-.25.76-.37,2.34-1.1,5.9-.99,7.55,1.1,2.09,2.64,4.88,2,7.12,1.48.26-.06.53-.12.78-.17,1.4-.3,4.85-.7,6.59,1.92,1.66,2.5,3.72,5.6,8.64,4.11.48.02,2.49.18,3.95,1.35-2.64-1.23-6.16-.03-6.29.02-3.5,1.06-6.35-3.62-6.38-3.66l-.05-.08c-2.39-3.07-5.59-2.39-6.98-1.59-.83.39-4.71,1.95-7.05-1.05-2.6-3.33-8.16-.81-8.41-.69-4.37,2.22-7.78-1.22-7.92-1.37l-.07-.06c-3.11-2.55-6.83-1.17-8.41-.06-3.21,1.74-5.33,1.22-6.41.64,1.21-.64,2.42-1.24,3.64-1.81.92.35,3.33.93,6.02-1.07ZM170.9,17.44c.61-.26,1.21-.49,1.82-.73-.65.4-1.27.62-1.82.73ZM218.34,25.52h-.12l-.11.04c-3.64,1.15-5.08-.54-7.02-3.46-2.26-3.4-6.48-2.93-8.19-2.57-.27.06-.54.12-.81.18-2.1.48-4.08.94-5.57-.93-2.15-2.72-6.47-2.92-9.41-1.54-.26.12-.52.25-.78.38-2.19,1.08-4.08,2.01-6.12-.2-1.19-1.29-2.57-1.95-3.95-2,.93-.32,1.86-.62,2.79-.9,1.23.8,5.56,3.25,8.89.47.67-.56,1.9-.99,3.06-1.07.77-.06,2.17-.01,2.96.93.16.19.31.38.46.56,1.46,1.82,3.11,3.88,7.67,2.69,4.75-1.23,7.28-.46,9.34,2.84,2.71,4.34,7.56,3.64,8.58,3.25.22-.05,1.18.03,2.19.7.84.56,1.89,1.66,2.45,3.79-1.52-2.45-4.62-3.16-6.31-3.16ZM181.17,13.93c.36-.1.73-.21,1.09-.3,3.79-.94,7.3-1.48,10.48-1.75,1.33-.07,4.4.1,5.3,1.66.14.23,1.54,2.19,6.43,1.24,4.09-.79,6.56.84,7.44,2.49.97,1.82,2.27,3.73,5.32,3.7,1.99-.04,5.5.88,7.37,4.11-.63-.8-1.31-1.35-1.92-1.69-1.26-.72-2.59-.87-3.19-.64-.04.02-4.37,1.2-6.75-2.62-1.78-2.85-4.35-5.24-11.03-3.51-3.59.93-4.64-.37-6.09-2.17-.16-.19-.31-.39-.48-.59-.91-1.09-2.42-1.62-4.25-1.48-1.51.11-3.01.66-3.94,1.43-1.83,1.52-4.23.84-5.78.12ZM199.68,5.64c-.97-.09-2.14-.17-3.5-.2-1.79-2.21-5.12-2.19-6.37-2.09-.12-.16-.26-.32-.39-.48,2.57.08,7.16.55,10.27,2.77ZM193.72,5.44c-.9.02-1.86.06-2.87.13-.04-.23-.1-.46-.19-.71.85,0,2.04.1,3.06.58ZM174.34,3.39c1.2-.58,2.06-.75,2.89-.58,1.34.28,3.03-.63,3.43-.87.38-.13,2.67-.84,4.9.02,2.2.85,3.49,2.74,3.73,3.73-.34.03-.69.06-1.04.1-.52.06-1.06.12-1.62.19-.22-.56-.67-1.06-1.34-1.43-1.14-.63-2.94-.89-4.02-.14-.65.45-2.34.21-3.36-.11-.08-.02-1.94-.52-3.46.54-.15.01-.31.02-.46.04-.22-.28-.57-.72-1.01-1.17.5-.05.98-.14,1.35-.32ZM184.99,6.22c-1.43.23-2.97.52-4.58.89-.21-.26-.53-.6-.97-.94.92.08,1.97.02,2.71-.48.42-.29,1.54-.26,2.41.22.09.05.28.16.44.32ZM178.68,7.52c-.74.19-1.5.39-2.27.61-.69-.75-1.75-1.26-2.88-1.58.74-.18,1.59-.28,2.49-.17,1.29.17,2.14.68,2.66,1.13ZM166.51,4.34c.96-1.08,3.16-.98,4.03-.63.52.21,1.23.92,1.81,1.59-.85.29-1.49.62-1.8.8-.84-.03-1.59.03-2.08.16-.87.23-1.16.17-2.1-.15-.35-.39-.72-.73-1.11-1.01.49-.16.94-.39,1.25-.75ZM164.01,6.93c.64.2,1.14.38,1.54.52,1.26.45,1.89.67,3.31.3,1.13-.3,4.15-.09,5.78.91-.52.16-1.05.33-1.59.51-.29-.32-.68-.59-1.21-.78-1.12-.39-2.82-.42-3.71.21-.83.59-1.93.39-2.05.37-.08-.01-.19-.05-.33-.09-.94-.29-2.91-.88-4.41.23-.65.48-1.58.42-2.39.37-.67-.04-1.31-.08-1.82.17-.57.28-.95.67-1.19.98-.08-.01-.16-.03-.23-.04-.73-.15-1.51-.03-2.25.2.64-.85,1.53-1.67,2.66-1.77,3.15-.27,4.58-1.57,4.65-1.64.05-.05,1.16-1.1,3.24-.45ZM160.76,12.58c-1.01-.84-2.02-1.27-2.96-1.53,0,0,.01,0,.02-.01.14-.07.68-.04,1.03-.01.97.06,2.31.15,3.41-.67.88-.65,2.29-.22,3.05,0,.19.06.35.11.48.13.89.17,2.21.1,3.23-.62.3-.21,1.33-.31,2.2-.05-1.75.64-3.55,1.37-5.4,2.21-2.71-.24-4.3.21-5.07.55ZM162.38,13.69c-.12.06-.24.12-.37.18-.02-.03-.04-.05-.06-.08.13-.04.27-.07.43-.11ZM108.14,59.68c.13.34.43.81,1.15,1.09.21.08.42.12.64.12.25,0,.5-.06.73-.17.94-.45,1.41-1.64,1.53-1.99.2-.4,1.38-2.47,3.86-2.1-1.73,3.03-3.34,6.24-4.76,9.65-.96.63-1.8.83-2.58.56-1.51-.52-2.49-2.67-2.78-3.55-.18-2.43.23-4.25,1.19-5.27.79-.83,1.73-.91,1.96-.92,1.62.33,2.69-1.16,3.09-2.17,1.97-3.09,5.11-3.14,6.71-2.93-.68,1.05-1.35,2.11-2.01,3.22-3.32-.84-5.42,1.46-6.08,2.88l-.03.09c-.04.11-.09.24-.16.37-.34,1.19-1.12.87-1.12.87-.5-.26-.58-.72-.56-1.02l-.64-.34c-.05.08-.43.83-.15,1.61ZM114.66,50.98c.08-.36.25-.71.63-.83,1.74-.55,3.11-1.93,3.2-3.19.05-.13.23-.46.72-.5h.05c.19-.03.59,0,.69.16.1.15.21.42.21.5l-.02.09v.09c0,.11,0,1.13.73,1.64.02.01.04.02.06.03-.38.54-.75,1.08-1.13,1.64-.94-.19-3.03-.44-5.14.36ZM119.07,44.94c-1.33.12-1.93,1.12-2.08,1.7l-.02.09v.1c0,.42-.81,1.44-2.13,1.85-1.5.48-1.81,2.05-1.76,3.13-.79.54-1.54,1.29-2.18,2.29-.29-1.18-.34-2.98,1.17-4.68.02-.02,1.54-1.69,3.23-2.2l.07-.02c.51-.21,1.45-.92,1.79-2.28v-.06s.14-.7.63-1.39c.65-.92,1.62-1.38,2.88-1.39h.12c.42-.07,1.7-.11,2.03.56.4.81,1.18,1.13,1.99,1.21-.98,1.21-1.95,2.45-2.91,3.76-.07.02-.12.03-.15.03-.03-.06-.06-.17-.07-.27.12-.73-.34-1.47-.43-1.6-.63-1.01-1.93-.9-2.18-.86ZM115.97,41.64c-2.54.49-4.14,1.56-5.18,2.77.19-.94.62-1.89,1.49-2.41.79-.47,1.37-.75,1.79-.95,1.13-.55,1.54-.81,1.83-2.33.34-1.76,1.45-2.88,3.3-3.37-.11.57-.18,1.19-.18,1.87-.31.53-1.09.72-1.09.72l-.07.02c-.81.24-1.41.73-1.72,1.44-.32.72-.3,1.54-.17,2.25ZM114.03,39.31c.13-.52.31-1.13.57-1.71-.09.28-.16.56-.21.83-.1.52-.14.72-.35.89ZM118.23,34.01c.22-.32.41-.75.59-1.4.25-.92,1-1.81,1.91-2.26.29-.14.68-.27,1.12-.3-.46.75-.68,1.53-.75,2.16-.18.11-.36.24-.54.41-.31.29-.56.64-.78,1.02-.57.08-1.09.2-1.55.36ZM124.18,41.98c-.07-.14-.16-.25-.24-.36.32.19,1.03.56,1.91.69-.62.1-1.45.11-1.66-.33ZM124.66,40.25c-.28-.24-1.5-1.22-2.87-1.14-1.13.06-1.79.87-2.1,1.55-.88.15-1.6.47-2.16.9-.12-.53-.17-1.13.02-1.55.08-.18.24-.43.72-.58.29-.07,1.66-.43,2.21-1.69.18-.41.5-.73.8-.81.12-.03.3-.04.56.16,1.03.82,2.95,2.36,4.56,1.5.11-.06.24-.13.38-.21,1.42-.8,2.92-1.5,3.82-1.13-.95.99-1.91,2.03-2.87,3.12-1.27.97-2.84.03-3.07-.12ZM126.03,37.04c-.13.08-.26.14-.36.2-.71.38-2.22-.83-2.87-1.34-.57-.45-1.24-.61-1.89-.45-.07.02-.13.05-.19.08.17-.75.45-1.35.86-1.74.7-.66,1.53-.6,1.56-.6l.24.02.21-.12c.07-.04,1.62-.89,2.56.13,1.45,1.57,3.18,1.04,3.91.52.04-.03,3.48-2.58,5.45-1.31-.16.15-.32.29-.49.45-1.07,1-2.17,2.08-3.3,3.23-1.75-1.27-4.46.25-5.7.95ZM126.11,31.38c.78-.26,1.75-.37,2.87-.09h.06c.07.02.98.17,2.11.02-1.14.54-1.96,1.15-1.98,1.17-.16.11-1.02.61-1.88-.32-.36-.39-.76-.63-1.18-.78ZM133.38,30.6c.23-.13.45-.27.66-.44.32-.17,2.17-1.08,3.83.14-.39.35-.79.69-1.19,1.05-.71-.59-1.77-1-3.3-.75ZM133.2,28.86l-.1.07c-1.37,1.16-3.53.89-3.78.86-3.43-.84-5.71,1.1-6.44,1.85-.03,0-.05,0-.08,0,.31-.93,1.1-2.2,3.13-2.57.75-.14,1.68-.05,2.59.03,1.73.15,3.52.31,4.71-.88.64-.64,2.17-1.24,3.75-1.07.84.09,1.96.43,2.85,1.47-.26.21-.51.43-.77.65-2.13-1.8-4.71-1.1-5.86-.41ZM121.88,28.18c.43-.46.99-.95,1.7-1.42-.54.62-1.2,1.1-1.7,1.42ZM135.87,21.17c-.22.31-1.14,1.28-4.17,1.41-3.53.15-5.24,3.04-5.79,4.95-.09.01-.18.01-.26.03-.33.06-.64.15-.93.25.4-.46.76-.98.99-1.57.79-1.97,1.55-3.28,5.42-4.83,4.09-1.63,4.71-3.67,4.81-4.21.12-.32.98-2.3,4.32-1.96-.33.42-.9.92-1.86,1.33-2.47,1.04-2.55,3.75-2.52,4.6ZM137.14,25.62c-1.87-.2-3.93.42-5.01,1.51-.55.56-1.56.58-2.69.5.62-1.38,1.76-2.01,3.61-2.01,1.66,0,3.39-.82,3.46-.86l.1-.06s1.07-.73,1.86-1.48c.91-.87,2.27-.38,3.35.14,1.67.81,3.6-.43,4.13-.81.41-.1,1.19-.18,1.63.06.02,0,.02.02.04.03-1.91,1.34-4.16,3.01-6.59,4.99-1.21-1.43-2.74-1.89-3.88-2.02ZM145.39,21.11l-.14.04-.12.09c-.44.35-1.78,1.15-2.65.73-.81-.39-3.29-1.59-5.09.14-.6.58-1.4,1.14-1.6,1.28-.27.12-1.58.68-2.75.68-2.67,0-4.41,1.16-5.21,3.43-.1,0-.2,0-.29-.02.46-1.22,1.61-3.26,4.21-3.37,4.23-.18,5.33-1.88,5.57-2.41.23-.31,1.64-2.01,4.56-.95l.1.03c.08.02,1.86.38,3.9-.43.19-.07.38-.16.59-.24,1.94-.82,3.47-1.3,4.85.05-.7.44-1.51.97-2.43,1.59-.16-.19-.35-.35-.58-.48-1.17-.66-2.76-.22-2.94-.17ZM145.88,18.69c-.19.08-.38.16-.56.23-1.44.57-2.73.4-2.97.36-1.02-.36-1.92-.45-2.72-.39,1.24-1,3.16-.92,3.68-.87.56.27,2.47,1.05,4.03-.14.48-.37,4.57-3.31,8.44-.46-.61.38-1.22.76-1.83,1.17-.12.06-.56.32-1.27.74-2.29-2.55-5.08-1.37-6.8-.64ZM146.4,16.66c-.99.76-2.48-.05-2.49-.06l-.13-.07-.15-.02c-.68-.09-1.62-.08-2.58.12.69-.69.99-1.35,1.09-1.65.33-.46,1.58-1.86,3.77-.44,1.74,1.12,3.65.81,5.26-.84.75-.57,2.85-1.88,4.24-1.6.17.03.34.07.52.1,1.47.27,3.12.59,4.7,2.4-1.14.62-2.3,1.27-3.47,1.97-3.97-3.35-8.59-1.57-10.76.09ZM147.32,13.53c.49-.29.98-.65,1.27-1.07.11-.16.21-.36.32-.58.49-.99,1.32-2.69,4.06-2.85-1.07,1.06-1.71,2.38-1.95,2.92-.43.28-.75.51-.84.58l-.09.08c-.92.96-1.85,1.26-2.77.93ZM161.73,5.29c-.33.07-.63.17-.88.28-.15-.11-.31-.21-.47-.31.42-.03.88-.03,1.36.03ZM145.43,9.99c.08-.1.16-.21.25-.32.71-.92,1.6-2.07,3.77-2.74,2.15-.66,3-.53,3.1-.51l.14.05.18-.02c.17-.02,1.68-.18,2.4-.41,1.37-.42,2.95-.23,4.16.43-.48.3-1.59.86-3.43,1.01-.25.02-.49.07-.73.14-5.53-.9-7.07,2.22-7.73,3.56-.08.16-.16.32-.2.39-.26.37-1.1.83-1.73,1.1-.77-.29-1.53-.37-2.27-.21-1.07.24-1.81.9-2.2,1.34-.01,0-.03,0-.04,0,.23-.59.7-1.4,1.71-1.8l.08-.04c.07-.04,1.71-.93,2.55-1.98ZM133.51,14.39c.51-.12,2.66-.69,3.44-1.89.79-1.21,3.04-2.4,6.29-2.59-.42.31-.84.56-1.07.69-1.74.71-2.41,2.19-2.66,3.06-4.11,0-5.07,3.12-5.08,3.16l-.02.12s-.16.86-1.61,1.87c-1.09-.93-2.63-1.15-3.83-1.16.94-1.1,2.52-2.6,4.53-3.26ZM120.25,26.12c1.3-1.02,2.06-1.5,2.51-1.79.66-.42.96-.61,1.23-1.42.03-.08.05-.16.08-.25.29-.93.72-2.34,3.47-3.37.79-.14,2.57-.24,3.77.37-.09.04-.17.08-.26.12-2.33-.51-3.72,1.11-4.21,2.23-.95.75-1.52,1.53-1.96,2.37-3.97,1.63-5.38,4.35-5.73,5.19-.27.21-.52.45-.74.71-.6.12-1.19.3-1.74.51.75-1.44,1.97-3.39,3.59-4.66ZM111.07,39.35c.32-1.21,1.46-4.34,3.19-5.49l.05-.03s1.36-1.03,3.05-1.67c0,.02-.01.03-.02.05-.27,1.01-.44,1.09-.94,1.34-.45.22-1.07.53-1.88,1.37-1.55,1.61-2.08,4.28-2.23,5.31-.24.13-.5.27-.79.45-.35.21-.65.46-.9.74.37-1.12.46-1.8.48-2.06ZM108.98,45.1c.07-.14.13-.26.19-.39-.15,1.15-.06,2.15,0,2.57-.14.39-.25.74-.34,1.05-.26.89-.67,1.36-1.33,2.01.1-1.33.44-3.26,1.47-5.24ZM106.61,53.51c.65-.78,1.2-1.31,1.69-1.78.89-.87,1.6-1.55,2.02-2.96.53-1.8,1.41-4.73,5.89-5.61-.28.51-.48,1.02-.55,1.43-.21.82-.76,1.14-.86,1.19-2.08.65-3.8,2.55-3.87,2.63-2.26,2.54-1.87,5.5-1.18,7.16-.12.04-.25.07-.38.03l-.15-.02c-.07,0-1.78-.07-3.17,1.36-.24.25-.44.53-.63.83-.1-1.32.09-2.94,1.19-4.26ZM104.82,64.67c.53,1.17,1.62,3.03,3.39,3.64.72.25,1.47.26,2.23.06-.41,1.07-.8,2.15-1.17,3.25-2.95-.91-3.99-2.94-4.35-4.3h0c-.03-.15-.06-.3-.1-.44-.09-.5-.1-.85-.1-.9v-.09s-.02-.08-.02-.08c0-.04-.13-.66.11-1.13ZM106.65,99.6c-.75,1.26-2.14,3.61-.93,5.74-.59.74-1.71,1.88-2.68,1.81-.85-.06-2.94-.08-4.1,1.12-.55.57-.8,1.32-.71,2.18v.1s.05.09.05.09c.05.14.57,1.41,1.87,1.94.47.19,1.03,1.28,1.25,1.95l.02.04c.03.08.32.76.99,1.39.29,1.28.89,2.49,1.64,3.58-1.65-.33-3.57-1.68-4.07-3.09-.58-1.65-1.22-2.16-2.28-3.01-.47-.38-1.06-.85-1.8-1.55-2.02-1.91-1.55-4.36-1.53-4.46v-.04c.28-1.74,1.27-3.11,2.94-4.09,1.12-.65,2.19-.91,2.49-.97,3.65.23,5.92-1.79,7.16-3.9-.03.43-.12.84-.3,1.16ZM106.73,106.53c.11.1.22.19.35.29.76.56,1.26,1.02,1.59,1.39-2.31.5-5.45,1.94-6.25,4.82-.36-.7-.92-1.54-1.7-1.86-.55-.23-.87-.77-.97-.98-.01-.35.08-.62.29-.84.48-.49,1.61-.75,2.89-.66,1.6.12,3.04-1.25,3.8-2.16ZM106.76,82.61c-.15.6-.46,1.52-.89,2.49-.51-1.5-.64-3.14-.65-3.17-.18-2.31.34-3.81.85-4.4.09-.1.26-.27.44-.28.59-.04.94.3,1.08.47-.26,1.27-.57,2.96-.83,4.89ZM99.84,95.48c-.76-.1-1.56-.37-2.34-.63-1.63-.55-3.32-1.12-4.51.02-.72.69-1.06,1.6-.94,2.55.08.63.36,1.21.76,1.7-.05.03-.1.06-.15.09-3.01-2.91-1.33-6.62-1.14-7,1.25-1.97,3.46-1.7,6.01-1.39,1.53.19,3.11.38,4.61.09,1.81-.35,3.17-1.77,4.14-3.32-.04.8-.07,1.6-.08,2.41-.3.82-.87,2.11-1.63,3.4-.85.71-3.13,2.28-4.74,2.07ZM101.79,96.75c-.52.37-1.06.61-1.62.66-.28.03-.57.05-.87.07-1.52.12-3.32.27-5.04.93-.37-.31-.62-.73-.67-1.18-.04-.33.01-.81.48-1.26.51-.49,1.7-.09,2.95.33.85.28,1.72.58,2.63.7.7.09,1.44-.03,2.15-.26ZM90.72,90.73c.03-1.01-.21-2.01-.42-2.66.45.52,1.03,1.09,1.66,1.39.06.05.12.11.18.17-.52.25-1,.61-1.42,1.1ZM106.41,75.7c-.55.04-1.07.32-1.5.81-.95,1.1-1.41,3.17-1.22,5.52,0,.12.22,2.83,1.25,4.79-.06.09-.12.18-.18.27-2.24-3.72-1.35-9.15-1.34-9.21v-.06c.16-1.79.81-3.13,1.93-3.97,1.15-.86,2.49-.96,2.83-.89.26.05.45.21.57.35-.2.65-.42,1.29-.6,1.96-.02.06-.09.34-.19.77-.41-.23-.93-.39-1.54-.35ZM94.83,64.39l.07-.07c.09-.09,2.2-2.16,5.6-.53.02.01,2.44,1.35,2.9,3.76.11.45.27.95.52,1.48.4.86,1.09,1.86,2.21,2.71-.57.19-1.16.48-1.71.9-.5.38-1.06.94-1.53,1.74-.95.29-1.71.26-2.24-.14-1.11-.82-1.27-3.04-1.23-3.85.03-2.43-2.12-3.46-3.26-3.67h-.04c-1.07-.14-1.95.09-2.66.48.05-.87.33-2,1.37-2.81ZM103.03,87.14c-.58.37-1.76.53-2.55.51-1.63-.19-2.66-1.07-3.3-1.92.75.24,1.57.39,2.46.39s1.8-.15,2.79-.49c.16.51.36,1.01.6,1.5ZM92.8,70.19l.02-.05c.03-.09.82-2.16,3.08-1.9.22.04,1.99.45,1.97,2.1,0,.15-.15,3.65,1.85,5.13.68.51,1.51.69,2.46.6-.04.14-.08.28-.11.43-.86.17-2.22.28-3.57-.25-1.54-.59-1.11-3-1.1-3.04.17-1.02-.55-1.98-.69-2.16-.91-1.24-2.54-1.21-3.93-.83,0-.01.02-.04.02-.04ZM92.23,72.06c.89-.39,2.64-.93,3.25-.08l.03.03c.18.22.43.68.38.93-.03.15-.67,3.69,2.07,4.75.95.36,1.89.49,2.72.49.42,0,.81-.03,1.16-.08-.13.99-.33,3.44.2,6.03-4.82,1.74-8.04-2.19-8.33-2.55-2.29-3.58-1.97-7.34-1.47-9.52ZM91.24,80.13c.3.77.69,1.54,1.18,2.31l.03.05s.89,1.15,2.4,2.14c.33.97,1.69,4.13,5.47,4.56h.07s.11,0,.18,0c.53,0,1.72-.06,2.72-.48-.45.35-.94.59-1.46.69-1.26.24-2.72.06-4.13-.11-1.32-.16-2.73-.33-4.03-.14-.19-.4-.52-.76-.91-1.01l-.12-.06c-.65-.29-1.48-1.31-1.87-1.92-1.21-2.7-.3-4.88.45-6.03ZM90.36,74.09c-.07.96-.05,2.02.12,3.14-1.49.54-4.87,2.26-6.13,7.13-.13.42-.42,1.18-.7,1.59.42-6.46,4.54-10.29,6.71-11.86ZM83.86,92.7c-1.1-2.93.7-5.39.94-5.7.55-.72.97-2.04,1.03-2.22.88-3.4,2.91-5,4.29-5.72-.76,1.12-1.77,3.16-1.34,5.72-.7.24-1.24.65-1.61,1.22-.7,1.11-.47,2.43-.36,2.87-.02.44-.2,2.3-1.57,2.69l-.15.06c-.39.2-.85.57-1.24,1.07ZM89.46,93.87c-.03.23-.06.46-.08.71-.03-.25.01-.5.08-.71ZM87.65,102.73c-.04-.63-.08-1.28-.17-1.93-.13-.89-.39-1.68-.79-2.33-.05-.08-.5-.84-1.04-1.24-.33-.24-.61-.67-.71-.84-.95-2.14.49-3.16.83-3.37,2.56-.81,2.59-4.09,2.59-4.24v-.11s-.03-.11-.03-.11c-.08-.29-.22-1.16.15-1.74.15-.24.4-.42.71-.54,0,.01.01.03.02.04-.03.02-.07.04-.09.06-.57.46-.55,1.2-.54,1.35v.13s.06.12.06.12c.31.73,1,3.05.14,4.01-.05.05-1.15,1.3-.91,2.88.15.99.79,1.85,1.87,2.57.31.93.84,1.86,1.72,2.75-1.39,1.32-2.5,3.34-3.04,6.45-.58-1.25-.68-2.55-.76-3.91ZM101.75,123.27c-3-1.04-4.79-3.97-4.92-4.32-.41-1.1-2.39-3.31-2.78-3.75l-.09-.1-.12-.06c-4.03-2.18-4.11-6.39-4.11-6.79.88-8.52,5.76-8.91,9.68-9.22.31-.02.61-.05.89-.08,2.67-.25,4.75-3.15,6.01-5.51.05.66.12,1.31.22,1.95-.2.84-1.6,5.78-6.75,5.41h-.09s-.09,0-.09,0c-.24.04-5.93,1.07-6.77,6.34-.07.33-.59,3.44,1.98,5.87.79.75,1.4,1.24,1.9,1.64.98.79,1.35,1.08,1.79,2.32.8,2.25,3.86,4.2,6.28,4.2.16,0,.32-.01.48-.03.56.64,1.15,1.22,1.7,1.73-1.79.84-3.54.98-5.22.39ZM112.81,128.16c-.27-.32-.46-.58-.63-.82-.78-1.05-1.18-1.41-3.04-1.63-.84-.1-1.51-.74-1.94-1.27.34-.14.69-.32,1.03-.5.69.55,1.21.9,1.38,1.02.44.4,3.59,3.17,7.14,4.79-1.79-.17-3.27-.81-3.93-1.6ZM119.34,129.1c-4.18-1.17-8.7-5.26-8.74-5.31l-.1-.08c-.06-.04-6.4-4.23-6.74-8.93-.13-1.78.79-3.19,2.74-4.18,1.14-.58,2.32-.86,2.9-.97.05.1,1.07,2.13,1.32,4.05.08.61.1,1.13.12,1.59.05,1.03.09,2.1,1.12,2.5.07.19.15.54.21.83.44,1.9,1.41,6.1,6.66,6.1.3,0,.62-.01.94-.04-.16,1.62-.31,3.12-.44,4.45ZM120.54,117.47c-.65-.23-1.31-.32-1.91-.4-1.25-.15-1.86-.26-2.16-1.05-.88-2.33-.1-3.59,2.7-6.2,3.11-2.9.85-8.39.76-8.6-.04-.11-1.02-2.72,1.02-3.57.65-.27,1.27-.45,1.87-.63,0,0,0,0,.01,0-.41,3.52-1.41,12.25-2.29,20.45ZM124.06,90.08c.71.65,1.78,1.64,2.66,2.52-1.38,2.07-2.64,2.46-4.33,2.95-.64.19-1.3.38-2.03.68-2.73,1.13-2.41,4.12-1.85,5.57.02.05,1.95,4.73-.38,6.9-2.63,2.45-4.39,4.45-3.09,7.87.64,1.69,2.17,1.88,3.41,2.03.7.09,1.35.18,1.93.46-.15,1.37-.29,2.72-.42,4.01-5.01.57-5.77-2.66-6.27-4.83-.23-1-.4-1.72-1.1-1.9-.04-.01-.06-.02-.06-.02-.09-.12-.11-.68-.13-1.12-.02-.47-.05-1.04-.13-1.72-.25-1.91-1.12-3.83-1.4-4.41-.05-.62-.54-1.8-2.86-3.51-1.99-1.46-1.19-3.22,0-5.21.33-.56.47-1.24.51-1.91l1.26,1.82c.12.17.3.26.49.29v.02c.14.03.84.16,1.68.16.92,0,2-.15,2.73-.76.53-.45.81-1.07.8-1.82-.03-2.18.03-2.45,1.21-3.46,2.7.14,5.48-.57,7.4-4.63ZM113.91,98.19c0,.36-.13.51-.24.61-.51.43-1.7.45-2.6.35-.08-.53-.16-1.05-.22-1.58.01-.59.24-2.2,1.1-2.92.43-.35.97-.47,1.68-.35l.1.02c.32.06.65.11.99.16-.76.93-.84,1.8-.81,3.71ZM113.57,84.32c.47.18.96.26,1.47.26,1.07,0,2.25-.39,3.51-1.15,1.36-.83,2.31-1.45,3.01-1.91.79-.52,1.32-.86,1.55-.91.06-.02.23.07.58.28l.08.05c1.76,1.03,4.74.78,7.12-2.19,1.06-1.32,2.58-1.56,4.61-.74-1.32,1.26-4.42,3.73-8.77,3.99-2.09.13-3.49.82-4.16,2.06-.93,1.73-.05,3.92.35,4.76-2.14,5.15-5.44,4.58-8.94,3.98l-.1-.02c-1.16-.2-2.14.03-2.93.68-.12.1-.21.22-.31.33-.03-3.68.43-7.32,1.16-10.74.43.5,1,.98,1.75,1.27ZM126,51.64s-.02.02-.03.03h0c-2.62,3.25-5.19,6.67-7.7,10.28,0,.01-.02.03-.03.04-.45.75-10.45,17.61-9.01,34.84l-1.18-1.69c-1.23-8.39,1.54-19.36,1.57-19.45,5.38-19.01,17.34-33.15,26.43-41.66,9.87-9.25,18.58-14.05,18.66-14.09.02-.01.04-.02.06-.03,25.57-16.91,47.55-12.35,47.77-12.3.01,0,.03,0,.04,0,4.08.67,6.07,2.44,7,3.71-1.38-.33-3.55-.74-6.39-.99-2.67-.24-6.26-.35-10.53.02-.13,0-.22.01-.24.01h0c-3.14.29-6.64.82-10.42,1.75-9.12,2.25-18.15,6.35-26.87,12.18-.69.37-1.28.78-1.71,1.16h.01c-.41.3-.82.56-1.23.86-9.12,6.55-17.89,15.05-26.19,25.34ZM222.59,35.17s.06-.04.09-.06c-.12-.02-.23-.04-.35-.06l-.31-.03-1.1.9c-7.34,4.21-9.3,1.6-9.3,1.59l-.08-.11c-1.96-2.15-3.99-3.2-6.02-3.11-2.71.11-4.35,2.22-4.44,2.33-.01.02-1.26,1.75-2.79,1.84-.74.05-1.45-.3-2.15-1.06-1.77-1.91-6.48-5.96-12.02-2.24-1.82,1.22-3.49,1.53-4.96.9-1.05-.44-1.65-1.23-1.73-1.33-.2-.32-1.64-2.54-4.17-3-1.74-.32-3.54.27-5.35,1.73-4.71,3.81-8.54,1.1-8.69.99-.16-.12-3.93-2.95-9.09.56-2.85,1.94-5.44,1.03-6.69.35.77-.69,1.54-1.36,2.31-2.02.93.4,2.94,1.01,4.62-.31.2-.16.41-.34.64-.53,1.84-1.56,4.37-3.68,8.34-.99,1.12.98,3.86,2.24,6.52.19.07-.05,6.96-4.86,10.71-1.22,4.65,4.53,10.02.99,10.09.94.17-.12,4.13-2.91,7.54,1.48,1.35,1.75,2.82,2.61,4.38,2.55,2.15-.08,3.66-1.94,4.04-2.46.5-.32,2.9-1.65,5.43.81,1.9,1.84,3.88,2.43,5.64,2.43,3.11,0,5.52-1.85,5.55-1.87.01,0,1.24-.91,2.54-.63.56.12,1.06.46,1.52.99,3.38-2.76,3.31-9.42,3.31-9.42.63,4.13-1.69,10.62-1.69,10.62-1.56-.77-2.31-.72-2.31-.72ZM225.75,36.33c1.15.43,2.75,1.34,3.22,3.18,0,.03.07.24.18.57-.86-1.39-1.99-2.77-3.41-3.74ZM226.05,34.8l.03-.19c1.01-.1,4.1-.17,4.72,2.46.83,3.51,2.65,6.09,5,7.11.37.28,2.48,2.1.95,5.96l-.03.09v.09c-.06.38-.48,3.79.75,5.37.89,1.15,1.82,4.05.06,5.87-2.27,2.35-1.32,4.66-1.1,5.1.16.48,1.31,4.34-1.62,7.59,1.05-1.61,1.38-3.33,1.48-4.18.2-1.82-.12-3.44-.84-4.23-.73-.81-.25-2.72,0-3.41,2.81-4.74.82-7.55.73-7.67-1.29-1.75-.34-4.25-.33-4.29,1.57-4.36-1.1-6.9-2.76-7.65-1.93-1.15-2.62-3.67-2.62-3.69-.68-2.65-2.94-3.83-4.42-4.33ZM231.35,45c-.04-.13-.37-1.27-1.03-2.72.5.7,1.16,1.39,2.03,1.9l.08.04c.14.06,3.47,1.58,1.99,5.72-.05.13-1.28,3.31.52,5.74.06.09,1.46,2.19-.84,6.04l-.06.12c-.13.34-1.26,3.38.27,5.07.35.38.61,1.54.45,3.02-.09.8-.41,2.5-1.54,3.95.04-1.25.02-2.14.01-2.38.08-.97,1.21-15.12-1.87-26.49ZM226.67,89.04c-.4.72-1.13,2.08-1.79,3.43-.08-1.18-.15-2.63-.22-4.19.31,0,.6-.05.88-.11.43-.06.89-.19,1.36-.41-.06.41-.13.83-.24,1.28ZM225.36,86.63c-.05,0-.11.02-.16.02-.06.01-.11.01-.17.02-.16,0-.3,0-.43,0-.06-1.61-.12-3.26-.17-4.8.37.08.81.22,1.25.45.5.26.87.6,1.16.99.05.16.25.95.25,2.32-.4.36-1.01.8-1.72.99ZM228.91,84.39c-.31-1.88-1.51-2.91-2.57-3.45-.73-.37-1.45-.55-1.96-.64,0-.15,0-.31-.01-.46.94-.06,2.73-.02,3.77.94.63.58.89,1.42.8,2.57v.08s0,.08,0,.08c0,.03.04.36-.02.88ZM225.63,72.96c.7-.18,1.89-.1,2.95.75,1.07.86,2.32,2.77,2.19,7h.04c-.11.49-.25.98-.39,1.46-.14-1.03-.55-1.87-1.26-2.52-1.44-1.32-3.67-1.41-4.86-1.34-.04-1.35-.08-2.51-.11-3.33.01-.2.16-1.69,1.43-2.02Z"/>
    </g>
  </g>
  <g id="goccia">
    <path class="cls-2" d="M183.52,88.42h0s7.69-7.54,7.69-7.54l.43,10.77h0c.13.86.05,1.76-.29,2.63-1.03,2.6-3.97,3.87-6.57,2.84-2.6-1.03-3.87-3.97-2.84-6.57.35-.87.91-1.59,1.6-2.12"/>
  </g>
</svg>