<?xml version="1.0" encoding="UTF-8"?>
<svg id="goccia" xmlns="http://www.w3.org/2000/svg" viewBox="0 0 241.61 97.67">
  <defs>
    <style>
      .cls-1 {
        fill: #f4292d;
      }
    </style>
  </defs>
  <path d="M238.8,75.32c-3.56-.95-18.11-8.63-18.26-8.71l-.08-.03c-.07-.02-7.42-1.69-15.97-11.79-8.43-9.95-18.08-20.94-20.21-22.69-.44-.36-.95-.75-1.5-1.18-2.02-1.55-4.78-3.67-6.91-6.5-2.65-3.54-3.58-8.38-3.58-8.43-2.03-7.17-5.45-11.99-10.19-14.37-6.28-3.15-12.71-.76-12.78-.74-2.28,1-5.82,1.27-5.86,1.27-7,.38-12.63,1.61-16.73,3.67-1.6.66-2.4,1.23-2.44,1.25,0,0-1.8.99-3.49,2.97h-.02c-1.69-1.99-3.49-2.97-3.49-2.97-.03-.02-.84-.6-2.44-1.25-4.1-2.06-9.72-3.29-16.73-3.67-.04,0-3.58-.27-5.86-1.27-.06-.02-6.49-2.42-12.78.74-4.74,2.38-8.16,7.2-10.19,14.37,0,.05-.93,4.89-3.58,8.43-2.13,2.84-4.89,4.96-6.91,6.5-.56.43-1.07.82-1.5,1.18-2.13,1.75-11.78,12.74-20.21,22.69-8.55,10.1-15.9,11.77-15.97,11.79l-.08.03c-.15.08-14.69,7.76-18.26,8.71-1.78.47-2.95,1.64-2.79,2.78.26,1.81,3.53,2.78,8.94,2.66,6.39-.14,9.79-.5,13.62-2.19l.59.19c.35.11,8.79,2.65,19.24-8.52.02-.02,1.63-1.71,3.42-1.02l.32.12c1.9.73,2.54.97,2.65,3.24l.02.17c-.45,2.71,1.82,3.76,3.49,4.52.16.07.31.14.46.22.13.16.56.7,1.16,1.46l7.35,9.82c.18.29.34.55.46.78.19.31.7,1.31.5,1.83-.04.1-.12.24-.4.32-.84.25-1.42.34-2.06.12-.51-.17-1.38-.08-2.07.41-.52.36-1.14,1.09-1.17,2.48l-.02,1.19s1.16-1.88,4-1.45c.17.04.32.08.43.12l.06.02c.55.16,1.49.18,2.82.07l.22-.02c1.52-.13,4.34-.39,5.69,2.4l.3.63.25-.65c.02-.05.48-1.27-.05-2.37-.12-.25-.3-.47-.5-.66,2.78-.18,5.58,2.29,5.58,2.29l-1.11-2.05s-1.95-3.51-6.54-1.93c-.32.05-.65.06-.96.05l-12.3-16.55c1.05.16,2.31.03,2.5,0l1.41-.16c-3.64-1.39-3.89-5.82-3.89-5.84.01-.15.03-.31.06-.46.14-.91.49-1.56,1.03-1.93.74-.51,1.61-.35,1.62-.35,1.72.39,1.8,2.25,1.81,2.33l.03.88s1.45-.8,2.04-1.68h0s.95-1.42,2.03-1.65c.22-.03.47-.04.77,0,.17.04,1.38.39.92,2.16-.21.7-.64,1.54-1.56,2.32l1.82-.67s3.3-1.25,3.06-4.18c0,0,.88,2.31-.3,4.61,0,0,1.38-.35,2.6-1.4-.07.35-.14.7-.22,1.04-.07.32-.15.63-.21.93-.65,3.27,1.75,5,3.28,5.76.21.26,1.16,1.44,2.36,2.97l6.71,9.25c.3.55.56,1.28.4,1.68-.04.1-.12.23-.39.31-.84.25-1.42.34-2.06.12-.5-.17-1.38-.08-2.08.41-.52.36-1.14,1.09-1.17,2.48l-.03,1.19h0s0,0,0,0c0,0,1.16-1.88,3.99-1.45.17.04.32.08.43.12l.06.02c.55.16,1.49.18,2.82.07l.22-.02c1.51-.13,4.34-.39,5.69,2.4l.3.63.25-.65c.02-.05.48-1.27-.05-2.37-.12-.25-.3-.47-.5-.66,2.78-.18,5.57,2.29,5.57,2.29h0s0,0,0,0l-1.1-2.05s-1.95-3.5-6.54-1.93c-.34.05-.71.07-1.03.05l-11.55-15.55c.62.24,1.57.53,2.62.6,0,0-1.21-1.12-2.01-2.53.39.17,1.05.41,2.01.53,0,0-1.56-1.81-.91-3.39,0,0,.25-.85,1.23-1.38.98-.53,5.24-4.58,7.43-7.88.08-.12.17-.24.25-.37.05-.07.1-.14.14-.21h0c3.29-5.08,6.14-13.15,2.74-24.05l-.25-.64c-1.14-3.08-1.72-6.36-1.72-9.74,0-19.97,20.01-21.08,20.22-21.09.04,0,4.06-.19,7.96,1.39.62.3.97.53,1.08.6.07.04,1.81,1.05,3.33,2.97-1.13,1.8-1.72,3.75-1.74,5.8v.16c0,2.92.55,4.83,1.65,5.7.16.13.34.23.52.31,0,0,.41.19.72.18h.02c.31,0,.72-.18.72-.18.19-.08.36-.18.52-.31,1.1-.86,1.65-2.78,1.65-5.7v-.16c-.03-2.05-.61-4-1.74-5.8,1.52-1.92,3.26-2.93,3.33-2.97.11-.07.47-.3,1.08-.6,3.9-1.59,7.92-1.4,7.96-1.39.2,0,20.22,1.12,20.22,21.09,0,3.38-.58,6.66-1.72,9.74l-.25.64c-3.39,10.9-.54,18.96,2.74,24.05h0c.05.07.1.14.14.22.08.12.16.25.25.37,2.19,3.3,6.45,7.35,7.43,7.88.98.53,1.23,1.38,1.23,1.38.66,1.58-.91,3.39-.91,3.39.97-.13,1.63-.36,2.01-.53-.81,1.41-2.01,2.53-2.01,2.53,1.06-.07,2-.36,2.62-.6l-11.55,15.55c-.32.02-.69,0-1.03-.05-4.59-1.58-6.52,1.89-6.54,1.93l-1.1,2.05h0s0,0,0,0c0,0,2.79-2.47,5.57-2.29-.2.2-.38.41-.5.66-.53,1.1-.07,2.32-.05,2.37l.25.65.3-.63c1.35-2.79,4.18-2.54,5.69-2.4l.22.02c1.32.11,2.27.09,2.82-.07l.06-.02c.11-.03.26-.07.43-.12,2.83-.43,3.99,1.45,3.99,1.45h0s0,0,0,0l-.03-1.19c-.03-1.39-.66-2.12-1.17-2.48-.69-.49-1.57-.57-2.08-.41-.64.22-1.22.12-2.06-.12-.27-.08-.35-.21-.39-.31-.16-.4.1-1.13.4-1.68l6.71-9.25c1.21-1.54,2.16-2.72,2.36-2.97,1.53-.76,3.92-2.49,3.28-5.76-.06-.31-.13-.61-.21-.93-.08-.34-.16-.69-.22-1.04,1.23,1.04,2.6,1.4,2.6,1.4-1.17-2.29-.3-4.61-.3-4.61-.24,2.93,3.03,4.17,3.06,4.18l1.82.67c-.92-.78-1.36-1.62-1.56-2.32-.46-1.77.75-2.12.92-2.16.3-.05.55-.04.77,0,1.08.23,2.03,1.65,2.03,1.65h0c.59.87,2.04,1.68,2.04,1.68l.03-.88c0-.08.09-1.94,1.81-2.33,0,0,.88-.17,1.62.35.54.38.89,1.03,1.03,1.93.02.15.04.3.06.46,0,.02-.26,4.45-3.89,5.84l1.41.16c.19.02,1.45.15,2.5,0l-12.3,16.55c-.3,0-.64,0-.96-.05-4.59-1.58-6.53,1.89-6.54,1.93l-1.11,2.05s2.8-2.47,5.58-2.29c-.2.2-.38.41-.5.66-.53,1.1-.07,2.32-.05,2.37l.25.65.3-.63c1.35-2.79,4.18-2.54,5.69-2.4l.22.02c1.32.11,2.27.09,2.82-.07l.06-.02c.11-.03.26-.07.43-.12,2.83-.43,4,1.45,4,1.45l-.02-1.19c-.03-1.39-.66-2.12-1.17-2.48-.69-.49-1.57-.57-2.07-.41-.64.21-1.22.12-2.06-.12-.27-.08-.36-.22-.4-.32-.2-.53.31-1.53.5-1.83.12-.23.28-.49.46-.78l7.35-9.82c.6-.76,1.03-1.29,1.16-1.46.15-.07.3-.14.46-.22,1.66-.77,3.94-1.82,3.49-4.52l.02-.17c.11-2.27.75-2.52,2.65-3.24l.32-.12c1.78-.69,3.4,1,3.42,1.02,10.44,11.17,18.88,8.64,19.24,8.52l.59-.19c3.83,1.69,7.23,2.05,13.62,2.19,5.42.12,8.68-.85,8.94-2.66.16-1.14-1.01-2.31-2.79-2.78ZM87.67,7.72c-1.47,0-2.66-1.19-2.66-2.66s1.19-2.66,2.66-2.66,2.66,1.19,2.66,2.66-1.19,2.66-2.66,2.66ZM120.81,21.82h-.02c-.22-.17-1.04-1-1.04-4.24v-.12c.02-1.41.37-2.78,1.04-4.08h.02c.67,1.3,1.02,2.67,1.04,4.08v.12c0,3.24-.82,4.06-1.04,4.24ZM153.93,7.72c-1.47,0-2.66-1.19-2.66-2.66s1.19-2.66,2.66-2.66,2.66,1.19,2.66,2.66-1.19,2.66-2.66,2.66Z"/>
  <path class="cls-1" d="M130.25,44.37h.03l-9.48-16.43-9.48,16.43h.03c-1.11,1.74-1.77,3.79-1.77,6.01,0,6.2,5.02,11.22,11.22,11.22s11.22-5.02,11.22-11.22c0-2.21-.66-4.27-1.77-6.01Z"/>
</svg>