<?xml version="1.0" standalone="no"?>
<!DOCTYPE svg PUBLIC "-//W3C//DTD SVG 20010904//EN"
 "http://www.w3.org/TR/2001/REC-SVG-20010904/DTD/svg10.dtd">
<svg version="1.0" xmlns="http://www.w3.org/2000/svg"
 width="3330.000000pt" height="3335.000000pt" viewBox="0 0 3330.000000 3335.000000"
 preserveAspectRatio="xMidYMid meet">

<g transform="translate(0.000000,3335.000000) scale(0.100000,-0.100000)"
fill="#000000" stroke="none">
<path d="M9706 31819 c-2012 -79 -3886 -833 -5431 -2188 -156 -137 -580 -560
-727 -726 -955 -1079 -1616 -2336 -1953 -3710 -151 -618 -224 -1163 -246
-1850 -15 -483 -7 -13328 9 -13520 25 -294 44 -477 73 -683 219 -1562 860
-3030 1862 -4265 341 -421 811 -894 1222 -1232 1051 -862 2244 -1455 3545
-1760 458 -108 874 -170 1455 -217 203 -16 13061 -24 13535 -9 463 16 803 49
1207 116 2048 344 3903 1413 5246 3023 933 1119 1573 2462 1851 3887 89 455
136 870 156 1360 13 342 13 13048 0 13390 -82 2034 -817 3885 -2154 5421 -166
191 -619 643 -808 808 -825 718 -1707 1244 -2703 1616 -882 328 -1758 502
-2730 540 -299 12 -13108 11 -13409 -1z m13834 -2882 c477 -59 815 -131 1190
-252 503 -164 947 -376 1385 -663 1459 -954 2402 -2503 2584 -4242 31 -292 32
-547 29 -7250 -3 -5226 -7 -6781 -16 -6870 -24 -223 -63 -493 -93 -643 -313
-1566 -1251 -2926 -2602 -3772 -803 -503 -1706 -796 -2672 -865 -193 -14
-13637 -14 -13830 0 -1818 131 -3436 1075 -4431 2585 -570 865 -887 1834 -944
2880 -13 245 -13 13395 0 13640 36 658 169 1264 412 1870 76 191 262 569 368
750 576 978 1418 1763 2425 2260 658 325 1352 518 2083 579 128 11 1413 13
7067 12 6401 -2 6920 -3 7045 -19z"/>
<path d="M24338 26609 c-371 -36 -743 -198 -1024 -447 -560 -494 -765 -1267
-523 -1969 262 -759 1002 -1265 1799 -1230 592 27 1116 321 1445 812 360 537
409 1221 131 1802 -333 693 -1065 1106 -1828 1032z"/>
<path d="M16086 24489 c-1652 -70 -3260 -675 -4551 -1713 -308 -247 -748 -668
-994 -951 -1040 -1193 -1685 -2627 -1881 -4180 -44 -354 -54 -531 -54 -980 0
-551 24 -845 109 -1341 419 -2439 1995 -4555 4223 -5668 1442 -721 3083 -976
4692 -730 1340 205 2635 775 3695 1628 323 259 780 699 1029 991 1248 1459
1907 3229 1906 5124 -1 1687 -534 3304 -1533 4651 -469 632 -1053 1213 -1686
1674 -1050 768 -2303 1270 -3581 1435 -472 61 -905 80 -1374 60z m884 -2783
c480 -57 889 -157 1310 -321 1036 -404 1916 -1148 2496 -2110 115 -191 291
-545 367 -740 522 -1332 467 -2802 -152 -4080 -657 -1355 -1884 -2351 -3341
-2709 -218 -54 -408 -88 -655 -118 -244 -30 -855 -33 -1090 -5 -654 77 -1187
233 -1738 508 -879 439 -1593 1105 -2106 1964 -91 151 -263 500 -330 668 -406
1010 -478 2128 -205 3183 169 653 486 1296 909 1839 848 1089 2138 1798 3505
1924 63 6 133 13 155 15 107 10 748 -3 875 -18z"/>
</g>
</svg>
