<?xml version="1.0" standalone="no"?>
<!DOCTYPE svg PUBLIC "-//W3C//DTD SVG 20010904//EN"
 "http://www.w3.org/TR/2001/REC-SVG-20010904/DTD/svg10.dtd">
<svg version="1.0" xmlns="http://www.w3.org/2000/svg"
 width="100.000000pt" height="100.000000pt" viewBox="0 0 100.000000 100.000000"
 preserveAspectRatio="xMidYMid meet">

<g transform="translate(0.000000,100.000000) scale(0.100000,-0.100000)"
fill="#000000" stroke="none">
<path d="M130 500 l0 -250 370 0 370 0 0 250 0 250 -370 0 -370 0 0 -250z
m600 176 c0 -2 -52 -45 -115 -96 l-114 -91 -103 82 c-57 45 -110 88 -118 96
-12 11 23 13 218 13 128 0 232 -2 232 -4z m-377 -161 c77 -63 144 -115 148
-115 4 0 68 49 141 108 73 59 139 111 146 116 9 6 12 -27 12 -148 l0 -156
-300 0 -300 0 0 155 c0 85 2 155 6 155 3 0 69 -52 147 -115z"/>
</g>
</svg>
