<?xml version="1.0" encoding="UTF-8"?>
<svg id="goccia" xmlns="http://www.w3.org/2000/svg" viewBox="0 0 320.33 179.81">
  <defs>
    <style>
      .cls-1 {
        fill: #f4292d;
      }
    </style>
  </defs>
  <path class="cls-1" d="M14.06,107.69h-.01l8.21-18.52,8.22,18.53h-.01c.83,1.41,1.31,3.05,1.31,4.81,0,5.26-4.26,9.52-9.52,9.52s-9.52-4.26-9.52-9.52c0-1.76.49-3.41,1.32-4.82"/>
  <path class="cls-1" d="M.88,123.42h0l5.47-12.33,5.48,12.34h0c.55.94.88,2.03.88,3.2,0,3.5-2.84,6.34-6.34,6.34s-6.34-2.84-6.34-6.34c0-1.17.32-2.27.88-3.21"/>
  <g>
    <path d="M81.02,70.01c-.2,4.51-4.03,8.01-8.54,7.8-4.52-.2-8.01-4.03-7.81-8.54.2-4.51,4.03-8,8.54-7.8,4.51.2,8,4.03,7.8,8.54"/>
    <g>
      <path d="M314.19,106.85c-.14,0-.27.04-.41.09-29.39-7-46.09-18.26-58.54-28.37-11.94-9.69-40.42-42.19-48.62-54.6-7.27-11.01-17.55-12.21-21.67-12.21h-.13c-1.71,0-14.78-.65-23.95-1.93-9.48-1.32-28.05-5.91-37.27-8.57-9.27-2.68-13.51-.37-14.2.07-.82.35-8.87,3.78-18.52,6.59-12.43,3.62-21.81,10-26.3,13.47-4.57,3.54-10.7,9.02-13.87,11.89h0s-5.03,4.34-5.03,4.34c0,0,1.2,1.44,4,.78.28.29.61.59,1.02.87,1.4.99,3.25,1.59,5.53,1.81-16.9,6.27-29.05,18.87-33.75,25.86-.47.58-5.43,6.91-3.64,11.64l.08.21.17.15s1.26,1.08,4.04,3.47c.55.52,11.22,10.51,28.01,15.85,10.08,3.21,20.38,4.15,30.59,2.8,1.24-.16,2.48-.36,3.72-.59-6.2,1.95-11.39,4.23-14.27,6.19-.3.19-7.34,4.7-6.28,13.56.1,1.34.2,2.4.29,3.25-1.15.7-2.23,1.64-3,2.9,0,0-.49,1.46,1.27,1.46,1.38,0,5.91-.37,8.49-.5h0c.06,0,.14,0,.22-.01,0,0,0,0,.01,0,2.26-.11,10.32.22,12.23.31.42.04.85.08,1.33.13,2.73.29,7.96.01,12.16-.21,2.11-.11,3.94-.21,4.98-.21,3.1,0,17.43,1.3,26.07,2.57,6.75,1,15.95,4.13,22.04,6.21,1.64.56,3.06,1.04,4.06,1.36,3.38,1.06,11.5,3.24,18.04,5,4.79,1.29,9.32,2.51,9.84,2.71,1.53.6,6.68,1.65,11.66,2.67,3.59.74,6.98,1.43,8.18,1.79,2.1.63,14.11,2.55,23.76,4.09,3.65.58,6.81,1.09,8.49,1.38,5.76.98,59.99,17.21,78.17,24.19.33.32.66.49,1,.49,3.39,0,6.14-16.33,6.14-36.48s-2.75-36.48-6.14-36.48ZM81.56,99.32c-9.95,1.32-19.97.42-29.8-2.7-16.78-5.32-27.31-15.37-27.41-15.47l-.04-.04c-2.19-1.88-3.44-2.95-3.88-3.33-1.25-3.91,3.41-9.68,3.46-9.74l.05-.07c2.65-3.95,8.16-10.15,15.71-15.75,7.45-5.52,15.53-9.43,23.66-11.46.7-.11,1.43-.24,2.18-.39.28-.04,3.2-.49,6.74-1.09,16.05-1.31,32.01,4.56,47.49,17.48l.04.03c.09.07,8.8,6.56,11.75,11.66-.72,1.69-4.21,9.03-13.18,15.46-11.95,8.56-24.32,13.74-36.77,15.4ZM162.1,74.84h-1.34l.21,1.06c1.11,5.46,1.35,8.34,1.58,11.13.04.54.09,1.07.14,1.62-.93,1.35-1.93,2.65-3.01,3.85l-.15.17-.05.21c-.03.13-.71,2.6-4.85,3.55-3.36-4.77-6.53-8.9-9.13-12.15-.08-.55-.16-1.22-.26-1.98-.34-2.85-.86-7.17-2.39-12.8-1.12-4.13,1.42-6.43,3.75-7.63l-.07-.14c11.41-.54,23.52-4.49,27.58-5.92-.56,3.94-1.71,10.26-3.9,16.97-3.03.8-7.49,1.95-8.1,2.06ZM169.52,74.78c-1.37,3.88-3.1,7.82-5.27,11.44-.21-2.48-.47-5.19-1.37-9.75.81-.19,2.6-.63,6.64-1.69ZM138.38,61.43c1.67.23,3.41.35,5.19.36-2.42,2.1-3.3,4.97-2.43,8.18,1.36,5,1.9,8.95,2.25,11.73-2.13-2.58-3.64-4.29-4.23-4.95.68-7-.26-12.82-.78-15.32ZM137.39,59.48l-1.37-.25.36,1.35c.02.07,1.94,7.35.99,16.38l-.04.39.27.29c.07.08,6.93,7.6,15.08,19.08-.39.03-.81.06-1.25.06-2.67.05-7.64-.13-13.41-.33-2.74-.1-5.63-.2-8.56-.29-1.6-1.69-5.79-6.15-7.7-8.51-.32-.4-1.03-1.91-1.41-2.72-.04-.08-.08-.16-.11-.24,9.93-7.45,12.94-15.65,13.07-16l.13-.37-.18-.34c-2.89-5.42-11.82-12.13-12.43-12.58-1.71-1.42-3.42-2.76-5.14-4.02-.16-2.26-.26-3.96-.31-5.04-.25-5.44,3.89-7.29,4.07-7.36l-.02-.06c7.68,2.92,21.53,7.52,35.4,7.68,3.72,1.02,6.48,1.73,8.74,2.31,4.78,1.23,7.08,1.83,10.98,3.43-.04.36-.09.86-.17,1.5-3.41,1.23-23.45,8.13-36.97,5.64ZM126.98,96.1c-8.48-.23-16.89-.31-22.04.23-3.15.33-6.35.86-9.48,1.52,7.89-2.66,15.7-6.71,23.33-12.1.63,1.35,1.19,2.5,1.61,3.02,1.57,1.94,4.61,5.23,6.58,7.33ZM113.61,46.43c.04.85.11,2.07.22,3.64-3.8-2.64-7.63-4.87-11.49-6.69,3.1-2.21,5.49-4.15,7.14-5.78,1.08-.22,3.43-.69,4.29-.9.28.1.85.33,1.45.58.61.25,1.35.54,2.21.88-1.59,1.16-4.03,3.71-3.82,8.27ZM115.88,35.64c-1.42-.57-1.84-.74-2.11-.74-.1,0-.18.02-.28.06-.28.09-2.57.56-4.62.97l-.26.05-.19.19c-1.71,1.73-4.38,3.87-7.93,6.36-6.23-2.73-12.52-4.38-18.84-4.95,1.64-.34,2.94-.66,3.58-.9,2.73-1.05,4.15-1.45,8.28-1.45,4.85,0,19.4-3.43,19.54-3.46.76-.18,1.37-.22,1.92-.12.96.62,6.42,4.08,9.72,5.54,5.45,2.4,14.1,4.96,21.36,7-13.46-1.79-25.62-6.71-30.16-8.55ZM311.79,176.91c-19.95-7.35-70.89-22.56-76.48-23.52-1.69-.29-4.85-.79-8.51-1.38-8.58-1.37-21.55-3.45-23.53-4.04-1.28-.38-4.55-1.05-8.33-1.83-4.68-.96-9.97-2.04-11.37-2.59-.58-.22-4.01-1.15-10.02-2.77-6.52-1.76-14.62-3.94-17.97-4.98-.99-.31-2.39-.79-4.02-1.34-6.15-2.09-15.45-5.26-22.35-6.28-8.87-1.31-23.1-2.59-26.32-2.59-1.09,0-2.94.1-5.07.21-3.4.18-7.48.4-10.27.32-3.08-5.45-12.45-4.99-15.58-4.67h0s-2.48.1-5.08,1.18c-.09-.83-.17-1.72-.23-2.57-.92-7.77,5.21-11.74,5.49-11.92,6.84-4.66,22.57-8.96,32.98-10.05,7.3-.77,21.46-.27,32.84.13,5.77.2,10.76.38,13.47.33.82.03,11.23.23,21.37-10.58,2.08-2.54,3.59-4.89,4.44-6.32l-1.1-.74c-5.17,7.7-10.92,11.67-15.57,13.72.3-.47.46-.87.54-1.11,6.82-7.71,10.59-18.59,12.56-26.38,2.14-8.47,2.66-15.23,2.67-15.3l.05-.63-.59-.25c-4.39-1.84-6.72-2.44-11.82-3.76-2.52-.65-5.65-1.46-10.07-2.68l-2.26-.62c-7.79-2.14-19.56-5.38-26.26-8.33-3.43-1.52-9.56-5.46-9.62-5.5l-.13-.08-.15-.03c-.86-.2-1.77-.17-2.86.09-3.72.89-15.24,3.41-19.14,3.41-4.41,0-6.02.45-8.91,1.56-1.45.56-7.2,1.61-12.56,2.51-1.13.09-2.26.22-3.38.38-1.97.28-3.9.66-5.77,1.13-6.29.94-9.48-.06-11.08-1.15-.08-.05-.15-.11-.22-.16.77-.37,1.63-.88,2.58-1.57h0s7.15-3.97,7.14-9.8c1.52-1.28,3.02-2.51,4.38-3.57,7.47-5.79,16.84-10.59,25.71-13.17,10.25-2.99,18.72-6.66,18.8-6.7l.16-.09s3.75-2.48,12.79.13c9.26,2.68,27.95,7.29,37.51,8.62,9.25,1.29,22.46,1.94,24.19,1.94h.13c4.74,0,13.63,1.49,20.19,11.42,8.25,12.49,36.95,45.23,48.98,55,12.47,10.12,29.14,21.38,58.28,28.48-2.52,4.54-4.35,18.45-4.35,34.91,0,15.08,1.54,28.02,3.74,33.58Z"/>
      <path d="M119.98,67.83l-.73-.57c-1.13-.88-2.26-1.72-3.36-2.5-11.98-8.55-24.41-13.54-36.94-14.83-13.12-1.35-22.94,1.69-28.86,4.49-17.33,8.18-27.46,19.49-27.56,19.61l-.13.14-.06.18c-.06.18-.52,1.8.43,3,.64.81,1.7,1.17,3.15,1.07l.92-.06c2.96-.21,3.7-.26,6.1.81.22.18.46.35.7.53l.11-.15c.64.3,1.4.67,2.31,1.12.92.45,2.01.98,3.29,1.6,12.27,5.91,28.65,7.77,28.85,7.79,1.3.09,2.57.13,3.83.13,14.15,0,25.78-5.37,33.27-10.09,8.83-5.57,13.84-11.31,14.05-11.56l.61-.7ZM26.74,76.59l-.91.06c-.57.04-1.33,0-1.65-.4-.27-.33-.23-.9-.17-1.22.51-.55,2.37-2.51,5.44-5.14-.25.94-.38,1.99-.25,3.12.14,1.24.58,2.42,1.31,3.52-1-.13-2.06-.06-3.76.06ZM68.38,88.3c-.16-.02-16.25-1.84-28.25-7.62-1.28-.62-2.36-1.14-3.28-1.6-1.2-.59-2.15-1.05-2.95-1.42-1.76-1.45-2.76-3.08-2.97-4.83-.33-2.78,1.42-5.15,1.81-5.64,4.5-3.52,10.62-7.64,18.1-11.17,2.81-1.32,8.55-3.57,16.45-4.34-7.37,2.28-12.87,8.99-13.24,17.13-.23,5.02,1.52,9.83,4.91,13.54,3.33,3.64,7.84,5.79,12.75,6.08-1.1,0-2.21-.05-3.34-.12ZM72.08,86.68c-4.55-.21-8.75-2.17-11.82-5.53-3.07-3.36-4.65-7.72-4.45-12.27.41-9.13,7.98-16.28,17.03-16.28.26,0,.52,0,.77.02,9.39.42,16.69,8.41,16.27,17.8-.21,4.55-2.17,8.75-5.53,11.82-3.36,3.07-7.72,4.65-12.27,4.45ZM74.88,88.35c3.96-.42,7.67-2.08,10.66-4.81,3.71-3.39,5.88-8.02,6.11-13.04.39-8.75-5.28-16.39-13.29-18.84,10.35.95,22.85,4.8,36.52,14.54.83.59,1.68,1.22,2.54,1.88-3.32,3.49-19.44,19.09-42.53,20.28Z"/>
    </g>
  </g>
</svg>