<?xml version="1.0" encoding="UTF-8"?>
<svg id="goccia" xmlns="http://www.w3.org/2000/svg" viewBox="0 0 227.09 354.24">
  <defs>
    <style>
      .cls-1 {
        fill: #f4292d;
      }
    </style>
  </defs>
  <path class="cls-1" d="M48.28,230.8h0s.98-14.95.98-14.95l10.43,10.77h0c.94.77,1.69,1.79,2.14,3.01,1.34,3.65-.53,7.7-4.18,9.04-3.65,1.34-7.7-.53-9.04-4.18-.45-1.22-.53-2.49-.31-3.69"/>
  <path d="M39.42,243.96c-.36-1.73-3.2-3.99-3.77-4.42l-.94,1.22c1.22.94,3.02,2.65,3.2,3.53.15.65.51,2.54.39,3.52-.14.72-.61,2.46-1.39,3.65h.01c-1.67,2.94-5.29,4.37-5.29,4.37-1.05.37-2.77,1.07-3.5,1.37l.12.68c5.92-1.08,7.1-2.4,8.36-3.79.25-.28.49-.55.78-.82,1.73-1.62,2.39-5.06,2.42-5.2v-.05c.18-1.41-.35-3.81-.41-4.06Z"/>
  <path d="M44.21,285.68s5.03-2.12,8.58.88l.61-.49c-3.35-4.15-9.49-1.91-9.74-1.82l.54,1.44s0,0,.01,0h0Z"/>
  <path d="M60.28,187.49c-11.2-6.26-21.17-6.64-27.56-5.87-6.95.85-11.19,3.16-11.35,3.24-6.75,3.5-6.83,10.49-6.83,10.78,0,.25.05,6.09,4.04,8.69l.44-.67c-3.29-3.22-2.95-7.87-2.95-7.87h0c0-.09,0-.14,0-.15,0-.06.07-6.35,6.01-9.42.04-.02,4.21-2.28,10.89-3.08,6.04-.72,15.41-.36,26,5.38-.54,1.41-2.49,5.13-8.28,6.69-.17-.15-.35-.26-.51-.34-1.01-.42-5.41-2.2-5.45-2.22l-.05-.02c-7.41-2.39-13.33-2.99-15.56-3.22l-.43-.04c-2.63-.29-3.82.83-3.95.96l-.04.04c-.12.14-2.96,3.53-1.75,8.62l.05.13c.03.06.67,1.49,2.2,2.45l2.22,1.65c.31.31,1.47,1.22,4.36,1.46h0c.29.41.56.8.76,1.08-.36.68-.85,1.95-.21,3.11l.08.11c.25.31,2.44,3.02,3.79,3.87.06.04.99.56,2.24.56.79,0,1.72-.21,2.64-.89l.09-.08c.28-.29,6.82-6.97,8.72-14.1.58-.18,1.23-.58,1.44-1.35.04-.14.05-.27.06-.39,7.74-2.22,9.22-8.04,9.28-8.29l.14-.57-.51-.28ZM28.53,202.17l-.06-.07-2.37-1.76-.05-.03c-.98-.62-1.49-1.51-1.61-1.73-.93-4.06,1.14-6.81,1.42-7.15.14-.12.94-.7,2.68-.51l.44.05c2.18.22,7.97.81,15.21,3.15.36.15,4.36,1.76,5.38,2.19.06.03.31.19.26.34-.05.17-.38.28-.58.32-.61-.06-4.54-.44-6.08-.67-.75-.11-9.26-1.3-10.48-1.22-1.2.07-3.62.74-4.27,2.81l-.03.16c0,.07-.13,1.61.98,3.11.05.08.6.9,1.26,1.86-1.58-.31-2.1-.83-2.1-.83ZM30.63,200.24c-.65-.89-.71-1.75-.7-2.01.41-1.1,1.95-1.59,2.85-1.64.87-.05,8,.89,10.17,1.21.24.04.54.07.87.12-3.03,4.35-7.8,7.42-7.85,7.46l-.06.04c-.9.7-1.61.08-1.83-.15-.55-.75-3.39-4.95-3.44-5.02ZM40.11,211.35c-1.52,1.09-3.07.24-3.11.22-.91-.58-2.67-2.64-3.34-3.46-.18-.38-.08-.83.06-1.2.39.21.85.37,1.36.37.54,0,1.13-.17,1.73-.63.49-.32,5.64-3.7,8.71-8.54,1.01.11,2.04.22,2.75.29-1.86,6.3-7.62,12.38-8.17,12.95Z"/>
  <path d="M195.7,30.75l3.47,1-1.96-3.14c.43-.88.6-1.72.6-2.49,0-1.44-.57-2.78-1.57-4.02l1.41-3.32-3.24,1.51c-.31-.26-.65-.51-.99-.75l.51-5.66-4.67,3.28c-1.96-.94-4.13-1.78-6.4-2.54l-.78-5.68-3.83,4.27c-1.64-.46-3.28-.87-4.89-1.24l-1.38-6.44-3.38,5.41c-2.78-.56-5.69-1.07-8.73-1.53l-1.5-4.69-2.57,4.11c-2.4-.32-4.86-.61-7.38-.88l-1.9-6.7-3.24,6.21c-2.28-.2-4.6-.37-6.95-.52l-1.86-5.26-2.38,5.03c-2.55-.13-5.13-.23-7.73-.3l-2.1-6.4-2.51,6.3c-1.77-.03-3.55-.04-5.34-.04-2.56,0-5.1.03-7.62.08l-2.13-5.86-2.1,5.98c-2.51.08-4.99.19-7.44.33l-2.31-4.4-1.77,4.65c-3.05.21-6.03.45-8.95.74L78.98.02l-2.05,8.3c-4.19.49-8.21,1.07-12.01,1.73l-2.8-4.53-1.22,5.27c-1.75.34-3.45.7-5.09,1.08-1.47.34-2.85.68-4.15,1.03l-3.45-4.64-.79,5.87c-2.88.91-5.29,1.83-7.28,2.75l-3.88-3.15.76,4.78c-.96.57-1.79,1.14-2.48,1.7l-3.41-1.59,1.48,3.47.04-.04c-1.2,1.47-1.62,2.86-1.62,4.07,0,.9.22,1.75.63,2.57l-1.97,3.16,3.52-1.02c.89.93,2.02,1.8,3.34,2.62l-.24,5.62,4.43-3.44c2.11.94,4.44,1.78,6.83,2.53l.62,5.05,3.56-3.85c1.37.37,2.74.7,4.08,1.01.33.08.67.15,1.01.23l1.29,6.52,3.57-5.51c2.78.53,5.69,1.02,8.71,1.46l1.37,4.49,2.55-3.96c2.57.33,5.2.63,7.9.89l1.63,5.58,2.64-5.2c2.42.2,4.89.37,7.4.52l1.87,5.16,2.29-4.94c2.16.1,4.34.18,6.55.24l2.25,6.36,2.53-6.27c1.68.02,3.37.04,5.06.04,2.81,0,5.6-.03,8.36-.1l2.5,5.74,2.26-5.89c2.54-.09,5.05-.21,7.53-.36l2.33,4.35,1.7-4.61c3-.22,5.93-.47,8.8-.76l3.2,6.2,1.76-6.75c4.35-.53,8.51-1.15,12.42-1.85l2.7,4.28,1.12-5.01c1.34-.27,2.65-.55,3.92-.85,2.03-.47,3.91-.95,5.63-1.43l3.3,4.35.7-5.57c3.01-1,5.45-2.01,7.42-3.02l3.78,3.01-.8-4.76c1.1-.75,1.97-1.49,2.65-2.21ZM172.66,38.87c-.12.03-.25.06-.38.08l-2.42-3.89-.93,4.62c-3.78.77-7.81,1.46-12.05,2.05l-2.8-5.52-1.8,6.12c-5.17.62-10.62,1.11-16.25,1.46l-2.73-5.31-2.32,5.59c-5.08.24-10.29.37-15.58.38l-1.82-4.57-1.92,4.57c-2.18-.02-4.35-.05-6.5-.11l-1.29-3.57-1.6,3.48c-3.54-.12-7.02-.29-10.43-.52l-1.49-5.24-2.7,4.94c-5.64-.45-11.05-1.03-16.15-1.75l-1.29-5.09-2.64,4.5c-4.04-.65-7.87-1.38-11.42-2.2-2.3-.53-4.45-1.09-6.45-1.68l-.41-4.21-3.03,3.12c-4.56-1.55-8.07-3.23-10.39-4.98l1.01-2.85-2.92,1.1c-.93-1.08-1.41-2.17-1.41-3.26,0-3.05,3.73-6.11,10.57-8.83l2.56,3.06.24-4.1c2.97-1.02,6.39-1.99,10.23-2.88.6-.14,1.22-.28,1.83-.41l2.21,3.63.9-4.27c3.93-.77,8.13-1.45,12.55-2.04l2.52,5.1,1.71-5.62c5.31-.61,10.89-1.08,16.66-1.41l2.39,4.75,2.12-4.98c5.01-.22,10.15-.33,15.36-.33.1,0,.2,0,.3,0l1.81,4.68,2.01-4.66c2.11.02,4.21.07,6.28.13l1.32,3.75,1.72-3.64c3.53.13,6.99.32,10.39.55l1.5,5.47,2.87-5.13c5.84.49,11.43,1.13,16.67,1.92l1.1,5.05,2.8-4.42c3.34.57,6.52,1.2,9.51,1.89,3.17.73,6.05,1.52,8.62,2.34l.36,4.04,2.88-2.91c7.58,2.83,11.74,6.06,11.74,9.28,0,1.04-.44,2.08-1.28,3.11l-2.82-1.4,1.12,3.04c-1.52,1.21-3.6,2.38-6.21,3.51l-2.73-3.21-.22,4.38c-3.24,1.19-7.08,2.3-11.47,3.32Z"/>
  <g>
    <path d="M28.37,251.41c-6.02-.67-8.94,1.82-8.94,1.82,0,0-1.58,1.64-.49,2.74,1.09,1.09,3.53,0,3.53,0,1.03-.79,5.11-1.82,6.63-2.13,1.52-.3.97-1.58.97-1.58-.24-.66-1.7-.85-1.7-.85Z"/>
    <path d="M224.01,151.97c.51-1.5.37-3.14.34-3.41-.41-9.46-5.26-19.53-5.47-19.96-4.3-8.83-12.95-13.71-14.19-14.37-.47-.49-.84-.84-1.09-1.05.03-2.78-1.24-5.39-3.71-7.58-1.58-1.4-3.18-2.22-3.73-2.48-.48-.61-1.06-1.07-1.57-1.37-.81-2.75-3.12-4.7-6.7-5.67-2.2-.59-4.25-.65-4.99-.64-1.21-.88-2.84-.49-3.59-.24-1.96-1.23-3.8-2.33-5.55-3.3-3.24-8.11-20.49-8.1-21.24-8.1v.09c-.66-.21-1.35-.41-2.05-.6l.02-.12s-.31-.04-.75-.07c-5.4-1.42-11.48-2.43-11.81-2.48-6.65-1.41-10.29-1.17-12.25-.6-12.21-4.81-21.47-1.16-23.2-.37-1.09-.31-1.84-.51-1.94-.53-.06-.02-.13-.03-.19-.02,0,0-.18,0-.47,0-1.1-.11-13.69-1.32-21.67,1.88-.75.08-6.06.75-9.31,3.87-2.21.25-13.21,1.65-19.39,4.9-7.06.78-9.74,4.02-10.46,5.13-2.76.47-3.79,1.95-4.13,2.7-4.59,1.61-6.88,5.28-7.48,6.4-3.17,1.04-5.37,2.79-5.51,2.9-.09.07-2.33,1.84-4.2,4.7-.88,1.34-1.52,2.7-1.93,4.06-.75.81-4.79,5.36-6.99,10.61-1.41.92-3.05,2.73-3.72,5.38-.96,1.12-6.55,8.31-4.72,22.47,0,.02.23,2.28.34,3.73.07.93.88,6.27,2.72,7.5.07.04.14.08.21.12.34,2.37,1.81,12.78,1.66,17.2-.18,5.37.19,11.96.87,15.33,0,.02.45,2.15.56,2.81.37,2.2,1.44,3.07,2.28,3.42.96.4,1.82,1.32,2.15,1.94.13,1.16.23,2.82.1,4.84-.28,4.13-2.34,19.51-3.84,27.87-.13.55-1.91,8.17-2.16,9.39-.14.51-1.6,5.95.06,9.26.03.06.79,1.58,2.62,2.92,1.67,1.22,4.59,2.55,9.07,1.93l.11-.02c.36-.1,3.52-1.03,4.14-1.29.44-.19,2.21-.41,3.31-.41.91,0,2.55.52,3.2,1.92.06,1.18.11,2.94,0,3.41v.06c-.03.17-.54,4.19,1.75,6.23.23.23,1.62,1.6,3.46,1.88.44.56,1.51,1.72,3.32,2.42-.61,1.71-1.71,5.84.36,9.1.13.21.84,1.19,2.76,1.38h.07s.08,0,.08,0c.45-.04,1.55,0,1.94.37.24.24.68.57,1.23.97,1.03.76,3.16,2.34,3.31,3.2-.02.8-.18,7.7,1.23,11.1.22.82,2.5,8.69,9.16,11.85.23.12,5.15,2.47,14.65,2.47,1.44,0,2.98-.05,4.62-.18.23,0,5.72-.28,15.23-4.55.56-.25,1.15-.53,1.76-.82-.3,3.23-1.43,13.72-4.37,22.92-2.76,8.66-3.55,16.67-3.6,17.16-.04.15-.06.3-.03.45.71,4.1,29.58,2.55,64.49-3.46,34.91-6.01,62.64-14.22,61.93-18.32-.02-.12-.07-.23-.13-.33l.06-.02c-.09-.29-7.67-26.42-7.31-56.36,2.99-2.9,2.36-6.64,2-8.01,3.66-3.41,4.27-11.57,4.36-13.11.75-1.04,3.56-5.17,2.45-7.8-.77-1.8.29-4.78.76-5.78l.04-.1c.85-2.68-.78-5.59-1.13-6.16.35-1.94-.83-3.53-1.78-4.28,0-.02-.02-.03-.03-.05-.04-.06-.07-.12-.11-.18,2.01-.59,2.88-2.41,3.07-3.44v-.08c.21-2.91-2.73-4.93-3.06-5.14-.41-.3-.76-.71-1.07-1.17,2.95-1.83,3.33-4.47,3.37-5.42,2-1.07,3.3-3.02,3.87-5.81h-.06c.99-1.05,1.68-2.44,2.08-4.17l-.21-.05c1.31-1.62,2.29-3.85,2.9-6.68h-.06c1.31-2.47,2.22-5.73,2.74-9.79,6.69-15.13,1.05-31.82.15-34.27ZM224.28,158.75c1.14,5.37,2.05,13.38.04,21.4.01-.39.02-.79.03-1.19.88-4.6.7-8.61.69-8.79l-.18-3.63c-.03-2.06-.22-4.84-.9-7.35.11-.15.22-.3.32-.43ZM217.5,129.28c.04.08,3.09,6.42,4.56,13.59,1.09,6.56-.62,7.89-.88,8.05-1.09.2-2.03-1.03-2.69-2.35.41.14.77.18,1.05.18.36,0,.59-.07.63-.08,2.24-.61,1.37-4.55,1.16-5.39-2.63-13.13-7.69-19.89-10.85-22.99,2.51,2.25,5.2,5.26,7.01,8.99ZM217.78,170.43l.03.1.06.09c.28.43,1.08,1.19,2.27,1.25.06,0,.12,0,.18,0,.52,0,1.05-.13,1.59-.38-.72.89-1.5,1.48-2.31,1.74-1.2.38-2.13-.05-2.34-.15-4-3.51.84-14.43,3.25-18.73.42.1.7.1.76.1h0l.16-.02c.25-.05.47-.13.68-.22-1.87,3.22-5.96,11.13-4.33,16.21ZM207.3,232.2c-.28.21-.47.21-.59.18-.41-.08-.82-.53-1.04-.84.11-.94.16-1.94.18-2.97.4.41.74.68.86.77.71.65,1.08,1.28,1.07,1.83-.01.61-.49,1.02-.49,1.02h0ZM206.41,235.62c.21.09.42.16.64.22.09,1.71,0,7.02-4.34,9.52-2.08.38-5.77,2.28-5.75,6.98-.07.47-.37,1.41-.85,1.48-1.09.14-1.61.05-2.29-1.49-.22-.79-.59-1.62-1.15-2.45-.21-.35-2.13-3.47-5.7-5.05-.22-.16-1.14-.92-1.31-2.25-.16-1.28.43-2.72,1.74-4.29.64.3,1.35.57,2.15.77.12,2.64,1.36,6.95,5.57,7.79.18.05.78.19,1.62.19,1.97,0,5.3-.76,7.96-5.19.07-.12,1.58-2.68,1.73-6.22ZM208.6,235.94c.3-.04.58-.11.83-.2.71,4.85-.65,8.32-2.52,10.45-.05.05-.1.1-.14.16-1.12,1.22-2.4,1.97-3.53,2.27-1.58.42-2.67,1.16-3.23,2.19-.65,1.19-.33,2.29-.29,2.41l.05.17.12.13c.5.53.73,1.1.71,1.74-.02.15-.03.27-.03.35-.21,1.33-1.35,2.5-1.54,2.69-.94.68-1.81.92-2.6.69-1.36-.38-2.24-1.98-2.52-2.57.09-.4.17-.85.2-1.33.42.22.89.32,1.45.32.24,0,.49-.02.76-.05,1.46-.2,2.06-1.89,2.18-2.86v-.05s0-.05,0-.05c-.05-4.72,4.4-5.49,4.59-5.52l.14-.02.12-.07c5.11-2.84,5.36-8.64,5.26-10.83ZM203.38,250.18c.01.66-.13,1.59-.89,2.2-.36.29-.65.58-.89.86-.13-.21-.28-.42-.45-.62-.03-.21-.04-.63.2-1.07.32-.59,1.02-1.05,2.03-1.36ZM183.36,257.89l.1.04c.79.29,1.53.43,2.19.43s1.21-.13,1.72-.4c1.07-.56,1.46-1.51,1.56-1.81.35-.73.38-1.53.1-2.31-.91-2.5-4.82-4.32-5.42-4.58-4.26-2.36-3.63-6.18-3.6-6.34v-.14c.01-3.29,2.35-5.83,3.82-7.11.45.49,1.18,1.19,2.2,1.85-1.47,1.84-2.11,3.61-1.89,5.27.28,2.18,1.96,3.3,2.03,3.35l.12.06c3.28,1.41,5.05,4.43,5.07,4.46l.03.05c2.43,3.57.43,6.97.35,7.11l-.03.06c-1.48,3.01-3.99,2.69-4.09,2.68h-.16c-3.21.16-4.9-2.17-5.13-3.01,0-.03-.09-.35-.11-.79.43.72,1.07,1.08,1.16,1.13ZM184.02,253.64c.75-.3,2.18-.5,3.64,1.24,0,.22-.04.43-.15.65l-.06.14s-.19.6-.81.93c-.62.32-1.52.29-2.6-.09-.14-.09-.59-.42-.7-.97-.1-.53.13-1.18.67-1.9ZM166.3,241.5c-.08.16-.75,1.63-.18,2.81.2.41.63.95,1.56,1.16.13.04.5.13.95.13.39,0,.84-.07,1.26-.3.57-.3.97-.83,1.15-1.51.01-.05.19-.66.06-1.53.22.55.29,1.09.21,1.59-.25,1.57-1.89,2.49-1.89,2.49h0c-1.35.65-2.55.8-3.59.43-1.37-.49-2.06-1.75-2.17-1.97-1.63-5.2,3.02-7.13,3.49-7.32,2.19-.38,8.75-2.08,12.79-9.05.25,1.03.65,2.15,1.27,3.36-2.66,5.14-4.92,7.82-9.14,7.26-4.16-.55-5.71,2.3-5.79,2.44ZM169.57,243.37c-.08.29-.21.48-.4.58-.35.19-.88.1-1.05.05l-.07-.02c-.42-.09-.51-.27-.54-.34-.2-.4.04-1.16.17-1.43.03-.05.4-.7,1.29-1.18.9,1.23.62,2.29.61,2.34ZM157.45,234.67c-.63.12-1.77.76-1.77,2.43,0,.09.02.87.67,1.52.54.53,1.32.8,2.34.8.03,0,.05,0,.08,0,.06,0,.93-.06,1.81-.75-.25.35-.54.63-.88.83-1.15.68-2.53.34-2.81.26-1.45-.78-2.3-1.74-2.51-2.84-.33-1.72.95-3.38,1.12-3.58,2.6-2.51,4.13-2.22,6.07-1.85.89.17,1.82.35,2.9.26,3.42-.25,8.35-3.14,8.56-3.27l.06-.04c4.62-3.3,6.43-10.87,6.79-12.63.72-.43,1.44-.94,2.15-1.56,4.19-3.69,6.38-9.86,6.52-18.34.36-2.38.56-4.99.58-7.84,1.38-.01,2.88-.19,4.48-.62-2.17,3.29-5.73,10.23-3.04,17.17.96,2.47,1.06,4.53.3,6.12-.89,1.86-2.71,2.46-2.73,2.47l-.11.04c-.22.11-5.37,2.64-6.57,7.16l-.05-.05c-.12.13-1.71,2-1.77,5.26-4.16,9.59-12.95,10.39-13.33,10.41l-.13.02c-2.12.52-4.06.26-5.78-.78-.24-.16-1.48-.96-2.95-.63ZM160.13,236.91c-.61.9-1.38.97-1.4.97-.02,0-.04,0-.06,0-1.34,0-1.45-.66-1.45-.78,0-.73.37-.89.51-.92h.06c.14-.04.27-.06.4-.06.73,0,1.33.43,1.34.43l.06.04c.17.1.35.2.54.3ZM149.29,225.18c-.78.17-2.24.99-2.24,2.8,0,.12-.01,1.22.82,2.03.57.56,1.35.81,2.34.77.43,0,1.05-.12,1.66-.44-.46.5-.98.89-1.27,1.07-2.64,1.55-4.92-.25-5.22-.49-1.13-1.29-1.65-2.67-1.55-4.12.2-2.98,2.94-5.36,2.94-5.36,3.43-2.73,7.26-.76,7.4-.69,2.07,1.21,5.15,1.22,7.34.01,2.74-1.51,4.09-3.4,4.66-4.43,1.08.49,2.25.87,3.5,1.12-.58,1.68-2.46,6.34-6.16,8.75l-.08.06s-1.43,1.18-4.14,1.28c-1.23.05-3.3.32-5.03,1.52.05-.26.08-.53.06-.81,0-.07-.16-1.67-1.46-2.61-.92-.66-2.12-.81-3.57-.46ZM152.42,227.39c-.56,1.78-2.06,1.85-2.23,1.86h-.04c-.55.03-.95-.08-1.2-.32-.36-.34-.36-.9-.36-.92,0-1.01.87-1.28,1.05-1.33.39-.09.74-.14,1.06-.14.5,0,.92.12,1.25.35.2.14.36.32.47.5ZM157.15,203.11c.23,1.3.57,2.68,1.07,4.07l-.15-.09c-.03.05-3.12,5.12-13.44,5.49.52-.83.91-1.4.91-1.41.01-.01.37-.52.93-1.23,1.36-.33,7.14-1.96,10.67-6.83ZM148.43,207.69c.72-.74,1.47-1.42,2.14-1.8,2.33-1.33,3.98-2.97,4.05-3.04l.06-.07c.78-1,1.45-2.24,2.01-3.55.02.43.06.89.1,1.36,0,.06.01.12.02.18-2.08,3.87-5.86,5.94-8.39,6.94ZM158.33,194.36c.21-.81.39-1.57.54-2.27,0,.08.02.16.03.24.25,1.92.62,3.69,1.1,5.29.07,1.34,1.03,13.71,12.52,15.52.06,0,.46.07,1.11.07,1.7,0,5.07-.4,8.27-3.15,1.54-1.32,2.84-3.01,3.89-5.04-.99,3.44-2.58,6.14-4.75,8.06-4.1,3.63-8.95,3.15-9.01,3.15-4.16-.36-7.44-1.99-9.76-4.84-4.97-6.14-4.03-16.1-3.93-17.03ZM95.06,208.09c.79-1.27.65-3.58-4.54-7.41-1.92-1.42-2.81-3.54-2.66-6.32.08-1.5.46-2.8.69-3.47.25,0,.5-.02.75-.04-.55,2.26-1.22,7.8,3.93,11.36,2.38,1.65,3.72,3.31,3.88,4.81.12,1.16-.51,1.85-.53,1.88l-.03.03s-.9.99-2.14.85c-.57-.06-1.16-.36-1.74-.86.3.05.59.06.87.03.99-.12,1.45-.76,1.52-.86ZM93.79,207.22s0,0,0,0c0,0,0,0,0,0,0,0,0,0,0,0ZM75.98,176.38c-.45-2.69-2.5-4.35-5.61-4.53-7.9-.47-13.32-4.41-13.35-4.42-2-1.63-3.12-4.07-3.75-6.34.67,1.49,1.68,3.13,3.2,4.81l.04.04c.21.2,5.24,4.88,13.52,5.23h.02s.02,0,.02,0c.05,0,4.81-.04,6.59,2.48l.05.07c.61.82.93,1.63,1.07,2.35l-.12.11c.05.06.11.11.17.16.2,1.43-.23,2.5-.29,2.64-.8,1.48-1.77,2.3-2.74,2.73.98-1.48,1.48-3.5,1.17-5.35ZM71.5,175.73c-2.07-1.8-5.41-1.28-5.55-1.26-.02,0-.03,0-.05,0-3.11.71-6.07.43-8.8-.83-1.93-.89-3.06-1.99-3.2-2.12-4.55-5.41-3.51-11.81-2.88-14.26.26,2.91,1.26,8.28,5.06,11.37.23.17,5.82,4.24,14.2,4.75,3.04.18,3.96,1.87,4.19,3.25.38,2.28-.88,4.78-2.23,5.48-.02,0-.05,0-.07,0,.66-.95.85-2.13.87-2.32,0-.03,0-.06,0-.09.04-1.71-.49-3.04-1.55-3.97ZM18.52,129.56c.13,3.04,1.29,5.45,3.38,6.99.12.08,3.04,1.97,7.07,1.12.43-.01,3.3-.04,4.32,1.37.09.18.17.37.24.56,0,.02.01.03.02.05-7.3,5.86-13.24,1.68-13.92,1.16-5.66-6.79-2.7-13.11-1.46-15.15.19.14.4.28.62.42-.14.72-.34,2-.28,3.49ZM23.6,130.95c.79,2,2.77,3.52,5.87,4.52.01,0,.63.23,1.4.77-1.07-.17-1.94-.12-2.03-.12l-.12.02c-3.29.72-5.75-.75-5.95-.87-3.13-2.32-2.83-6.62-2.53-8.49.89.35,1.95.61,3.21.71-.23.86-.37,2.12.16,3.47ZM32.39,111.98c.13.49,1.43,4.43,9,4.25-2.86,2.56-5.97,2.2-6.13,2.18-5.68-.68-6.37-4.31-6.4-4.48-.51-2.88.55-5.28,3.14-7.14.52-.37,1.06-.69,1.56-.95-1.03,1.58-1.92,3.79-1.19,6.14ZM42.53,105.9c-.09.25-2.05,5.97,1.06,8.75-.01,0-.03,0-.04-.02h0c-2.83-1.17-4.49-2.71-4.92-4.59-.7-3.08,2.08-6.2,2.1-6.23l.74-.81c.29.17.6.34.93.5.08.07.25.23.44.44-.04-.03-.06-.04-.06-.04.11.12.28.7-.26,2.01ZM67.17,143.31c.05.08,3.86,5.65,11.27,7.04-7.87.19-12.57-4.26-12.84-4.52-3.99-3.57-3.68-13.71-3.67-13.82.12-6.83-5-12.03-5.21-12.23-.05-.05-2.75-2.88-5.55-6.2,2.29,2.29,4.58,4.45,5.96,5.33.07.05,7.32,4.93,7.12,9.88,0,.02,0,.03,0,.05.01.44.3,10.71,2.93,14.48ZM55.62,120.85s4.87,4.97,4.77,11.12c-.02.45-.34,10.96,4.16,14.99.09.09,2.33,2.25,6.3,3.69,1.85.67,4.28,1.24,7.17,1.24,2.49,0,5.32-.42,8.43-1.57-8.99,5.48-19.84.56-19.98.5-10.44-4.58-8.17-19.79-8.14-19.94,0-.05.01-.09,0-.14,0-.24-.22-5.91-6-12.73-1.37-1.62-2.48-3.2-3.38-4.68,3.1,3.8,6.44,7.29,6.67,7.53ZM81.6,110.5c.04,1.43.12,2.8.22,4.12-7.32-8.57-1.99-16.2-.73-17.76.35.05.7.1,1.07.14-.22,1.97-.74,7.34-.56,13.49ZM82.08,117.15s0,.05,0,.07c-4.82-2.91-7.61-6.35-8.29-10.24-.92-5.2,2.21-9.81,3.29-11.22.72.31,1.5.58,2.35.78-1.97,2.86-6.54,11.54,2.64,20.61ZM72.27,107.23c.81,4.65,4.21,8.65,10.08,11.92.01.07.02.14.03.21-4.2-1.06-7.54-3.24-9.95-6.51-2-2.72-2.57-5.22-2.58-5.27-1.46-5.59,2.17-10.59,3.06-11.72.26.02.52.02.79.02.46,0,.94-.03,1.44-.07-1.47,2.19-3.73,6.5-2.87,11.42ZM91.3,100.86c-9.68-4.33-8.75-10.15-8.73-10.25.77-5.01,7.13-7.17,12.78-8.11-4.86,1.44-9.71,3.89-9.99,7.97-.06.52-.46,5.47,5.94,10.39ZM92.14,125.93c1.38,2.83,4.32,6.58,10.53,8.41.19.06,3.27,1.07,6.93,1.07.42,0,.84-.02,1.27-.04-13.13,3.09-19.07-5.68-19.34-6.1l-.04-.05c-5.5-7.1-4.04-23.72-3.52-28.3.82.48,1.73.94,2.75,1.39.28,1.84,1.3,9.33.23,13.62-.78,3.14-.34,6.88,1.18,10.01ZM92.39,102.98c.83.32,1.73.62,2.69.91.46,1.57,2.09,7.62,1,11.36-.85,2.91-1.3,9.02,2.39,13.49,2.74,3.32,7.09,5,12.96,5,.09,0,.18,0,.27,0-4.25.54-8.49-.84-8.56-.86-10.05-2.97-11.89-11.74-10.68-16.58,1.02-4.08.32-10.53-.07-13.32ZM123.13,83.34c-3.04.64-13.16,3.18-14.92,8.9v.05c-.08.29-1.27,5.63,3.04,12.76-1.05-1.06-2.09-2.21-3.04-3.4-2.7-3.38-4.42-6.65-4.71-8.96-.34-2.7,2.85-4.82,5.74-6.11h0c.68-.3,1.43-.58,2.21-.86.44-.15.84-.27,1.18-.36.09-.02.17-.07.25-.12,3.88-1.24,8.21-2.14,10.24-2.53-.02.19-.02.41,0,.64ZM150.65,115.79c-.02.47-.07.93-.17,1.38-2.48-1.06-3.55-2.18-3.64-2.27-8.93-9.81-5.41-16.3-3.94-18.24.49.51,1.01,1.01,1.55,1.48-1.07,2.26-4.02,10.56,6.19,17.65ZM160.76,113.17c.85.46,1.75.91,2.69,1.33h0c0,.12.63,11.65-5.36,17.52l-.05.05s-2.47,2.87-6.86,4.6c-4.73,1.86-9.79,1.79-15.11-.2,1.96.48,3.81.69,5.54.69,9.09,0,14.74-5.63,14.82-5.7,2.48-2.55,3.95-6.61,4.36-12.08.19-2.61.09-4.89,0-6.2ZM165,115.16c.71.28,1.44.54,2.2.79-.1,1.2-.46,4.46-1.47,8.12-1.15,4.19-3.42,9.79-7.68,12.68l-.06.04c-.07.06-5.96,4.73-17.43,2.45,1.25.2,2.43.28,3.55.28,3.09,0,5.68-.65,7.69-1.45,4.53-1.8,7.08-4.64,7.38-4.98,2.69-2.64,4.55-6.72,5.36-11.78.44-2.73.48-5.03.46-6.16ZM159.91,99.19c.36,2.89,2.76,7.74,12.02,14.55-.17.29-.33.6-.48.9-13.4-8.3-17.36-14.56-18.29-18.4-.65-2.67.2-4.07.22-4.11,1.87-2.76,8.23-1.39,11.86-.33,1.5.44,2.96.94,4.28,1.44-3.61-.23-7.73.07-8.92,2.42-.24.33-.94,1.5-.69,3.53ZM172.96,115.56c-.06-.04-.12-.08-.19-.11,2.11-4.2,5.66-7.49,6.93-8.58.89.81,2.71,2.86,1.58,5.47-.16.26-1.04,1.64-2.16,2.89-1.27,1.42-4.74,6.86-4.13,13.1,0,.01,0,.03,0,.04l.07.45c1.53,9.05,5.75,13.03,9.16,14.79-4.54-.25-7.98-1.76-10.27-4.52-5.67-6.82-2.8-19.36-2.08-22.11h.69c.35,0,.65-.23.74-.56.09-.33-.05-.69-.35-.87ZM187.97,112.73c1.81,1.42,3.93,3.45,4.18,5.14v.06c.06.19,1.01,4.62-4.19,6.48-.52.17-8.18,2.79-7.08,10.8,0,.04.04.27.14.64-.57-1.24-.91-2.51-1.01-3.82-.55-6.63,5.07-12.04,5.15-12.12,2.91-3.01,3.02-5.79,2.82-7.18ZM193.66,117.61c-.04-.29-.13-.58-.23-.87.05.02.09.05.14.07.96,2.42,2.54,8.16-.03,9.97l-.09.07c-.08.08-1.93,1.67-6.23-.49.66-.32,1.13-.47,1.21-.49h.04c5.17-1.85,5.66-6.19,5.2-8.26ZM195.46,117.54c.67.2,1.21.3,1.58.36.59,1.79,2.6,8.62-.27,11.45l-.05.05c-.16.19-4.04,4.5-12.19-1.12.37-.38.77-.7,1.15-.98,2.33,1.32,4.17,1.73,5.56,1.73,1.92,0,2.97-.79,3.22-1,3.15-2.26,1.89-7.73,1-10.48ZM198.69,118.01c.13,0,.25,0,.37-.02,1.11,2.08,5.49,11.2-.67,15.4-.29.19-7.05,4.53-15.5-2.71.19-.44.41-.84.65-1.21,3.48,2.42,6.34,3.19,8.57,3.19,3.52,0,5.45-1.91,5.74-2.23,3.24-3.2,1.64-9.81.84-12.43ZM202.97,156.4c.42.07.84.12,1.24.14.62,2.04,2.76,10.05.4,17.49-2.68,8.44-9.21,11.24-9.27,11.26-6.6,2.61-11.61.7-14.27-.93.66.04,1.41.07,2.23.07,5.81,0,15.02-1.43,18.78-9.87.14-.33,3.37-8.01.89-18.16ZM198.97,207.69c.72,2.6,1.04,6.45.28,8.8-.29.9-2,5.32-6.6,4.04l-.09-.02h-.09c-.2-.01-4.83-.15-5.43,3.23v.06c-.02.14-.11,1.39.67,2.33.45.54,1.1.85,1.88.92h.05s.05,0,.05,0c.7-.03,2.08-.46,2.28-1.9.08-.59-.11-1.17-.55-1.68-.32-.37-.74-.66-1.18-.87,2.94.88,2.96,3.22,2.96,3.35,0,.02,0,1.66-1.21,2.87-.91.92-2.28,1.39-4.09,1.4-.32-.09-1.67-.54-2.44-1.87-.1-.17-.18-.34-.25-.52h0s0-.01,0-.01c-.46-1.19-.41-2.71.16-4.54.05-.18,1.39-4.35,7.12-4.15,1.39.05,4.29-.84,5.25-4.46.42-1.57-.34-4.52-.43-4.86l-.03-.09c-3.45-8.64-1.44-15.68-1.41-15.75.65-2.25,1.66-4.08,2.64-5.84.59-1.07,1.16-2.1,1.61-3.16-.59,2.19-1.21,4.97-1.62,8.23-.12.59-1.45,7.52.48,14.51ZM181.19,225.64c.01-.63.09-1.2.21-1.7.34,1.55,1.17,3.11,2.47,4.68.08.18.16.35.26.52,1.22,2.09,3.41,2.58,3.5,2.6l.16.02c.6,0,1.17-.05,1.7-.13-.47.85-.4,1.67-.36,1.95.04,1.4.63,2.12,1.13,2.49,1.3.95,3.14.42,3.34.36l.12-.05c.13-.07,1.31-.73,1.23-2.98v-.09c-.03-.12-.21-1.16-1.24-1.82-.13-.08-.27-.16-.41-.22.51.02,1.45.15,2.08.74.47.44.7,1.06.7,1.9,0,.16-.04,3.84-2.81,3.97-2.44.12-4.65-.47-6.56-1.75-1.44-.96-2.16-1.97-2.19-2.01-2.55-3.35-3.32-6.11-3.35-8.19.04-.08.07-.16.11-.25l-.11-.04ZM192,204.08c-3.08-7.95,3.21-16.31,4.11-17.45.34-.16,1.1-.54,2.07-1.21-.32.64-.67,1.28-1.04,1.94-.97,1.76-2.08,3.75-2.77,6.15-.09.31-2.2,7.58,1.44,16.72.29,1.11.65,3.15.42,4.02-.88,3.32-3.61,3.32-3.71,3.32-6.97-.24-8.63,5.2-8.64,5.24-.25.8-.41,1.55-.48,2.27-.61-1.35-.79-2.67-.53-3.94.8-3.83,5.32-6.23,5.79-6.46.41-.14,2.49-.96,3.58-3.22.96-1.99.88-4.47-.24-7.37ZM190.7,232.71c.96-.25,1.71-.23,2.19.06.4.24.52.63.55.73.02.97-.27,1.36-.39,1.48-.43.11-1.34.22-1.87-.16-.32-.24-.49-.68-.5-1.33l-.02-.15s-.05-.29.04-.63ZM196.1,230.59c-1.02-.73-2.26-.86-2.88-.87,1.51-1.66,1.5-3.72,1.5-3.78.02-.97-.44-2.64-2.02-3.83,1.32.29,2.56.21,3.68-.21.47,1.19,1.22,4.13-.29,8.68ZM197.65,233.91c0-.73-.14-1.38-.4-1.94,2.13-5.65,1.12-9.34.51-10.79.15-.11.3-.22.44-.34.86-.73,1.47-1.62,1.88-2.38.59,3.77,1.36,10.26.33,14.13-.4,1.26-1.94,4.85-3.68,4.93h-.1c.76-1.16,1.02-2.62,1.02-3.61ZM190.25,224.47c.14.16.21.32.19.46-.06.46-.61.55-.77.56-1.09-.12-1.13-1.17-1.1-1.54.02-.11.05-.21.09-.31v.09c.45,0,1.22.3,1.6.74ZM166.04,186.41c.12.02.42.05.83.05,1.33,0,3.87-.35,5.61-2.79.53-.3,2.64-1.36,4.27-.37.38.23.78.45,1.19.65.1.09.28.25.52.46-1.82.35-4.58,1.33-5.73,3.98-1.35,3.12-4.93,2.58-5.07,2.55-4.24-.75-7.77-6.52-8.33-7.47-.03-.27-.06-.54-.1-.8,1.52,1.78,3.79,3.61,6.8,3.76ZM159.73,180.76c1.36,1.11,3.05,2.05,5.1,2.36.68.1,1.32.15,1.92.15,3.66,0,5.93-1.67,6.84-2.5.22.22.45.44.69.65-1.49.24-2.65.97-2.73,1.02l-.13.09-.09.13c-1.83,2.7-4.94,2.25-5.07,2.23h-.09c-2.95-.14-5.14-2.35-6.42-4.12ZM180.23,185.63c.08.05.16.1.25.15-1.13,6.06-7.2,7.34-7.45,7.39-1.86.33-3.26-.12-4.21-.66,1.81-.1,4.2-.91,5.33-3.52,1.36-3.13,6.03-3.26,6.08-3.26v-.09ZM173.12,198.12c-3.25.2-5.87-1.29-7.79-4.42-.57-.93-.99-1.88-1.3-2.69.69.46,1.42.84,2.18,1.11l-.1.08c.09.12,1.99,2.62,5.68,2.62.48,0,.99-.04,1.53-.14.07-.01,6.82-1.41,8.51-7.85-1.28,10.72-8.39,11.27-8.7,11.29ZM183.34,187.12c.32.12.67.23,1.03.33-.97,15.75-11.48,15.56-11.92,15.54-4.55-.3-7.69-2.77-9.34-7.35-.65-1.8-1.04-3.92-1.16-6.12.54,2.14,3.09,10.16,10.6,10.16.21,0,.43,0,.65-.02.09,0,8.65-.59,10.14-12.54ZM160.38,187.61c-.17,7.82,2.89,16.31,11.98,16.91,0,0,.03,0,.08,0,1.06,0,12.31-.4,13.45-16.72.15.03.29.06.45.08-.59,8.13-2.77,13.86-6.49,17.02-3.25,2.76-6.57,2.46-6.6,2.46h-.08c-3.31-.04-6.05-1.2-8.13-3.46-4.26-4.62-4.9-12.72-4.95-16.64.09.12.19.23.28.35ZM163.91,204.94c2.38,2.58,5.48,3.91,9.22,3.96.08,0,.24.02.48.02,1.19,0,4.2-.28,7.2-2.8,3.41-2.88,5.63-7.63,6.63-14.14-.58,7.98-2.75,13.66-6.51,16.9-3.88,3.34-8.13,2.76-8.17,2.75-4.52-.71-7.77-3.28-9.68-7.64-.01-.03-.03-.06-.04-.09.28.37.57.72.87,1.05ZM200.67,173.94c-4.96,11.13-20.67,8.84-22.04,8.62-.34-.16-.66-.34-.98-.53-.07-.05-.14-.09-.21-.13-1.63-1.02-3.04-2.41-4.2-3.84,2.33,1.23,5.72,2.51,9.73,2.51,2.93,0,6.18-.68,9.59-2.57l.05-.03c.13-.09,3.23-2.14,5.58-6.2,1.99-3.44,3.74-8.96,1.5-16.31.55.21,1.08.4,1.6.55,2.7,10.01-.58,17.86-.61,17.93ZM163.82,164.86c-3.17.07-7.05-1.14-9.65-1.95-.93-.29-1.74-.55-2.34-.69-1.31-.31-2.84-.48-4.09-.58,1.38-.58,4.38-.88,7.11-.76,8.32.37,13.06-4.01,13.27-4.21,5.13-5.04,5.94-11.3,5.81-15.37.95.88,2.04,1.62,3.25,2.2l-.25.02c.01.14,1.01,13.81-7.96,18.46-1.12-.35-2.32-.89-3.62-1.67-.25-.15-.57-.15-.82.02-.15.1-.26.26-.31.43h0c-.04.12-.54,1.9-.39,4.12ZM150.89,147.04c5.09,0,8.05-1.46,8.29-1.58,5.64-3.03,8.98-8.1,10.63-11.31.22.8.48,1.57.78,2.29h-.03c-2.16,5.14-4.82,8.17-7.32,9.95h-.05s-.01.02-.02.05c-4.19,2.94-7.93,2.37-8.17,2.33h-.13s-.02-.01-.02-.01c-9,0-15.06-2.88-18.55-5.28,5.86,2.75,10.81,3.56,14.59,3.56ZM136.02,141.63c5.11,1.55,9.33,2.08,12.71,2.08,6.53,0,9.9-1.97,10.35-2.25,5.1-2.6,8.29-8.58,9.93-12.59.05,1.02.15,2,.3,2.93l-.07-.03c-1.1,2.56-4.37,8.88-10.77,12.32-.09.05-8.79,4.3-22.45-2.47ZM164.45,147.39c1.39-1.04,2.59-2.26,3.62-3.56-.56,3.04-2.1,7.6-6.42,9.95l-.06.04s-3.54,2.33-8.27,2.48c-3.67.12-8.27.74-9.31,3.04,0,.01,0,.03-.01.04-.72-1.1-.97-2.03-.72-2.73.81-2.31,6.64-2.93,10.5-3.34l.88-.09c6.75-.74,9.13-4.42,9.8-5.82ZM145.41,159.97c.52-1.16,3.65-2,7.96-2.14,5-.16,8.65-2.46,9.05-2.72,6.87-3.77,7.46-12.13,7.5-13.98.6-.99,1.11-1.98,1.55-2.94.34.59.71,1.14,1.12,1.65l-.3.03c.35,3.59.13,10.4-5.24,15.68-.04.04-4.5,4.12-12.14,3.78-1.94-.08-7.8-.14-9.19,2.01-.36-.55-.46-1.01-.3-1.37ZM178.49,144.05c.15.06.3.11.45.16l-.33.16c.04.09,4.37,9.46,1.08,14.39-.15.23-2.98,4.37-8.56,3.7,3.31-2.29,5.6-6.05,6.68-11.02.71-3.27.71-6.14.67-7.39ZM184.09,162.43c-2.83,4.9-9.5,5.31-9.6,5.32-5.42.52-7.55-3.05-8.35-5.26,2.31,1.14,4.37,1.57,6.15,1.57,5.69,0,8.65-4.4,8.69-4.46,3.15-4.72.49-12.36-.58-14.98.48.11.97.21,1.48.29l-.1.05c3.85,7.59,4.63,13.47,2.31,17.47ZM173.39,169.34c.39,0,.79-.02,1.21-.06.31-.02,7.56-.45,10.82-6.07,2.51-4.32,1.88-10.42-1.85-18.11.37.03.76.05,1.14.06l-.02.02c7.33,8.38,3.84,17.65,3.69,18.04l-.02.04c-1.18,3.64-3.75,6.27-7.64,7.82-2.83,1.13-5.37,1.25-5.62,1.26-3.99-.15-6.8-1.31-8.36-3.45-1.02-1.41-1.35-3.05-1.41-4.46,1.2,2.29,3.55,4.91,8.05,4.91ZM196.75,152.03c-.2.05-.4.1-.61.15h0c-.22.05-.42.2-.52.42-1.07-2.8-2.8-5.83-5.54-8.91l-.27.24c-.02-.06-.05-.12-.09-.17l.12-.25c-.42-.2-.81-.41-1.19-.63,1.02.49,2.14.95,3.37,1.35,2.13,2.29,3.82,5.69,4.74,7.81ZM194.55,144.9c.27.06.54.11.82.16.72.82,2.59,3.12,3.91,6.17-.33.13-.68.25-1.03.37-.74-1.73-2.02-4.4-3.7-6.7ZM189.16,144.99c9.03,10.36,5.99,20.32,5.83,20.81-1.58,3.73-4.1,6.29-7.49,7.62-3.95,1.55-8.47,1.2-12.02.45,1.97-.15,11.48-1.33,14.34-10.1.22-.59,3.51-9.98-3.17-18.6.81-.03,1.64-.09,2.5-.18ZM181.15,176.06c2.29,0,4.67-.33,6.91-1.2,3.8-1.49,6.62-4.35,8.36-8.49l.02-.05c.11-.32,1.89-5.64-.45-12.68.61.36,1.2.68,1.79.97,5.2,14.28-5.28,21.58-5.99,22.05-10.84,5.97-19.72-.97-20.81-1.88-.14-.23-.27-.46-.39-.68,2.27.8,6.27,1.95,10.56,1.95ZM197.6,145.36c.48.04.98.07,1.48.08.48.67,1.69,2.44,2.8,4.51-.38.23-.77.45-1.19.66-.96-2.21-2.17-4.03-3.09-5.25ZM200.84,145.27c1.75-.36,4.81-1.4,6.73-4.44-.15,1.28-.45,2.52-.94,3.68-.75,1.81-1.92,3.33-3.48,4.56-.84-1.56-1.71-2.92-2.31-3.8ZM199.49,143.91c-9.39-.1-15.66-5.96-16.25-6.54-.53-1.05-.74-1.87-.81-2.21,2.21,2.17,6.95,5.4,15.51,5.41.04,0,.13,0,.25,0,1.06,0,4.87-.21,7.28-3.1.86-1.03,1.43-2.28,1.72-3.73.17.88.3,1.76.39,2.63-1.17,7.23-7.83,7.52-8.09,7.53ZM204.3,136.48c-2.25,2.72-6.25,2.55-6.29,2.55h-.04c-6.11,0-10.08-1.79-12.33-3.28-1.84-1.22-2.87-2.46-3.27-3,.02-.15.04-.31.06-.45,3.89,3.14,7.5,4.05,10.37,4.05,3.88,0,6.41-1.65,6.46-1.68,6.84-4.67,2.84-14.09,1.36-17.01.05-.02.1-.04.15-.06.82,1.4,2.9,5.13,4.57,9.67.97,4.11.62,7.21-1.05,9.22ZM186.88,110.06c-.31-.46-.67-.88-1.05-1.28.13.06.2.1.21.1.21.1.43.2.64.29.14.36.28.71.44,1.04-.09-.06-.17-.11-.23-.15ZM186.3,112.32v.04c.06.12,1.09,3.03-2.23,6.46-.25.24-6.21,5.96-5.6,13.33.24,2.94,1.49,5.7,3.73,8.25-2.31-2.12-4.57-5.72-5.61-11.82l-.07-.42c-.51-5.25,2.3-10.29,3.75-11.9,1.33-1.49,2.31-3.09,2.35-3.16.02-.03.03-.06.05-.09.81-1.81.57-3.48-.07-4.83,1.51.96,3.12,2.36,3.7,4.15ZM180.17,105.22c-.12-.18-.26-.47-.19-.7.04-.11.22-.46,1.16-.77.34.98.9,1.89,1.66,2.74-1.17-.68-2.19-1.1-2.63-1.27ZM178.67,105.71c-.26.22-.61.53-1.01.91-1.76-.82-1.41-2.35-1.31-2.7.37-1.4,2.49-2.02,4.38-2.27,0,.2.02.4.05.6-1.27.39-2.04,1.01-2.29,1.83-.19.63-.03,1.21.17,1.63ZM179.69,100.24c-2.75.51-4.37,1.61-4.81,3.24,0,.03-.84,2.76,1.63,4.26-.49.5-1.01,1.07-1.55,1.7-1.93-1.68-4.81-5.55-3.2-8.32,1.46-2.52,6.83-1.96,8.78-1.53,0,0,.57.12,1.28.41-.62.04-1.37.11-2.14.25ZM169.06,124.6l-.17-.05c-.03.12-3.28,11.89-10.54,15.56l-.08.04c-.08.05-8.24,5.19-25.42-1.22,0-.13,0-.26,0-.38,5.5,2.17,10.14,2.92,13.9,2.92,7.67,0,11.73-3.09,12.19-3.46,3.72-2.54,6.51-7.1,8.28-13.56.97-3.52,1.35-6.6,1.48-8.05.53.15,1.07.28,1.62.4-.35,1.35-1.01,4.29-1.27,7.8ZM138.09,130.43c.97,0,1.92-.13,2.85-.4,4.63-1.33,7.48-5.65,8.96-8.69h.01c3.39-3.21,2.38-8.75,1.05-12.67.44.4.91.79,1.41,1.16.16.23,6.23,9.12,1.49,16.5-.23.38-4.48,6.96-12.82,6.96-2.85,0-6.18-.77-9.98-2.83-.42-.95-.87-1.75-1.28-2.32-.19-.27-.41-.61-.65-.99,3.16,2.17,6.16,3.27,8.96,3.27ZM127.13,123.64c-.41-.76-.83-1.56-1.24-2.34.53.34,1.12.69,1.77,1.03,2.79,1.48,5.56,2.24,8.13,2.24.66,0,1.3-.05,1.93-.15,3.81-.61,7.04-3.03,9.61-7.19.56.37,1.27.77,2.15,1.18-.77,2.09-3.56,8.6-8.96,10.15-3.88,1.11-8.38-.54-13.38-4.91ZM133.78,143.55c-.56.38-1.25.91-1.96,1.57.32-.89.56-1.78.73-2.66.33.32.75.69,1.23,1.1ZM132.73,136.72c.65.31,1.29.6,1.92.85-.63-.23-1.26-.47-1.91-.74,0-.04,0-.08-.01-.12ZM155.31,130.38c-.09.09-9.32,9.28-23.19,3.11-.08-.31-.17-.6-.26-.89,3.39,1.59,6.42,2.21,9.09,2.21,9.31,0,14.15-7.55,14.21-7.65,3.74-5.83,1.6-12.26-.1-15.71,1.23.58,2.6,1.03,4.11,1.29.23,2.52.83,12.82-3.87,17.63ZM146.93,100c.1.07.2.13.3.19.89,1.64,2.06,3.44,3.59,5.42.01.02.02.03.04.04.16.17,2.03,2.23,5.27,4.58-5.31-2.31-8.02-7.32-9.19-10.24ZM147.77,104.91l-.08.04c.04.07,2.42,4.52,2.89,8.88-6.9-5.3-6.21-10.98-5.27-13.76.48,1.27,1.27,3.03,2.46,4.83ZM142.15,111.23c-3.85-4.37-5.65-8.43-5.36-12.1.26-3.26,2.19-5.37,3.22-6.28.52.9,1.15,1.79,1.87,2.65-1.34,1.73-4.76,7.41.27,15.73ZM139.82,110.85c-5.33-4.46-7.88-8.68-7.59-12.61.34-4.55,4.56-7.53,6.44-8.64.14.6.34,1.22.62,1.84-1.14.92-3.7,3.41-4.04,7.54-.3,3.69,1.24,7.67,4.57,11.87ZM133.22,88.07c-3.02-2.36-2.96-3.37-2.91-3.55.1-.37.8-.6,1.1-.64l.11-.02c1.46-.42,5.57.2,8.49.75-.83.3-3.8,1.46-6.78,3.47ZM138.61,86.85c-.08.35-.12.72-.13,1.09-1.66.88-7.35,4.3-7.79,10.18-.33,4.46,2.45,9.16,8.27,14.01-11.04-5.82-11.11-12.96-11.11-13.04v-.03s0-.03,0-.03c-.33-6.33,7.01-10.49,10.75-12.19ZM126.32,99.09c0,.71.25,9.2,14.04,15.45,0,0,0,0,0,0-16.22-5.05-18.21-16.92-18.23-17.04v-.04c-.5-2.38.23-4.52,2.16-6.37,1.02-.98,2.13-1.62,2.74-1.93.79.61,1.7,1.21,2.72,1.8-2.4,2.51-3.58,5.27-3.44,8.14ZM120.62,97.75c.12.78,2.19,12.36,17.99,17.84-1.48.77-3.02,1.27-4.6,1.49-20.52-12.32-19.04-22.79-19.02-22.89v-.1c.2-3.68,7.02-5.86,10.26-6.54.17.18.35.36.53.54-2.1,1.22-6.25,4.36-5.17,9.66ZM142.01,115.25c1.19.49,2.47.96,3.86,1.41-2.29,3.61-5.11,5.71-8.39,6.24-6.39,1.03-12.62-4.19-13.15-4.65-.31-.62-.61-1.21-.86-1.72.04.02.07.04.11.05,2.91,1.44,5.77,2.16,8.53,2.16,3.51,0,6.86-1.17,9.91-3.49ZM128.53,129.04c1.94,2.71,4.71,10.58.92,17.59l-.03.06c-.02.06-2.45,5.55-8.39,7.74-4.63,1.7-10.15,1.02-16.4-2.04-.27-.46-.57-.89-.9-1.29,3.63,1.41,6.93,2.12,9.85,2.12,2.24,0,4.26-.41,6.07-1.24,5.03-2.3,6.46-6.99,6.61-7.53,3.67-9.76-3.35-17.91-5.99-20.98-3.35-3.89-5.66-7.02-6.19-8.36-.4-1.02-.91-3.43-1.19-4.82.78.09,1.6.16,2.45.21.66.7,2.74,2.77,5.74,4.67.75,1.54,5.4,10.99,7.46,13.87ZM103.47,193.25c.38,1.86,1.79,3.01,3.61,3.01.09,0,.18,0,.27,0,3.25-.2,4.24-3.04,4.37-5.03.21.01.42.02.62.02.36,0,.71-.02,1.06-.06.09,2.4-.49,4.23-1.74,5.42-2,1.92-5.16,1.68-5.58,1.64-5.48-1.51-4.9-6.11-4.87-6.3v-.04c.33-3.46,2.07-6.17,5.16-8.07,1.65-1.01,3.27-1.51,4.11-1.72.11.3.2.61.28.95.27,1.3-1.65,2.94-3.52,4.09-3.08,1.13-4.23,3.91-3.78,6.09ZM110.19,191.03c-.06,1.09-.45,3.54-2.92,3.69-1.75.11-2.19-1.34-2.28-1.78-.22-1.08.15-2.39,1.19-3.35,1.43.74,2.77,1.2,4.02,1.44ZM99.81,193.84c-.77-1.44-1.16-2.9-1.17-2.92-1.32-5.22,5.82-9.74,5.89-9.79l.09-.06.07-.08c1.01-1.1,1.58-2.44,1.88-3.79.84,1.27,1.78,1.95,1.96,2.07.08.06.69.54,1.27,1.44-2.62.74-9.37,3.39-10.1,11.04-.02.18-.09,1.01.11,2.08ZM98.33,177.04c2.34-1.59,2.76-4.35,2.8-5.88.41.1.81.18,1.2.24.11,1.15.17,3.91-1.46,5.94-.76.95-1.67,1.61-2.55,2.24-1.73,1.25-3.52,2.55-3.82,5.75-.03.2-.48,3.7,1.44,7.3-1.47-1.54-1.89-2.95-1.92-3.05l-.02-.06c-2.31-6.35,2.83-11.46,4.33-12.48ZM96.14,176.89c.2-.71.37-1.45.53-2.22,1.38-1.64,2.27-3.19,2.71-4.03.07.02.14.05.21.07.02,1.08-.15,3.71-2.12,5.05-.32.22-.79.6-1.32,1.13ZM103.89,171.55c.13,0,.26,0,.39,0,.27,0,.53-.01.78-.03.04.22.09.5.13.83,0,.6.04,1.15.13,1.67.05,1.88-.25,4.23-1.7,5.87-.95.62-7.99,5.4-6.47,11.42.01.04.09.32.22.74-1.76-3.19-1.38-6.33-1.35-6.53.24-2.54,1.55-3.49,3.2-4.68.92-.67,1.96-1.42,2.85-2.53,1.85-2.3,1.92-5.25,1.82-6.75ZM97.89,196.02c.1.32.29.85.61,1.48-2.38-1.43-6.07-4.18-5.92-7.31,0,0,.01,0,.02,0,.28.81,1.5,3.74,5.3,5.84ZM112.28,182.75c-.66-3.12-2.77-4.67-2.89-4.75-.1-.06-2.01-1.36-2.53-4.11-.03-1.08-.17-2.01-.28-2.6.77-.19,1.5-.47,2.18-.85.04-.02.07-.05.11-.07.45,1.84,1.58,5.39,3.88,6.98,1.17.81,2.03,2.19,2.25,3.62.14.88.09,2.21-.92,3.51-1.12,1.45-2.74,2.37-4.41,2.88,1.55-1.21,2.99-2.85,2.61-4.61ZM108.01,169.1c-2.76,1.54-6.49,1.14-11.12-1.17,4.44.44,7.78-.43,9.97-2.58,2.93-2.89,2.91-7.25,2.68-9.38,1.33.38,2.63.64,3.89.79-.05,1.46-.53,9.61-5.42,12.35ZM85.77,161.05c-2.59-2.61-6.59-2.55-6.78-2.54-4.94.21-9.3-3.2-11.88-5.79,1.83.66,5.43,1.72,9.6,1.72,1.94,0,4.01-.24,6.08-.84.69.31,3.09,1.46,5.27,3.45,2.1,1.91,3.4,4.01,3.89,6.26-.77.38-1.31.58-1.33.59-.33.12-.53.45-.5.79.03.35.29.63.64.69.49.08.95.14,1.41.19-.01.63-.08,1.27-.21,1.92-.01.04-1.14,4.33-4.7,5.68-2.08.78-4.59.46-7.51-.97,2.56.09,4.59-.42,6.04-1.54,1.94-1.5,2.06-3.54,2.07-3.64.08-2.49-.62-4.5-2.08-5.97ZM59.3,161.78c2.07,3.15,5.72,5,8.69,6.05-1.03-.18-1.66-.37-1.68-.37-11.04-3.12-10.7-12.89-10.56-14.56.52-.52,1.02-1.08,1.52-1.68-.91,6.98,1.56,10.07,2.02,10.57ZM65.88,168.93s1.02.3,2.59.53h.04c.21.04.42.07.62.11-6.88-.61-11.22-4.43-11.55-4.73-4.25-4.75-4.13-8.93-4.02-9.99.21-.17.43-.34.64-.53.14,3.68,1.62,11.76,11.67,14.6ZM68.69,166.42c-2.79-.96-6.27-2.67-8.13-5.54l-.1-.12s-3.28-3.5-1.04-12.51c.14-.22.27-.44.41-.67-.15,2.33-.3,10.18,3.82,14.11.09.08,2.13,1.98,5.83,2.93,1.17.3,2.59.53,4.23.53,2.97,0,6.67-.74,10.92-3.08.02.02.05.04.07.07.35.35.64.76.88,1.2-7.21,5.07-16.13,3.26-16.87,3.09ZM68.61,161.22c.29.21,2.21,1.48,5.44,1.48,2.08,0,4.7-.53,7.77-2.22.46.14.93.33,1.4.58-11.41,5.92-18.24-.23-18.53-.49-3.03-2.9-3.41-8.56-3.38-11.54.66.7,1.38,1.32,2.17,1.87.07.1.19.26.36.47-.06,1.4.03,6.91,4.77,9.85ZM65.48,153.26c.66.7,1.47,1.49,2.41,2.28,3.68,3.11,7.55,4.67,11.16,4.51,0,0,.06,0,.14,0-6.02,2.5-9.53.03-9.69-.08l-.06-.04c-2.83-1.75-3.71-4.69-3.97-6.67ZM64.48,108.42c.06.89,1.06,9.89,16.25,13.35-1.42-.08-2.72-.26-3.92-.52h0c-.23-.06-.45-.11-.67-.15-11.05-2.72-12.99-12.14-13.08-12.6-1.06-6.67,2.66-10.76,4.98-12.6-1.95,2.36-4.57,6.76-3.55,12.52ZM76.48,122.75h0c1.45.3,2.89.48,4.25.56.29.49.86,1.46,1.48,2.47-2.12.61-3,.67-4.69.23-.94-.35-1.69-.81-2.28-1.31-.14-.33-.26-.52-.3-.58l-.18.13c-.76-.78-1.21-1.61-1.46-2.26,1,.27,2.06.52,3.18.76ZM98.83,156.98c-.02-.2-.52-4.75-8.33-7.87.32-.31.64-.63.96-.98.1-.11.16-.25.19-.39,2.57,1.43,5.77,3.43,7.46,5.33.02.03,2.26,2.56,1.4,5.19-.46,1.4-1.73,2.63-3.76,3.64,1.35-1.31,2.34-2.96,2.09-4.93ZM97.3,157.14c.13,1.05-.26,2.01-.9,2.85-.7-2.55-2.39-4.92-4.97-6.92-1.21-.94-2.39-1.63-3.24-2.07.33-.23.67-.48.99-.75,7.56,2.75,8.1,6.82,8.11,6.88ZM101.97,158.74c1.13-3.47-1.6-6.57-1.71-6.7-3.3-3.71-11.48-7.54-11.82-7.7l-.13-.05c-.42-.11-9.87-2.76-11.46-16.35.35,1.16,1.05,3.18,2.18,5.41,2.31,4.55,5.35,7.74,8.76,9.23.08.04,7.8,3.77,10.35,5.65.14.11.3.22.46.34,3.85,2.78,7.69,6.21,4.5,11.66-.09.17-1.95,3.53-7.63,3.9,3.59-1.32,5.78-3.13,6.52-5.39ZM75.69,130.55c2.44,11.98,11.2,14.94,12.14,15.22.02,0,.04.02.07.03-.39-.06-.78-.13-1.15-.21-9.77-3.48-11.02-11.43-11.06-15.05ZM79.07,142.65c-.85-.6-1.56-1.27-2.13-2.01-.88-1.15-1.44-2.5-1.67-4.06.72,2.02,1.9,4.16,3.8,6.07ZM95.11,161.31c-.57.47-1.19.89-1.78,1.24-1.34-5.09-6.03-8.28-8.54-9.67.63-.26,1.25-.57,1.87-.91,1.46.66,7.53,3.74,8.46,9.34ZM84.9,175.12c1.03,0,2-.17,2.91-.52,4.32-1.64,5.59-6.53,5.65-6.77,0-.02,0-.04,0-.05.68.42,1.35.8,2,1.14-1.43,5.26-4.65,6.23-4.78,6.27l-.08.03c-5.03,1.95-8.63.45-10.89-1.34,1.86.83,3.59,1.24,5.18,1.24ZM93.69,165.85c0-.05,0-.11,0-.16.25,0,.49.02.73.02,7.3,0,9.8-4.34,10.01-4.75,1.43-2.45,1.6-4.59,1.1-6.44.8.35,1.6.66,2.38.93.21,1.41.66,6.04-2.15,8.8-2.34,2.3-6.4,2.83-12.08,1.6ZM119.09,124.48c2.48,2.89,9.08,10.55,5.71,19.47l-.03.08s-1.23,4.5-5.79,6.57c-4.59,2.09-10.9,1.17-18.73-2.72-.27-.2-.53-.39-.76-.56-.16-.12-.31-.23-.45-.33-2.66-1.96-10.27-5.64-10.62-5.8-6.08-2.65-9.07-10.44-10.02-13.43.36.05.7.08,1.04.08.28,0,.55-.02.83-.05.77,2.4,3.33,9.17,8.13,11.12,6.52,2.65,12.58,5.67,16.23,8.1.2.12,4.24,2.55,8.51,2.55.83,0,1.67-.09,2.49-.31,2.23-.59,3.98-2,5.2-4.21,4.93-8.88-3.14-17.48-7.58-20.05-4.87-2.81-4.61-7.29-4.48-9.48.09-1.53-.39-4.44-.69-6.11.94.24,2,.47,3.18.66.24,1.25.87,4.31,1.37,5.6.81,2.08,4.39,6.41,6.46,8.81ZM110.56,84.41c-3.07,1.08-9.16,3.84-8.58,8.48.55,4.42,4.99,10.28,9.2,14.24-4.2-2.03-10.13-5.84-13.13-12.12-.05-.1-1.18-2.53.2-5.1,1.54-2.86,5.7-4.86,12.03-5.78.14.07.28.15.41.22-.04.02-.09.03-.13.05ZM96.89,89.21c-1.74,3.27-.28,6.34-.22,6.47,3.08,6.45,8.88,10.39,13.24,12.57-3.62-.76-5.75-1.82-5.77-1.83-13.89-7.55-11.57-15.1-11.47-15.41l.04-.16c.52-4.27,7.9-6.45,12.83-7.3-4.37,1.2-7.27,3.1-8.64,5.67ZM102.81,127.29c1.47,2.12,3.56,3.74,6.16,4.79-4.15-.4-7.27-1.84-9.32-4.32-3.28-3.98-2.86-9.47-2.1-12.08,1.05-3.61-.09-8.85-.74-11.3.36.09.72.19,1.09.28.46.2.94.4,1.44.6.11.08.22.15.33.23.38,1.23,2.03,6.99,1.05,11.12-.63,2.63-.46,7.01,2.09,10.68ZM95.55,136.76c-2.32-.96-4.62-2.59-6.75-4.75-3.42-4.2-5.38-11.64-5.66-21.54-.17-5.76.28-10.83.52-12.98.74.83,1.68,1.67,2.88,2.5-.19,1.48-.72,6.12-.68,11.43.07,8.71,1.55,15,4.4,18.7.23.34,2.23,3.21,6.25,5.28,2.98,1.54,6.05,2.12,8.98,2.12,3.73,0,7.23-.93,10.04-2.02.03.04.06.08.08.12-8.49,6.09-19.93,1.18-20.06,1.12ZM116.46,136.93c.5.87.91,1.79,1.04,2.67.05.31.34,3.01-3.99,3.74-3.32.56-6.47-1.19-9.81-3.04-.08-.05-.17-.09-.25-.14.64.05,1.28.08,1.91.08,4.24,0,8.02-1.13,11.1-3.31ZM83.72,125.29c-.42-.69-.83-1.37-1.16-1.92.02,0,.04,0,.06,0,.19,0,.38,0,.57,0,.17.66.34,1.31.53,1.93ZM83.06,127.14c.17.27.33.52.49.76,2.28,3.48,6.11,8.09,11.4,10.27.08.04,1.32.57,3.27,1.09,1.61.64,3.2,1.52,4.74,2.38,2.96,1.64,6.01,3.34,9.28,3.34.51,0,1.02-.04,1.53-.13,2.08-.35,3.58-1.16,4.47-2.41,1.05-1.48.8-3.03.79-3.08-.52-3.46-4.28-7.18-4.44-7.34l-.04.04h0c-.15,0-.29.01-.44.02l.03-.28c-4.58-.56-7.96-2.38-10.05-5.39-2.26-3.26-2.41-7.12-1.86-9.44.83-3.46.03-7.75-.59-10.22.57.34,1.16.68,1.79,1.03.09.05,1.15.57,3,1.16.25,1.27.91,4.88.81,6.53-.12,2.07-.44,7.58,5.25,10.87,2.55,1.47,11.82,9.3,7.01,17.96-1.01,1.82-2.44,2.99-4.24,3.46-4.42,1.17-9.76-2.03-9.79-2.05-5.35-3.55-13.31-6.94-16.48-8.23-4.05-1.64-6.4-7.64-7.18-9.99.39-.1.81-.22,1.27-.35ZM68.35,107.93c.02.11.63,2.79,2.8,5.77,1.39,1.91,3.64,4.19,7.1,5.82-11.67-3.65-12.21-10.88-12.23-11.22v-.1c-1.22-6.75,3.31-11.57,4.55-12.75.19.06.39.11.6.16-1.45,2.02-4.24,6.84-2.81,12.33ZM61.53,108.76c.03.16.75,3.87,3.86,7.55.59.7,1.21,1.33,1.86,1.9-9.47-4.36-9.59-10.07-9.59-10.14v-.07s-.01-.07-.01-.07c-1.33-7.52,7.09-13.41,9.56-14.96.22.34.49.69.83,1.03-2.3,1.61-7.84,6.42-6.51,14.77ZM66.55,91.56c-1.05.64-3.33,2.15-5.52,4.34-3.91,3.92-5.61,8.14-4.91,12.23.02.96.66,8.82,15.43,13.36,0,.02.01.04.02.06-4.93-1.07-11.07-3.26-14.97-7.77-2.55-2.95-2.95-5.53-2.95-5.58-1.64-9.83,9.65-15.28,12.92-16.64ZM52.1,104.26c-3.22-2.66-2.18-6.63-2.13-6.83,1.44-5.52,12.82-8.07,16.69-8.79-.1.41-.18.84-.22,1.3-1.21.47-4.49,1.86-7.65,4.28-3.84,2.94-6.09,6.36-6.69,10.04ZM66.74,121.84c.65.73,3.73,4.52,3.07,9.91-.43,3.5.37,8.47,3.82,12.11-.33-.24-.64-.49-.93-.75-3.61-3.29-4.09-8.1-4.09-12.37s-1.4-7.26-2.77-9.21c.3.11.6.21.91.31ZM71.34,131.95c.51-4.18-.92-7.44-2.14-9.37.94.25,1.93.47,2.98.68.37.75.93,1.58,1.75,2.35.17.55.36,1.51.32,2.98-.02.16-.05.53-.07,1.04-.05.53-.13,1.11-.25,1.75-.79,4.28-.2,7.61,1.78,10.2,2.05,2.68,5.51,4.49,10.51,5.49-.62,0-1.22-.02-1.81-.05-3.98-.35-7.15-1.68-9.44-3.97-3.28-3.27-4.02-7.88-3.63-11.1ZM49.79,123.35c-2.39-2.83-6.27-4.18-8.34-4.72,1.38-1.47,2.3-2.67,2.41-2.82,0,0,0,0,0,0h0s0,0,0,0c.18-.24.21-.58.06-.84-.02-.04-.05-.07-.08-.1.03.02.05.04.08.06.1.07,9.81,6.82,12.21,12.76.53,1.66.63,2.77.65,3.03-.09.62-.58,4.37.14,8.72.03.21.08.41.12.61l-.13-.08c-2.14,3.35-4.58,5.91-7,7.85-1.14.64-2.28,1.15-3.38,1.55,4.83-3.04,6.47-7.9,7.33-12.59,1.39-7.54-3.63-12.95-4.07-13.4ZM50.54,118.25c-2.88-2.61-5.52-4.44-5.72-4.58-2.65-1.97-.86-7.21-.85-7.22.04-.09.07-.18.1-.27.35,1.35,1.91,6.42,6.47,12.08ZM37.13,110.37c.38,1.69,1.47,3.14,3.24,4.32-5.66-.15-6.46-2.97-6.49-3.09,0-.02-.01-.04-.02-.06-.84-2.65,1.18-5.27,2.21-6.38.19-.18.95-.83,2.53-1.04-.91,1.42-2.02,3.78-1.46,6.26ZM48.63,124.36l.04.04c.05.05,4.95,5.14,3.67,12.07-1.15,6.25-3.41,10.96-9.9,13.13,7.45-4.8,7.54-13.45,7.54-13.81.11-3.12-1.14-6.25-3.63-9.05-1.85-2.08-3.72-3.24-3.81-3.3-1.74-1.04-3.28-1.47-4.56-1.6.78-.62,1.52-1.28,2.2-1.94,1.34.29,5.94,1.48,8.44,4.45ZM41.75,124.76c.07.04,6.93,4.37,6.7,11,0,.09-.09,9-7.89,13.17-.29.11-2.12.73-4.39.9,7.54-3.29,9.79-9.65,9.27-14.6-.55-5.29-4.77-9.18-8.36-9.76-1.47-.24-2.06-1.04-2.3-1.6.14-.07.29-.14.43-.21.81-.31,3.2-.9,6.54,1.09ZM36.84,127c3.05.49,6.62,3.98,7.07,8.4.63,6.11-3.01,10.24-7.41,12.53,2.35-2.39,4.87-6.22,4.38-11.46,0-.04,0-.07-.02-.11-.05-.19-1.17-4.6-5.66-6.08l-.8-.26c-3.64-1.19-4.87-1.68-4.85-3.53l.11-.16c.57-.28,2.33-1.15,3.72-1.81.45,1,1.48,2.16,3.46,2.48ZM33.92,131.47l.8.26c3.47,1.14,4.5,4.47,4.63,4.93.48,5.37-2.63,9.11-4.93,11.11,1.24-3.13,1.48-5.91.71-8.3-.1-.53-.3-.98-.58-1.36-1.58-2.99-4.43-4.05-4.58-4.1-2.65-.86-4.3-2.07-4.92-3.61-.48-1.19-.2-2.32,0-2.89.92-.03,1.92-.13,3.01-.34.32,2.48,2.59,3.23,5.87,4.3ZM33.95,141.27c.06.42.08.86.07,1.3-1.9,4.54-6.01,4.85-6.18,4.87h-.11c-4.32.88-6.4-2.27-7.29-4.41,2.61,1.23,7.73,2.56,13.52-1.76ZM26.29,149.15c.53,0,1.09-.05,1.68-.17.45-.04,3.06-.34,5.28-2.53-.37,1.06-.86,2.17-1.49,3.34-.16.3-.11.67.13.91.04.04.09.07.14.1l-.11.27c.21.08,3,1.16,7.11,1.16,1.36,0,2.86-.12,4.45-.43-3.6,1.67-6.25,2.05-6.32,2.06-7.66,1.25-11.44-2.51-13.07-5.04.66.21,1.39.33,2.19.33ZM34.28,155.64c.97,0,2.01-.08,3.13-.26.5-.06,11.91-1.66,20.06-13.48.4,1.44.92,2.76,1.56,3.95-3.73,6.88-9.28,11.02-16.52,12.28-5.54.97-10.04-.19-10.05-.19-4.42-1.38-6.8-4.06-8.07-6.36,1.95,2.06,5.09,4.07,9.9,4.07ZM76.6,170.28c-.5-.63-1.15-1.28-2.01-1.86,3.38-.14,7.63-.96,11.53-3.6.15.65.22,1.37.19,2.14,0,.06-.11,1.45-1.5,2.51-1.65,1.26-4.49,1.54-8.22.81ZM86.08,177.67c1.52,0,3.21-.29,5.05-1,.48-.15,4.1-1.42,5.74-7.05.36.17.71.33,1.05.47-.69,1.29-2.39,4.06-5.13,6.21-3.29,2.57-10.59,1.72-13.53-.72-.01-.06-.03-.13-.05-.2,1.7,1.24,3.99,2.29,6.87,2.29ZM88.66,181.84c.72-1.03.82-2.02.79-2.62,1.64-.26,3.15-.81,4.3-1.71.28-.22.55-.44.81-.67-1.21,4.11-3.19,6.83-5.89,8.11-2.49,1.18-5.19.91-7.16.4,3.56-.61,5.96-1.79,7.16-3.51ZM84.71,187.33c1.47,0,3.05-.26,4.59-.99.99-.47,1.9-1.1,2.72-1.89-.22,1.32-.22,2.75.13,4.25-3.13.99-5.72.74-7.75.02-.02-.02-.03-.04-.04-.04l-.02.02c-1.34-.49-2.43-1.18-3.28-1.86,1.06.28,2.31.49,3.65.49ZM85.56,190.62c.45.1.91.17,1.4.22-.68,2.29-1.75,7.83,2.65,11.08.23.17.44.33.65.49-2.13-.62-3.62-1.67-4.46-3.14-1.36-2.38-.62-5.2-.22-6.09.4-.89.27-1.8-.02-2.57ZM94.26,211.31c.14.01.27.02.4.02,1.75,0,2.9-1.23,3.04-1.37.16-.17,1.11-1.28.95-3.04-.19-2-1.72-4.01-4.54-5.97-5.05-3.5-3.54-9.14-3.15-10.34.02,0,.05,0,.07-.01.21,5.12,7.68,8.85,8.66,9.32,4.18,3.51,2.8,7.83,2.68,8.17-2.27,5.33-6.77,4.5-6.97,4.46-1.1-.21-1.97-.88-2.65-1.71.49.26,1,.42,1.51.48ZM99.94,196.96c.21.08.42.15.65.23l1.15.38c.9.9,2.19,1.7,4.02,2.19l.1.02s.42.05.98.05c1.4,0,3.99-.28,5.9-2.09,1.62-1.55,2.37-3.84,2.22-6.82.54-.14,1.05-.31,1.53-.52.14,4.78-.92,8.16-3.17,10.04-2.93,2.45-6.99,1.49-7.03,1.48-3.64-.86-5.47-3.29-6.33-4.95ZM109.02,189.13c2.01-.43,4.52-1.42,6.28-3.7,1.06-1.38,1.49-3,1.23-4.69-.28-1.83-1.4-3.61-2.9-4.65-2.14-1.48-3.12-5.39-3.39-6.69,1.36-1.18,2.32-2.72,3.02-4.33,1.02,2.28,2.85,6.07,4.34,7.4.24.22,5.85,5.53,3.34,12.16-.41.69-4.44,6.97-11.91,4.51ZM115.99,167.23c-.82-1.61-1.56-3.28-1.98-4.29.78-2.68.93-5.16.96-6.07.26.01.52.02.77.02s.5,0,.74-.02c0,1.73.35,7.06,4,10.07,1.39,1.14,3.09,1.8,5.07,1.99-6.39,1.67-9.18-1.25-9.57-1.7ZM121.46,165.76c-3.21-2.64-3.44-7.66-3.44-9.01.72-.09,1.42-.23,2.11-.41-.06,3.54.88,6.39,2.8,8.5,1.15,1.26,2.5,2.08,3.76,2.61-2.11,0-3.86-.57-5.22-1.69ZM124.06,163.79c-1.74-1.91-2.54-4.58-2.38-7.96,1.24-.47,2.34-1.06,3.3-1.71.08,3.96,1.27,6.98,3.54,9,2.1,1.87,4.71,2.49,6.74,2.66-2.01.75-4.06,1.05-4.41,1.1-.49-.02-4.26-.3-6.8-3.09ZM129.55,161.96c-2.14-1.9-3.15-4.94-3.02-9.03.59-.51,1.1-1.03,1.56-1.53-.14.78-.19,1.57-.12,2.37.01.14.31,3.48,3.48,6.17,1.46,1.24,3.27,2.12,5.41,2.65.17.37.49.97.98,1.65-1.41.13-5.46.24-8.29-2.27ZM129.51,153.64c-.2-2.46.77-4.79,2.88-6.94,1-1.01,2.03-1.74,2.68-2.16.58.42,1.24.85,1.97,1.28-5.02,2.76-5.63,6.41-5.68,6.86-.31,1.72.06,3.3,1.1,4.7,1.34,1.82,3.65,3.08,5.94,3.95-8.22-1.43-8.85-7.39-8.88-7.69ZM133.69,156.47c-.79-1.07-1.06-2.22-.82-3.53v-.06c.03-.15.48-3.65,5.8-6.15,1.37.69,2.94,1.36,4.73,1.92-2.86.9-6.72,2.74-6.86,6.13-.11.53-.38,2.8,2.24,5.07-2.01-.77-3.97-1.86-5.09-3.37ZM138.04,155.08l.03-.09v-.1c.08-3.3,5.96-5.01,8.43-5.43,2.45.52,5.21.85,8.32.85.16.02.57.07,1.16.07,1.08,0,2.77-.17,4.74-.92-1.32.98-3.31,1.9-6.23,2.22l-.87.09c-4.75.5-10.66,1.13-11.79,4.36-.45,1.28-.08,2.74,1.13,4.43-5.58-2.44-4.91-5.47-4.9-5.49ZM142.2,163.19c.9,0,1.85-.04,2.83-.13v-.05c.18.03.3.04.34.05l.09-.43v.43c.65,0,3.76.13,6.02.66.54.13,1.33.37,2.23.66,2.62.82,6.49,2.03,9.85,2.03.16,0,.32,0,.48-.01.16.77.42,1.55.81,2.31-2.35.18-4.44-.27-7.76-1.22-3.34-.97-5.89-.75-6.73-.63h0s-.22.04-.22.04c-.03,0-.05,0-.06.01h0c-6.82,1.24-9.99-2.01-11.23-3.93,1.06.15,2.19.22,3.38.22ZM156.65,168.96c2.98.86,5.04,1.33,7.16,1.33.64,0,1.29-.05,1.97-.13.57.7,1.24,1.3,2.03,1.8.26.62,1.01,2.34,2.26,4.34-6.4,1.59-14.45-4.68-15.55-5.58-.81-1.03-1.59-1.83-2.24-2.42,1.11.02,2.62.16,4.37.67ZM159.44,175.72c3.1,1.58,5.92,2.38,8.43,2.38,1.1,0,2.13-.16,3.1-.46.47.67.99,1.34,1.57,2-.84.77-3.3,2.58-7.48,1.96-4.48-.67-7.16-5.09-7.82-6.32-.17-.39-.35-.76-.53-1.12.81.51,1.73,1.05,2.73,1.56ZM164.81,215.62c-.48.85-1.64,2.48-4.04,3.8-1.72.95-4.22.95-5.84,0-.2-.11-4.87-2.54-9.13.84-.13.11-3.11,2.7-3.47,6.22-.73-1.05-1.38-2.76-.5-5.1,1.51-3.97,6.26-4.49,6.74-4.53,8.27.5,12.17-2.05,13.56-3.3.81.8,1.7,1.49,2.67,2.07ZM154.2,231.16c1.52-1.75,4.11-2.03,5.15-2.07,3.02-.12,4.72-1.36,5.03-1.61,4.33-2.84,6.32-8.17,6.83-9.77.22.03.43.05.65.07.05,0,.35.04.85.04,1.09,0,3.11-.16,5.36-1.08-.69,2.64-2.45,8-5.86,10.46-.4.23-4.92,2.82-7.86,3.04-.88.06-1.67-.08-2.5-.24-2.1-.4-4.28-.81-7.46,2.28l-.05.05c-.06.06-.97,1.15-1.38,2.66,0-1.57.4-2.85,1.23-3.81ZM182.14,233.38c.22.35.47.71.74,1.08-.92.79-2.16,2.04-3.09,3.67-.82.72-1.66,1.12-2.44,1.32,2.01-1.32,3.46-3.57,4.8-6.07ZM203.37,241.05c-3.36,5.62-7.67,4.36-7.84,4.31l-.09-.02c-3.45-.68-4.17-4.29-4.32-6,.5.06,1.03.09,1.58.09.04,0,.09,0,.13,0,.75,2.83,2.95,3.59,4.24,3.59.07,0,.14,0,.2,0,5.08-.17,7.2-6.48,7.62-7.94,0,3.39-1.5,5.95-1.52,5.98ZM203.5,234.31l-.03.09c-.02.07-1.78,6.92-6.28,7.07-.09,0-2.08.1-2.82-2.23.34-.1.65-.24.93-.41.4.19.82.24,1.12.24.18,0,.33-.02.41-.03,3.09-.19,4.84-5.41,5.04-6.04,1.53-5.78-.52-16.31-.8-17.69.37-2.6,0-5.81-.63-8.04-1.87-6.78-.47-13.75-.45-13.81v-.06c.95-7.47,3.01-12.45,3.32-13.18.42-.62.83-1.3,1.22-2.03.05,1.21.15,2.36.31,3.43-.27,1.31-2.21,10.81-2.48,17.26-.2,4.75.41,9.9.81,13.31.17,1.44.32,2.68.3,3.12-.02.4.06,1.2.22,2.71.18,1.8.46,4.47.58,7.21,0,.09,0,.18.01.27.13,3.35.02,6.77-.77,8.82ZM203.9,198.94c.18-4.31,1.13-10.06,1.8-13.68.2.6.43,1.16.68,1.7-.31,1.28-1.53,6.63-1.53,10.16,0,1.7-.4,4.06-.94,6.24-.06-1.47-.08-2.96-.02-4.41ZM209.6,155.08c2.63-1.86,4.02-5.15,4.75-8.22.17.58.35,1.12.54,1.61-1.27,1.85-7.31,11.5-5.92,25.58.03.28.88,6.76,4.8,7.23.15.03.53.1,1.06.1,1.16,0,3.07-.33,5.07-2.08-2.81,4.64-5.49,4.87-5.53,4.88h-.07c-1.08.13-2.02-.16-2.88-.87-3.46-2.88-4.13-11.31-4.17-11.79,0-.48-.01-8.7,2.36-16.44ZM206.73,160.48c-.3-1.74-.66-3.12-.92-3.98.67-.07,1.3-.22,1.91-.44-.41,1.5-.73,2.99-.99,4.42ZM217.97,140.05c-1.14-7.13-5.15-13.02-5.83-13.98-.47-1.18-.97-2.28-1.48-3.3,2.96,3.42,6.97,9.81,9.17,20.84v.04c.43,1.63.4,3.42-.07,3.55-.02,0-.55.14-1.28-.33-.55-.35-1.22-1.05-1.85-2.38.05,0,.11.01.16.01.16,0,.32-.03.48-.1.63-.28,1.26-1.26.7-4.35ZM216.45,140.31c.17.94.23,1.98.15,2.5-.19-.15-.5-.45-.95-1.04-.19-.71-.37-1.51-.54-2.41h0c-.16-2.27-.47-4.38-.89-6.35.93,2.12,1.8,4.63,2.22,7.29ZM214.31,177.37l.03.03s1.14.77,2.84.77c.63,0,1.33-.1,2.09-.39-2.63,2.58-5.03,2.05-5.18,2.01l-.12-.02c-2.29-.24-3.29-4.34-3.48-5.88-1.18-11.98,3.37-20.8,5.16-23.74.3.56.62,1.05.95,1.48-.74,1.33-2.85,5.29-4.29,9.86-2.36,7.52-1.67,13.01,2,15.88ZM215.24,176.14c-6.64-5.24.46-19.59,2.46-23.31.47.42.93.74,1.36.97-1.5,2.75-8.24,15.87-2.74,20.51l.09.07s.93.56,2.21.56c.43,0,.9-.06,1.4-.21.76-.24,1.48-.66,2.15-1.27-.04.08-.07.15-.11.23-3.57,4.42-6.59,2.61-6.84,2.45ZM221.2,152.92c-.57-.05-3.85-.62-5.49-6.89.13.22.27.43.41.63.27.97,1.78,5.83,4.8,5.83.22,0,.45-.03.69-.08l.07-.02c.09-.03.34-.13.65-.4-.25.44-.61.79-1.13.93ZM203.28,115c2.53,2.57,9.44,10.78,10.34,24.82,0,.11.15,11.08-5.37,14.31-2.18,1.27-5.02,1.18-8.47-.28,3.85-.18,9.66-1.53,11.46-7.79,2.74-9.53.28-19.12-7.97-31.03,0,0,0-.01,0-.02ZM202.39,116.46c7.65,11.24,9.92,20.27,7.37,29.16-.99,3.44-3.49,5.58-7.44,6.38-.49.1-.97.17-1.44.22,3.45-1.58,5.86-3.96,7.18-7.13,1.97-4.75,1.5-11.07-1.42-18.8-1.71-4.53-3.74-8.15-4.56-9.52.11-.1.21-.2.31-.31ZM196.88,106.89c.16-.53.22-1.03.19-1.49,2.05,1.33,5.22,4.05,4.99,8.1,0,.01-.08,1.34-1.08,2.19-.75.65-1.86.89-3.33.73-.26-.02-5.97-.53-8.98-6.49.28.08.55.16.82.22,1.92,2.93,4,4.62,6.19,5,.32.06.63.08.92.08,1.63,0,2.66-.77,2.71-.81l.11-.1c.65-.72.92-1.59.79-2.5-.28-2.01-2.4-3.78-3.47-4.56.09-.21.13-.35.13-.37ZM195.95,108.58c1.03.77,2.57,2.18,2.75,3.45.06.44-.05.83-.36,1.2-.22.14-1.11.63-2.38.4-1.45-.26-2.95-1.36-4.37-3.21.03,0,.06,0,.08,0,.95,0,1.81-.18,2.57-.53.76-.35,1.31-.84,1.71-1.31ZM194.63,103.7c.59.58,1.16,1.5.77,2.77-.02.06-.39,1.38-1.84,2.04-1.6.73-3.97.38-6.88-1.02-.01,0-1.25-.56-2.4-1.68-1.3-1.27-1.97-2.71-2-4.29.2,0,.39-.01.56-.01.25.93.87,1.82,1.84,2.65,1.18,1,2.47,1.55,2.53,1.57.02,0,.04.01.05.02,2.86.96,4.96.9,6.25-.16.65-.54.97-1.25,1.11-1.87ZM184.05,99.74c1.37-.04,3.56.15,5.05,1.51.14.18.43.68,0,1.15-.67.73-2.9.82-4.05-.06-.6-.7-.98-1.55-.68-2.51l-.31-.1ZM182.12,96.79c.15.14.36.22.56.21.09,0,9.07-.29,10.52,5.43.02.2.09,1.34-.67,1.97-.77.64-2.26.65-4.29.04.8-.15,1.52-.47,1.99-.98,1.14-1.23.51-2.64.02-3.22l-.06-.06c-2.41-2.27-6.12-2.03-7.31-1.88-.76-.64-1.63-1.23-2.5-1.77.57-.12,1.29-.15,1.74.27ZM175.07,95.55v-.02c.99.42,2.8,1.26,4.55,2.33-2.36-.33-7.4-.61-9.19,2.48-2.12,3.67,1.21,8.26,3.56,10.29-.43.56-.86,1.15-1.26,1.78-8.64-6.36-10.92-10.74-11.28-13.31-.24-1.7.37-2.52.39-2.54l.11-.17c.59-1.25,3.05-1.84,6.92-1.64,3.17.16,6.17.79,6.2.8ZM161.68,86.29c3.21.65,7.04,1.86,9.26,4.09-3.89-2.01-7.2-3.36-10.02-4.24.25.05.5.09.76.15ZM171.07,92.18c-1.59-.62-3.46-1.29-5.39-1.86-7.16-2.1-11.73-1.79-13.59.94-.05.08-1.22,1.91-.47,5.19.91,3.97,4.71,10.27,17.29,18.4-9.94-2.81-16.51-9.79-16.9-10.21-8.79-11.41-4.94-16.16-4.91-16.2.03-.03.06-.07.08-.11.05-.07,4.48-6.44,23.88,3.85ZM149.47,84.62c.41.11.82.22,1.22.33-.25.04-.49.09-.71.14-2.76.65-3.83,2.04-4.05,2.38-.38.47-2.54,3.53-.04,9.84-4.02-3.31-6.6-7.87-5.66-10.51.83-2.33,6.43-2.4,9.25-2.19ZM124.82,82.16c.24-.24,2.6-2.2,12.84-.02.06,0,2.68.44,6,1.13-.43.07-.84.16-1.22.26-1.49-.33-8.74-1.85-11.3-1.17-.37.06-1.97.4-2.32,1.77-.35,1.33.65,2.9,3.11,4.88-.35.27-.69.55-1.01.83-4.29-2.4-5.7-4.48-6.11-5.83-.31-1.03-.07-1.69.01-1.86ZM113.47,93.97c-.14.93-1.2,11.12,17.79,23.22-2.25-.13-4.57-.79-6.97-1.97-2.31-1.14-4.26-2.58-5.67-3.77-10.59-9.71-9.02-18.33-8.93-18.78.91-2.9,4.75-4.91,7.81-6.08,2.45-.94,4.8-1.5,5.97-1.75.18.46.41.92.71,1.38-3.1.75-10.42,3.01-10.71,7.75ZM123.83,80.96s-.04.04-.06.06c-1.26.23-6.48,1.21-11.21,2.71-1.72-1.27-4.95-2.48-7.63-3.35,3.28-1.04,10.28-2.42,18.9.58ZM103.45,82.37c-4.81,1.03-11.61,3.33-12.27,8.21-.22.72-1.32,5.3,3.66,10.79-8.53-5.07-7.96-10.66-7.95-10.72v-.06c.33-5.01,10.65-7.42,16.55-8.22ZM96.39,80.76c-6.37.88-14.36,3.26-15.33,9.58-.04.18-.39,2.19.92,4.75-6.49-2.75-5.59-7.2-5.54-7.43.9-4.73,12.45-6.44,19.95-6.89ZM83.91,81.02c-5.44,1.43-8.45,3.55-8.98,6.32-.02.07-.42,1.84.52,3.96.42.94,1.15,2.05,2.42,3.12-1.32-.55-2.37-1.28-3.15-2.21-1.63-1.93-1.44-3.98-1.44-4.05.55-4.32,5.59-6.27,10.62-7.14ZM74.04,83.53c-1.22,1.18-2.04,2.64-2.27,4.45-.01.11-.27,2.75,1.76,5.19.34.4.72.78,1.14,1.12-2.32.15-4.13-.24-5.29-1.18-1.31-1.06-1.42-2.46-1.43-2.63.11-3.9,3.28-5.92,6.1-6.96ZM50.08,91.19l1.62-.77c5.03-2.17,12.37-3.37,15.82-3.84-.08.13-.15.26-.22.39-2.75.44-16.99,3.05-18.81,10.06-.02.06-1.54,5.77,3.46,9.02-.01.78.04,1.58.17,2.38.05.36,1.08,7.04,10.3,11.64.61.46,4.66,3.77,4.66,10.68,0,4.61.55,9.81,4.59,13.51,2.84,2.59,7.06,4.02,12.61,4.3.59.05,1.19.08,1.81.1-11.56,2.61-17.36-5.8-17.63-6.2-2.32-3.32-2.64-13.07-2.66-13.63.22-5.8-7.48-10.98-7.82-11.21-3.06-1.96-11.52-11.21-12.55-12.34-.22-.66-.55-1.23-.88-1.7-1.55-2.56-1.17-5.8-1.17-5.84v-.1c0-2.67,4.84-5.56,6.71-6.45ZM40.19,95.99l.32-.49c.28-.38.8-.97,1.64-1.6.75-.56,1.86-1.21,3.42-1.74-2.45,1.85-3.7,3.67-3.73,5.43-.04.32-.19,2.02.27,3.98-1.23-.75-2.01-1.63-2.31-2.64-.46-1.56.39-2.94.4-2.95ZM36.24,98.43l.06-.17c.12-.3.58-1.12,1.99-1.62-.19.74-.27,1.68.03,2.71.37,1.25,1.22,2.34,2.54,3.25l-.59-.08c-1.88-.24-3.14-.85-3.74-1.8-.68-1.07-.29-2.29-.29-2.3ZM34.59,99.35c.01.64.15,1.42.62,2.17.37.59.88,1.08,1.54,1.48-.31.12-.57.24-.8.37l-.02-.09s-.4.1-1,.32c-1.86-.48-3.66-.46-5.3-.17.92-1.25,2.53-2.99,4.97-4.07ZM30.86,105.75c-2.24,1.69-4.23,4.37-3.51,8.43.03.2.85,4.93,7.72,5.75.05,0,.31.04.75.04.56,0,1.4-.06,2.38-.31-1.14,1.01-2.39,1.97-3.66,2.62-.16.07-.28.12-.34.15-.16.07-.36.16-.59.27-6.86,1.63-10.57-2.24-10.93-2.64-3.57-5.28.92-10.04,1.12-10.23l.04-.05s2.6-3.08,7.03-4.03ZM22.89,108.08s.74-.59,1.93-1.25c-1.28.94-2.02,1.79-2.15,1.95-.41.45-5.41,6.07-1.23,12.19l.05.07c.14.17,2.93,3.32,8.15,3.58-.48.23-.8.39-.85.42-.12.06-.22.15-.3.26l-.17.25c-8.43,1.82-10.74-2.68-10.91-3.02-2.88-7.77,5.38-14.37,5.47-14.45ZM15.98,123.08s0,0,0,0l.02.04c.03.08.33.72,1.02,1.48-1.28,2.06-4.97,9.39,1.35,17.08.37,1.68,1.35,3.97,3.11,5.57-.68,3.09-2.53,5.05-4.19,6.23.57-1.12.78-2.21.78-3.23,1.53-7.23-3.72-12.23-4.15-12.62-.15-.16-2.3-2.53-1.4-6.97.58-2.87,2.36-5.92,3.46-7.59ZM8.94,132.03c.23-4.96,4.02-10.47,6.34-13.39-.04.84.02,1.67.17,2.49-.79,1.1-3.62,5.23-4.43,9.24-1.09,5.39,1.71,8.25,1.85,8.4.04.03,2.9,2.68,3.72,6.76-.26-.4-.45-.64-.46-.65-1.48-1.72-4.34-4.52-4.67-4.84-2.89-3.44-2.52-7.92-2.51-8.01ZM8.81,138.8c.39.76.88,1.53,1.5,2.26l.05.05s3.11,3.03,4.6,4.76c.16.19,3.68,4.53-.35,8.72.03-.15.07-.31.11-.46l.02-.09c1.06-5.31-3.51-8.46-4.12-8.85-2.59-2.29-2.34-4.83-1.81-6.39ZM7.76,129.43c-.19.83-.32,1.66-.36,2.49-.01.14-.2,2.31.6,4.91-.29.49-.57,1.09-.77,1.78-1.76-4.42-.73-7.4.53-9.17ZM5.95,139.51c.28.67.62,1.36,1.02,2.08.18,1.58.93,3.27,2.68,4.8l.1.08c.08.05.86.55,1.69,1.45-1.65.25-2.98,0-3.96-.75-2.06-1.6-2.04-4.96-2.04-5.01,0-.02.02-1.17.52-2.64ZM6.74,148.52c-.21,6.49-1.23,7.97-1.57,8.29-.69-.91-.66-5.07.04-9.91.34.54.77,1.04,1.32,1.47.07.05.14.1.21.15ZM4.48,163.98c-.08.04-.17.08-.2.06-.95-.63-1.9-4.54-2.04-6.34-.11-1.47-.34-3.74-.34-3.78-1.25-9.68,1.17-15.98,2.9-19.09.05.8.18,1.64.41,2.53-1.3,2.43-1.32,4.7-1.32,4.79,0,.07,0,.89.21,1.96-.12.67-.59,3.37-.84,6.24-.53,6.19.45,7.52,1.36,7.99l.1.04c.1.03.22.06.36.06.26,0,.57-.08.88-.29.32-.22.61-.58.86-1.05-.47,4.49-1.59,6.46-2.34,6.9ZM32.84,272.51c-1.25-.34-2.2-1.34-2.21-1.35l-.06-.06c-.42-.37-.71-.85-.91-1.37.83-.92,3.7-3.53,8.26-2.19.34.13,2.47.95,5.6,1.39-3.07.09-5.68-.12-5.73-.13h-.06c-2.93,0-4.37,2.13-4.89,3.71ZM209.18,328.75c-7.11-2.15-32.6-.28-62.53,4.88-29.27,5.04-53.48,11.62-60.13,16.03.39-2.93,1.34-8.73,3.3-14.85,3.4-10.66,4.42-23.01,4.51-24.18,8.09-4.08,19.42-11.34,32.72-24.11,4.55-4.71,5.51-7.56,5.71-8.44l-.64-.31c-.76,1.57-1.65,3.2-2.97,4.53-31.5,31.64-53.28,32.95-53.52,32.96-12.09.91-18.43-2.11-18.51-2.14-6.22-2.95-8.33-10.82-8.35-10.9l-.04-.11c-1.36-3.21-1.13-10.49-1.13-10.57v-.05s0-.05,0-.05c-.15-1.41-1.87-2.79-3.93-4.32-.46-.34-.89-.66-1.06-.83-.92-.92-2.65-.86-3.09-.82-1.17-.13-1.52-.63-1.52-.63l-.02-.03c-2.05-3.21-.23-7.77.02-8.36.36-.48,3.13-4,7.66-4.32.02,0,2.22-.25,3.58-.05,3.68,0,4.97-1.53,5.39-2.36l-.58-.31c-.53.6-1.72,1.3-4.34,1.19-1.57-.3-4.12,0-4.19,0-4.56.32-7.5,3.39-8.47,4.57-1.54-.54-2.45-1.5-2.8-1.94.22-.79,1.02-2.86,3.46-2.87.78.06,10.8.82,15.01-1.69l-.39-.66-.15-.76c-7.29,1.43-13.64-1.1-13.7-1.13l-.07-.02c-4.41-1.31-7.56.58-9.11,1.91-.08-.89,0-1.63,0-1.76.17-.9.04-3.41,0-3.91v-.13s-.06-.12-.06-.12c-.9-2.19-3.28-2.99-4.67-2.99-1.09,0-3.16.21-3.92.53-.4.17-2.59.83-3.91,1.22-7.44,1.01-9.94-3.81-10.04-4.01-1.43-2.87.04-8.13.05-8.18v-.06c.24-1.11,2.15-9.31,2.17-9.39v-.04c1.51-8.39,3.59-23.89,3.87-28.06.14-2.11.04-3.84-.09-5.07l.07-.02c-.03-.09-.06-.19-.1-.28-.14-1.1-.3-1.74-.31-1.78-.3-1.28-1.51-1.78-2.18-1.87h-.07c-.89-.04-1.56-.83-1.76-1.09-.04-.14-.07-.29-.09-.45-.11-.69-.55-2.78-.57-2.86-.64-3.21-1.01-9.79-.84-14.97.15-4.52-1.27-14.67-1.66-17.34.02-.01.05-.02.07-.04.93-.54,3.86-3.26,3.26-15.98.54.14,1.12.22,1.74.22.69,0,1.42-.09,2.2-.27.68,1.15,1.12,2.64.78,4.41-.17.53-.45,1.71.13,2.4.15.18.46.45.99.45.08,0,.16,0,.24-.02l.11-.02c.24-.07,5.09-1.54,7.39-6.32,1.05,2.81,3.66,7.26,9.93,9.22.14.04,2.48.64,5.91.64,1.43,0,3.05-.11,4.77-.4,2.01-.35,4.31-.99,6.66-2.14-.7,3.06-1.35,9.45,3.37,15.04.01.01.02.02.03.04.21.22,5.16,5.28,13.44,3.4.79-.12,3.02-.19,4.27.91.7.61,1.04,1.5,1.02,2.73-.09.53-.47,1.91-1.24,2.14-.31.09-.53.37-.55.69-.02.32.17.63.46.75.65.28,1.56.5,2.58.5,2.03,0,4.5-.89,6.15-4,0-.01.01-.02.02-.04.03-.07.41-.9.48-2.12,2.03,1.17,4.88,1.86,7.65,1.86.28,0,.57,0,.85-.02,0,.36-.08.96-.55,1.62-.88,1.22-3.18,2.76-9.18,3.19-.34.02-.63.27-.7.61-.04.21,0,.41.12.58h0c.03.06,2.03,3.03,5.84,4.59.38.48,1.16,1.66.74,2.59-.61,1.35-1.33,4.65.29,7.48,1.38,2.42,4.1,3.9,8.06,4.39,1.59,1.72,1.38,2.56,1.25,2.81-.05.05-.19.16-.48.19-.41.03-1.33-.12-2.89-1.49-.25-.22-.61-.25-.9-.09-.29.17-.43.5-.36.82.06.27,1.44,6.54,5.96,7.38.03,0,.47.1,1.14.1.59,0,1.35-.07,2.19-.31,1.65-.48,3.93-1.77,5.38-5.21.02-.06.52-1.46.37-3.38-.06-.77-.23-1.69-.63-2.68.7.34,1.48.63,2.36.83.09.02,1.02.25,2.35.25,1.7,0,4.04-.37,6.03-2.03,2.75-2.29,3.99-6.33,3.7-12.01,2.69-1.66,4.15-4.01,4.3-4.25,1.62,2.82,3.81,4.52,5.88,5.55-3.43-.64-5.41.73-5.49.79l.52.73c.47-.17,3.5-1.18,5.82.43h0c.64.4,1.2,1.03,1.61,1.84,1.05,2.05.99,4.77-.14,7.28-1,1.35-2.16,3.9-.38,5.32l.12.1.15.04c.24.07.54.12.88.12.73,0,1.6-.24,2.13-1.08l.07-.1.03-.12c.05-.2,1.31-4.84,6.15-5.68.35,0,1.53-.09,2.42-1.02.78-.82,1.11-2.02.96-3.58-.25-2.65-1-10.73-10.47-11.78l-.08.71c1.31.23,4.39,1.07,6.47,3.99.45.53.82,1.1,1.12,1.7.35.54.31.51.12.25.82,1.72,1.14,3.62,1.3,5.28.1,1.08-.08,1.88-.53,2.36-.54.57-1.33.56-1.34.56h-.08s-.08,0-.08,0c-5.44.91-7.13,5.75-7.41,6.68-.28.33-.81.3-1.08.26-.81-.92.8-3.12.81-3.14l.09-.15c1.36-2.96,1.42-6.21.15-8.7-.5-.99-1.19-1.78-1.99-2.33,2.25.76,4.02.78,4.14.78h0v-.88c-4.07-.93-6.02-2.36-6.02-2.36h0c-1.93-1.13-3.9-2.96-5.21-5.99,1.27-6.66-4.04-11.65-4.29-11.89-.29-.26-.6-.65-.93-1.12,1.07.44,2.45.78,4.17.78,2.4,0,5.46-.65,9.26-2.58.83-.12,5.27-.82,7.83-2.86.18.18.36.35.56.52,1.85,1.6,5.17,3.29,10.5,2.4,1.37.95,8.53,6.59,7.91,20.14-.08.58-1.31,9.12-4.43,13.17-.24.23-1.72,1.63-3.7,2.76-2.39,1.36-5.39,5.56-5.53,5.75-.12.18-2.94,4.43-3.79,6.6-.25.5-3.96,7.71-8.13,8.14h-.08c-.27.07-6.59,1.3-9.44-5.41-.03-.11-.14-.51-.24-1.11-.67-2.42-.58-4.76-.47-5.92l-.76-.22c-1.14,3.96-.04,7.58,0,7.74l.03.07c2.39,5.69,7.04,6.51,9.53,6.51.84,0,1.44-.09,1.61-.13,5.13-.55,9.16-8.67,9.33-9.02l.03-.06c.33-.86,1.05-2.15,1.76-3.34,9.48-.07,13.72-3.81,15.14-5.48.58,1.29,1.31,2.55,2.24,3.7.02.02.03.04.05.05-1.12,1-4.64,3.39-12.49,2.89h-.05s-.05,0-.05,0c-.25.01-6.2.41-8.13,5.52-1.54,4.07.66,7,2.13,8.06.3,1.08.88,2.12,1.74,3.1l.06.06c.74.67,2.26,1.53,4.08,1.53.94,0,1.96-.23,2.99-.83.03-.02.17-.11.38-.26-.32,1.05-.42,2.23-.29,3.54,0,.16.3,3.82,4.86,5.18h0c.05.02.75.25,1.7.25.73,0,1.6-.14,2.42-.62,1.06-.62,1.8-1.66,2.22-3.08.37.06.76.1,1.17.12-1.49,1.45-2.8,3.84-1.64,7.46l.03.08c.04.08.94,2.04,3.05,2.8.55.2,1.12.3,1.72.3.97,0,2.01-.26,3.11-.8.09-.05,2.32-1.28,2.7-3.6.19-1.15-.1-2.33-.86-3.52.46.06.91.08,1.33.08.4.16,1.39.49,2.67.49.84,0,1.8-.15,2.79-.58-.18.67-.29,1.39-.29,2.14-.09.68-.5,5.21,4.41,7.9l.06.03c.49.22,1.37.67,2.24,1.24-1.09-.04-2.03.35-2.58.75-2.73,1.99-1.81,5.2-1.77,5.31.48,1.77,2.91,4.29,6.63,4.13.09,0,.23.02.42.02,1.08,0,3.61-.36,5.18-3.52.03-.05.09-.16.17-.31.6.85,1.52,1.81,2.77,2.17.34.1.68.15,1.03.15.93,0,1.88-.35,2.84-1.03.29,1.22,1.01,2.8,2.77,3.99-2.21,29.91,4.74,58.45,6.54,65.2ZM202.57,261.48c-1.27-1.37-1.36-2.98-1.35-3.5.44-.69.84-1.58.9-2.55.07-.33.33-1.05,1.33-1.85,1.5-1.2,1.54-2.99,1.43-3.95.55-.26,1.11-.6,1.66-1.03-.17,1.75-.61,3.71-1.43,4.42-1.62,1.4-2.57,4.71-2.55,8.46ZM203.81,270.87c.05-1.87.14-3.76.26-5.65l.09.24c.05.14,1.02,2.87-.34,5.41ZM210.87,234.93c.26-.21.41-.37.43-.39l.06-.07s.05-.09.08-.13c.42.99.87,2.48.47,3.8-.24.51-1.89,4.31-.76,6.99.65,1.54-1.12,4.78-2.4,6.46l-.15.19v.24c-.01.1-.41,9.57-4.2,12.55l-.31.25c.02-.27.04-.55.06-.82.07-.13.1-.28.09-.44-.01-.11-.02-.22-.03-.33,0-.03,0-.06,0-.09h-.02c-.34-3.89.47-7.69,1.94-8.96,1.83-1.59,2.03-5.89,2.05-7.14,2.16-2.53,3.66-6.55,2.68-12.11ZM210.13,233.53c-.16.16-1.02.94-2.15.9-.5-.02-.99-.2-1.48-.53.11.02.21.03.32.03.49,0,.98-.18,1.43-.52.11-.08,1.04-.86,1.08-2.17.03-1.05-.51-2.08-1.61-3.07l-.07-.05s-1.64-1.22-1.83-2.69c-.06-1.58-.18-3.14-.3-4.56.98,2.96,2.2,6.06,3.5,7.95.03.05.07.1.09.15.05.08.09.15.14.22l.07.1.09.07c.24.18,2.33,1.85.72,4.16ZM208.18,223.73c.09.13.17.25.23.37.12.25.17.45.18.61-.14-.32-.27-.64-.4-.98ZM209.42,220.59l.04.03s2.49,1.63,2.39,3.71c-.07.34-.53,2-2.37,2.29-.03-.06-.07-.13-.1-.2.16-.13.3-.28.42-.46.45-.7.44-1.63-.01-2.54-.63-1.25-2.21-2.53-2.79-2.98-1.07-3.22-1.86-6.31-2.12-7.35.33.09.7.19,1.12.28.23,1.5,1.06,5.49,3.43,7.23ZM208.53,216.8c-.49-1.16-.78-2.38-.93-3.21.35.03.7.05,1.07.05.76,0,1.55-.08,2.34-.28-.18.9-.74,2.33-2.47,3.44ZM211.88,211.39c-2.62,1.38-6.08.4-7.26-.01-.12-1.06-.26-2.25-.38-3.53,1.27.5,3.74,1.32,6.31,1.32,1.33,0,2.68-.22,3.9-.81,0,0,0,0,0,0-.57,1.4-1.43,2.42-2.58,3.03ZM213.79,206.97c-3.13,1.52-7.52.03-9.13-.62.22-.67.43-1.4.63-2.17,1.27.65,3.7,1.69,6.35,1.69,1.11,0,2.25-.18,3.37-.65.42-.17.82-.39,1.2-.63-.58,1.08-1.39,1.88-2.42,2.38ZM214.42,203.8c-3.42,1.43-7.42-.44-8.76-1.17.23-1.05.42-2.11.55-3.1,1.36.79,3.89,1.99,6.67,1.99,1.25,0,2.54-.24,3.81-.87.64-.32,1.24-.72,1.8-1.2-.99,2.17-2.35,3.63-4.06,4.35ZM216.01,199.27c-3.9,1.94-8.45-.68-9.63-1.45.01-.24.02-.48.02-.7,0-.84.08-1.8.2-2.79,1.32.93,3.68,2.28,6.34,2.28.75,0,1.52-.11,2.3-.36,2.93-.97,5.22-3.8,6.84-8.45-1.02,6.07-3.07,9.99-6.06,11.48ZM206.84,192.58c.22-1.37.48-2.68.69-3.68.26.36.53.7.82,1.01,2.36,2.53,4.94,2.6,5.04,2.6h.06s.06,0,.06,0c2.54-.39,4.71-1.59,6.46-3.55-1.36,3.17-3.1,5.12-5.22,5.82-3.39,1.12-6.88-1.36-7.92-2.19ZM213.37,190.97c-.35-.03-2.18-.25-3.93-2.15-1.74-1.89-3.72-5.87-3.34-14.13.53,3.08,1.73,7.64,4.33,9.81,1.18.98,2.53,1.39,4.02,1.23.55-.04,5.15-.62,8.79-9.77-.66,5.74-2.85,13.89-9.87,15.01ZM223.31,168.31c-.28.18-.59.31-.88.26-.43-.07-.73-.5-.81-.63-.77-2.48.1-5.02,1.18-6.96.54,2.8.56,5.75.51,7.33ZM220.17,168.49l.05.12c.06.11.51.93,1.4,1.31-.58.34-1.03.43-1.36.42-.56-.02-.91-.36-1.04-.5-1.3-4.41,2.4-11.64,4.17-14.73.15.52.3,1.11.46,1.75-1.21,1.33-5.37,6.43-3.68,11.63Z"/>
    <path d="M145.25,181.4c-3.86-7.27-12.23-6.45-15.64-5.77.6-1.18,3.68-6.32,11.38-5.42.04,0,4.41.79,7.46,5.17,1.29,1.85,2.17,4.05,2.63,6.59.24.95,1.16,5.24.38,12.22l.78.15c1.6-8.49.74-15.18-2.55-19.88-3.44-4.9-8.25-5.74-8.49-5.78-9.7-1.13-13.08,6.49-13.11,6.56-3.61,8.21,3.81,13.99,3.89,14.05l.52-.68c-1.77-2.1-2.79-4.47-3.05-5.1h.02c-.74-1.69-1.12-3.79-.48-6.16,1.12-.29,4.48-1.02,7.89-.33h0s4.66.47,7.53,4.83l.85-.45Z"/>
  </g>
</svg>